<svg id="Layer_1" data-name="Layer 1" xmlns="http://www.w3.org/2000/svg" viewBox="0 0 500 449.63"><defs><style>.cls-1{fill:#f7941d;}.cls-2{fill:#231f20;}.cls-3{fill:#fff;}</style></defs><title>LOGOS</title><polygon class="cls-1" points="37.6 336.76 5 134.92 150.66 32.68 178.64 49.99 251.58 2.19 346.94 65.64 366.73 51.05 495 136.78 463.06 336.09 249.66 447.45 37.6 336.76"/><polygon class="cls-2" points="249.67 439.6 456.44 330.51 486.92 140.31 366.95 60.12 347.17 74.7 251.56 11.08 178.76 58.8 150.92 41.57 13.08 138.32 44.23 331.18 249.67 439.6"/><polygon class="cls-1" points="377.56 91.34 376.49 118.8 387.04 96.15 394.33 106.41 397.73 101.43 481.44 143.88 371.59 71.33 377.56 91.34"/><path class="cls-1" d="M254.74,54.44C253.2,56.12,251,19.61,251,19.61S202.32,50.53,194.81,55.5l30.54-2.23-7.6,14.36L234.5,55.12l-2.29,7.25-3.27,6.47,4.34-.35L229,77.43l14.12-8-3.82,9.25,11.08-8,53.89,51L259,50.36S256.29,52.76,254.74,54.44Z"/><path class="cls-1" d="M228.54,121.31,190,65.09l3.31,15.58L149.08,53.75,24.64,141l85.9-40.85s-2.88,29.58-1.89,28.67,20.62-18.33,20.62-18.33l5.35,14,24.69-27,1.11,14.63,5.26-9.62c0,4.82.12,18.92.12,18.92l7.44-10.55L203,132l-.06-8.59Z"/><polygon class="cls-1" points="297.66 99.2 320.28 115.44 308.39 110.75 331.8 128.67 314.36 124.67 310.38 129.31 302.28 127.54 310.29 120.75 297.66 99.2"/><path class="cls-3" d="M91.79,207.11q0,6.3-.07,12.61c0,7.68-2.15,13.89-6.32,18.84s-10.29,8.34-18.34,10.15-14.13,1.12-18.24-2.44-6.17-9.67-6.17-18.22v-54.9c0-8.56,2.08-15.22,6.25-19.8s10.34-6.8,18.48-6.81,14.29,2.12,18.44,6.21S92,162.68,92,170.36c0,3.07,0,6.15,0,9.22q-7.82.53-15.64,1.1c0-3.5,0-7,0-10.5s-.75-6-2.3-7.4a8.5,8.5,0,0,0-6.24-2,8.85,8.85,0,0,0-6.26,2.45c-1.56,1.55-2.34,4.18-2.35,7.86L59.06,226c0,3.68.76,6.1,2.3,7.24s3.6,1.46,6.19,1a11,11,0,0,0,6.21-3.29c1.56-1.69,2.34-4.29,2.35-7.84l.06-14Q84,208.05,91.79,207.11Z"/><path class="cls-3" d="M98.48,166.68c0-6.81,2-12.09,5.91-15.73s9.5-5.41,16.8-5.41,12.89,1.74,16.74,5.11,5.76,8.18,5.72,14.48l-.28,40.52c-.05,6.3-2,11.32-5.93,15.16s-9.51,6.28-16.81,7.3-12.86.12-16.7-2.91-5.75-8-5.71-14.8Q98.36,188.55,98.48,166.68Zm14.58,42.79q0,4.44,2.06,6a7.53,7.53,0,0,0,5.59,1.12,9.51,9.51,0,0,0,5.62-2.43c1.41-1.34,2.12-3.44,2.14-6.33l.3-43q0-4.32-2.05-6a8.29,8.29,0,0,0-5.6-1.67,8.54,8.54,0,0,0-5.63,1.92q-2.11,1.86-2.14,6.3Z"/><path class="cls-3" d="M150.8,146.42h14.88l-.42,64.88q12.28-.94,24.58-1.62c0,3.52,0,7-.05,10.55q-19.8,1.26-39.52,3.35Q150.54,185,150.8,146.42Z"/><path class="cls-3" d="M194.57,164q0-8.94,5.89-13.74t16.79-4.76q11,0,16.77,4.69t5.81,13.41q0,18.72,0,37.43,0,8.75-5.87,13.5c-3.91,3.19-9.54,4.87-16.9,5.13s-13-1-16.85-4-5.81-7.45-5.78-13.4Zm14.76,38.39c0,2.64.68,4.47,2.09,5.49a8.85,8.85,0,0,0,5.64,1.42,9.36,9.36,0,0,0,5.65-1.76c1.4-1.1,2.11-3,2.12-5.57l.09-39c0-2.62-.69-4.45-2.08-5.51a10.61,10.61,0,0,0-11.24.06c-1.41,1.08-2.11,2.94-2.12,5.58Z"/><path class="cls-3" d="M278.17,218.7c-.19-.48-.37-.94-.55-1.36a8.58,8.58,0,0,1-.48-1.56,14.56,14.56,0,0,1-.28-2.38c-.05-1-.07-2.17-.07-3.62l0-11.36q0-5.05-2.33-7.16c-1.54-1.4-4-2.13-7.48-2.16l-5.16,0,0,29.31q-7.49-.09-15-.06,0-36,0-71.94h22.46q11.64,0,16.86,4.15c3.48,2.78,5.24,7,5.26,12.6,0,1.91,0,3.82,0,5.73q0,11.24-9.72,14.57c3.81,1.24,6.41,3.22,7.83,5.92a21.17,21.17,0,0,1,2.14,9.78c0,3.75,0,7.49,0,11.24a36.55,36.55,0,0,0,.29,4.75,12.85,12.85,0,0,0,1.38,4.17Q285.8,218.92,278.17,218.7Zm-16.41-62q0,11.06,0,22.11l5.84.05a11.37,11.37,0,0,0,6.57-1.59q2.37-1.62,2.36-6c0-2.38,0-4.75,0-7.13,0-2.61-.62-4.51-1.85-5.69s-3.14-1.76-5.76-1.77Z"/><path class="cls-3" d="M350.18,223.58q-7.51-.79-15.05-1.48-1.33-7-2.67-13.92-9.16-.66-18.33-1.16-1.26,6.64-2.51,13.26-6.87-.43-13.74-.79,7.47-36.17,14.84-73.1l21.78,0Q342.31,184.26,350.18,223.58ZM316,197.05q7.18.34,14.38.77-3.72-19.24-7.41-38.19Q319.47,178.47,316,197.05Z"/><path class="cls-3" d="M355.24,146.43l23.54,0c7.48,0,13.06,1.73,16.74,5.25s5.53,8.74,5.57,15.54l.24,42.45c0,6.8-1.74,11.71-5.36,14.65s-9.17,3.81-16.64,2.78q-11.76-1.62-23.55-2.94Zm15,11.38.39,56.81c2.8.31,5.6.62,8.39.95a7.53,7.53,0,0,0,5.53-1.07q2-1.5,2-5.94-.14-21.24-.28-42.48,0-4.44-2.07-6.23a8.37,8.37,0,0,0-5.55-1.87Z"/><path class="cls-3" d="M407.5,170.32c0-7.67,2.08-13.47,6.38-17.58s10.53-6.21,18.67-6.2,14.39,2.22,18.71,6.81,6.48,11.24,6.48,19.8v54.9c0,8.55-2.13,14.66-6.39,18.17s-10.41,4.21-18.47,2.39-14.25-5.21-18.57-10.17-6.5-11.19-6.54-18.85Zm16.77,52.77c0,3.55.8,6.18,2.35,7.91a10.76,10.76,0,0,0,6.22,3.36c2.59.5,4.65.17,6.19-1s2.31-3.64,2.3-7.32q-.06-27.45-.13-54.91c0-3.68-.79-6.31-2.34-7.86a8.88,8.88,0,0,0-6.26-2.45,8.5,8.5,0,0,0-6.24,2c-1.55,1.4-2.32,3.86-2.3,7.4Z"/><path class="cls-3" d="M187.92,365.76v5.61q0,5.11-2.4,7.86c-1.61,1.83-4,2.74-7.1,2.74s-5.5-.91-7.1-2.74-2.41-4.45-2.41-7.86V349.42q0-5.12,2.41-7.86t7.1-2.74c3.13,0,5.49.91,7.1,2.74s2.4,4.45,2.4,7.86v4.1h-6V349a4.59,4.59,0,0,0-.9-3.22,3.55,3.55,0,0,0-4.81,0,4.59,4.59,0,0,0-.9,3.22v22.79a4.47,4.47,0,0,0,.9,3.19,3.63,3.63,0,0,0,4.81,0,4.47,4.47,0,0,0,.9-3.19v-6Z"/><path class="cls-3" d="M190.57,349.42q0-5.12,2.49-7.86c1.67-1.83,4.06-2.74,7.19-2.74s5.53.91,7.19,2.74,2.49,4.45,2.49,7.86v21.95q0,5.11-2.49,7.86T200.25,382c-3.13,0-5.52-.91-7.19-2.74s-2.49-4.45-2.49-7.86ZM197,371.79a4.59,4.59,0,0,0,.9,3.22,3.55,3.55,0,0,0,4.81,0,4.59,4.59,0,0,0,.9-3.22V349a4.59,4.59,0,0,0-.9-3.22,3.55,3.55,0,0,0-4.81,0A4.59,4.59,0,0,0,197,349Z"/><path class="cls-3" d="M226.55,369.26l4.35-30h8.86v42.19h-6V351.23l-4.41,30.26h-6l-4.75-29.84v29.84H213V339.3h8.86Z"/><path class="cls-3" d="M252.58,339.3q4.8,0,7.16,2.65t2.34,7.78v5.48q0,5.13-2.34,7.78t-7.16,2.65h-3v15.85h-6.37V339.3Zm-3,6v14.28h3a3.1,3.1,0,0,0,2.32-.84,4.58,4.58,0,0,0,.81-3.14V349.3a4.56,4.56,0,0,0-.81-3.13,3.1,3.1,0,0,0-2.32-.84Z"/><path class="cls-3" d="M284.1,381.49h-6.43l-1.1-7.65h-7.83l-1.1,7.65h-5.85l6.49-42.19h9.33Zm-14.55-13.38h6.15l-3.07-21.34Z"/><path class="cls-3" d="M292.27,350.93v30.56h-5.73V339.3h8l6.55,25.25V339.3h5.68v42.19h-6.55Z"/><path class="cls-3" d="M317,367.51,309,339.3h6.67l4.87,19.23,4.87-19.23h6.08l-8.05,28.21v14H317Z"/><path class="cls-3" d="M216.84,295.3v13.59q0,12.42-6.07,19.07t-17.89,6.65Q181,334.61,175,328t-6.07-19.07V255.71q0-12.42,6.07-19.07t17.9-6.65q11.84,0,17.89,6.65t6.07,19.07v9.93h-15.2V254.69c0-3.71-.75-6.31-2.26-7.82a9.24,9.24,0,0,0-12.13,0c-1.51,1.51-2.27,4.11-2.27,7.82v55.23q0,5.55,2.27,7.74a9.49,9.49,0,0,0,12.13,0q2.26-2.19,2.26-7.74V295.3Z"/><path class="cls-3" d="M248.18,231.16q12.56,0,18.19,5.85T272,254.69v3.65q0,7.89-2.48,13a15.84,15.84,0,0,1-7.89,7.6,16.1,16.1,0,0,1,9.28,8.11,31.75,31.75,0,0,1,2.7,13.81v8.33q0,11.83-6.14,18t-18.26,6.21H223.92V231.16ZM240,245.77v27h6.29a10.12,10.12,0,0,0,7.08-2.33q2.56-2.34,2.56-8.48v-5.7q0-5.55-2-8t-6.21-2.49Zm0,41.64v31.42h9.21q4.1,0,6.21-2.19t2.12-7.89v-8.92q0-7.15-2.41-9.79c-1.61-1.75-4.26-2.63-8-2.63Z"/><path class="cls-3" d="M280.63,231.16h25.42q12.12,0,18.05,6.43T330,256.44v51.72q0,12.42-5.91,18.85t-18.05,6.43H280.63Zm16.07,14.61v73.06h9.06a8.1,8.1,0,0,0,6-2.19q2.19-2.19,2.19-7.75V255.71q0-5.55-2.19-7.75a8.1,8.1,0,0,0-6-2.19Z"/><path class="cls-1" d="M113.55,303.16a2.35,2.35,0,0,0,2.59,2.33,3.48,3.48,0,0,1,1.08.15c-.11-.25-.27-.63-.44-1l.2-.22c1.28.57,2.59,1.13,4,1.72l.16-1,3.85,2.23.28-.82c2.61,1,5.24,2.06,7.86,3.11l.13-.27a20.44,20.44,0,0,1-3.66-2.3c-1.55-1.51-3.73-1.77-5.47-3l.58-.72-4.18-1.61.71-.82-4-1.78.5-.84c-1.2-.73-3-.63-3.66-2.62-.7-.31-1.76-.79-3-1.36l.81-.58c-1.19-.71-2.36-1.42-3.67-2.24.47-.34.72-.51,1-.7-1.15-.77-2.27-1.53-3.56-2.44l1.15-.46c-1.26-.87-2.46-1.71-3.81-2.71l1.05-.36c-.94-.73-1.86-1.45-2.92-2.31l1.14-.61c-1.09-.85-2.13-1.68-3.29-2.65l1-.41c-.85-.7-1.63-1.35-2.57-2.15l1.1-.34c-1.8-2.22-3.59-4.38-5.4-6.49l.17-.17a34.83,34.83,0,0,1,6.63,5.43c.13-.46.24-.8.38-1.28.78.86,1.46,1.64,2.18,2.46.12-.3.21-.56.4-1,.95,1.12,1.8,2.15,2.68,3.25.16-.3.32-.61.6-1.12.85,1,1.57,1.88,2.33,2.82l.42-.91c1,1.23,1.84,2.35,2.74,3.55.11-.21.25-.48.5-1,.88,1.16,1.64,2.21,2.45,3.34l.72-1c.81,1.22,1.55,2.37,2.32,3.59.12-.16.28-.34.61-.73l1.56,3.12c1.38-.33,1.42.95,1.91,1.69.75,1.12-1,1.71-.71,3a5.1,5.1,0,0,1,.36-.87c.2-.3.5-.83.69-.81a2.33,2.33,0,0,1,1.5.6,24.16,24.16,0,0,1,1.61,3.09l.87-.53c.57,1.29,1.11,2.57,1.68,3.91.23-.17.46-.36.9-.71.91,3.67,3.84,5.95,5.26,9.26l.39-.2c-1.09-2.63-2.16-5.27-3.28-8l.92-.13c-.78-1.28-1.52-2.51-2.34-3.84l1.05-.28c-.75-1.36-1.48-2.67-2.33-4.15l1.31.07-1.15-1.7.09-.11,1.25,1.15.1-.1c-.72-.74-1.5-1.43-2.17-2.21s-.48-.83.25-1.34c-.59-1-1.18-1.91-1.78-2.85l.09-.33,1,.43c-.83-1.57-1.47-2.74-2.21-4l1.42-.05c-.64-1.22-1.25-2.35-2-3.62l1.4.11c-.7-1.26-1.39-2.42-2.22-3.73l1.38.15c-.45-1-.9-1.93-1.41-2.91l1.37.12c-.4-1-.8-1.9-1.25-2.84l1.28-.07c-.37-.71-.73-1.36-1.15-2.06l1-.1c-.13-1.08-.27-2.07-.43-3l.5-.15a30.33,30.33,0,0,1,2.37,2.42l.89-.3c.21.71.4,1.41.58,2.15l1.08-.53c.28,1,.52,1.94.76,2.94l.89-.58.45,0c.12,1,.23,2,.32,2.94l.92-.68c0,1.53-.11,2.92-.18,4.43l1.14-.86c-.08,1.52-.15,2.86-.24,4.26l1.22-.54c-.14,1.47-.28,2.84-.43,4.26l.92-.32c-.25,1.29-.49,2.51-.75,3.81l.79,0c-.29,1.48-.58,2.93-.88,4.44l.93-.28c-.3,1.63-.58,3.15-.88,4.75l1-.18c-.36,1.55-.7,3-1.14,4.83l.91-.46c-.32,2.45-.63,4.73-1,7l.41.08a5.27,5.27,0,0,0,.21-.85c.13-1.92,1.35-3.75.5-5.82l.8.06c-.15-3.79-.15-3.78.78-3.84a15.48,15.48,0,0,1-.14-1.91c0-.68-.31-1.5.6-2,.11,0,0-.6,0-.91.1-.79-.45-1.68.56-2.36.17-.11,0-.89,0-1.37s.05-1,.08-1.56l.64.1c.07-.84.13-1.63.21-2.41a7.11,7.11,0,0,1,.19-.72l.79.36c.16-1.13.29-2.17.45-3.31l.93.34c.18-1.14.34-2.19.5-3.27l1.38-.09c-.43-1.22.26-2.25.8-3.29.08-.16.47-.17.78-.28.87-2,1.8-4.13,2.72-6.23h.39q-.63,3.88-1.26,8.09l1-.6c-.37,1.8-.69,3.42-1,5.14l1-.12c-.55,1.33-1.06,2.56-1.62,3.87l1.27-.07c-.59,1.31-1.14,2.5-1.72,3.74l1.17.06c-.6,1.13-1.13,2.13-1.72,3.2l.78.23c-.66.95-1.29,1.81-1.78,2.49.22,1.7-1,2.21-1.58,3.25l.49.46c-.7.92-1.41,1.82-2.2,2.79l.8.41c-.82.93-1.58,1.76-2.4,2.63l.32.3c-.72,1.1-1.45,2.19-2.19,3.26l.28.24,1.06-1.45.29.5c.84-.95,1.65-1.9,2.47-2.91l.45.48c.66-.7,1.26-1.92,2-2,1.08-.18,1.45-1.35,2.26-1.65,2.37-.88,4.25-2.66,6.11-4.31-.4.61-.8,1.23-1.22,1.83-.56.78-1.1,1.58-1.62,2.42-.85,1.35-1.38,3.19-2.84,3.83-.13.05-.33.18-.33.25.1,1.53-1.08,1.49-1.75,2.1a3.05,3.05,0,0,1-.75.39l.58.78c-1.16.55-2.28,1.06-3.53,1.61l.71.5c-1.32.25-2.45.48-3.6.64-3.48.45-3.5.47-3.93,3.9-.14,1.14-.33,2.26-.54,3.53l-.59-.56c-.5,1.22-1,2.37-1.56,3.62l-.69-.63c-.47.76-.71,1.72-1.4,2-1.21.57-1.59,1.76-2.6,2.21-2.63,1.18-4.55,2.91-6.94,4.29l.45-.53c1.32-1.47,2.92-2.93,3.69-4.67.43-1,1.64-1.61,1.67-2.35.06-1.46,1.41-1.87,2.27-2.78l-.6-.41c1-.83,1.94-1.65,2.94-2.55l-.43-.28c.19-.21.43-.46.75-.82-1.55-.1-1.7,1.4-2.8,1.73-.09-.12-.2-.28-.32-.43-.82.82-1.64,1.6-2.56,2.46-.21-.32-.34-.54-.45-.71-.7.59-1.37,1.57-2.12,1.64-1.54.15-2.24,1.18-3.38,1.71-.18.09-.48,0-.9-.06-.68.51-1.53,1.15-2.54,1.87-.1-.37-.16-.59-.22-.83-1,.58-2,1.15-3.24,1.8v-1.2l-3.8,1.8c.06-.55.1-.87.14-1.3l-3.9,1.67c0-.44.09-.73.12-1L99.61,324l.56-1.07c-2.79.45-5.49.91-8.07,1.37l0-.39,6.28-2.85c-.28-.59.21-.92.88-1.14l3.81-1.26-1.29-.09c0-.15,0-.3,0-.45l3.13-.51c.49-1.86,2-1,3.15-1.5l-.38-.83,3.16-.38c0-.16,0-.36-.08-.6,1.94-.23,3.89-.44,5.85-.74.54-.08,1-.55,1.57-.64a21.47,21.47,0,0,1,2.53-.15c1-1.45,2.56-.25,3.78-.67.19-.16.45-.55.6-.51,1.9.41,3.59-.69,5.4-.79a5.15,5.15,0,0,0,.75-.19l-.09-.41c-2.25.35-4.53.68-6.86,1,0-.3.09-.57.14-.87l-4.6,1.21.2-1-4.76,1c.12-.41.19-.68.27-1a1.16,1.16,0,0,0-.31,0c-1.16.27-2.3.58-3.44.79-.28.05-.59-.25-1.14-.52l-3.34.76c.11-.45.17-.7.22-.94l-4.34.51.69-1.25c-1.41.11-2.77.21-4.34.31.43-.56.63-.83.89-1.18-1.5.1-2.89.18-4.45.26l.76-1.06c-1.07,0-2.08,0-3-.06l0-.52.6-.94c-1-.2-2-.42-3-.68.23-.47.37-.77.53-1.11-.73-.17-1.45-.35-2.19-.56.16-.42.24-.66.33-.9a28.59,28.59,0,0,1-2.47-2.29c0-.17.07-.34.11-.51.92.13,1.9.24,3.07.33l-.13-1.05c.84.48,1.48.81,2.33,1.22,0-.34-.1-.71-.19-1.39,1.1.51,2,.88,3,1.26,0-.29,0-.68-.07-1.32,1,.49,1.91.93,2.93,1.37-.06-.36-.11-.69-.22-1.38,1.29.78,2.48,1.45,3.78,2.13,0-.38-.06-.73-.12-1.36,1.23.67,2.37,1.26,3.62,1.87,0-.39,0-.74,0-1.37,1.28.69,2.48,1.32,4,2.1l-.42-.94.34-.11c1,.56,1.94,1.11,2.59,1.46l1.35-.22Z"/><path class="cls-1" d="M385.93,303.18l1.35.22c.64-.35,1.62-.9,2.58-1.46l.35.11c-.12.27-.25.54-.42.94,1.55-.78,2.76-1.41,4-2.1,0,.63,0,1,0,1.37,1.25-.61,2.4-1.2,3.62-1.87-.05.63-.08,1-.11,1.36,1.3-.68,2.49-1.35,3.78-2.13-.11.69-.16,1-.22,1.38,1-.44,2-.88,2.93-1.37,0,.64-.06,1-.07,1.32,1-.38,1.86-.75,3-1.26-.09.68-.15,1.05-.19,1.39.85-.41,1.49-.74,2.32-1.22-.06.57-.1.88-.12,1.05,1.17-.09,2.15-.2,3.07-.33,0,.17.07.34.11.51a27.33,27.33,0,0,1-2.48,2.29l.34.9c-.75.21-1.46.39-2.19.56.15.34.3.64.52,1.11-1,.26-2,.48-3,.68.2.31.4.62.59.94,0,.17,0,.34,0,.52-1,0-2,.05-3.05.06l.76,1.06c-1.57-.08-2.95-.16-4.46-.26l.89,1.18c-1.57-.1-2.92-.2-4.33-.31l.69,1.25-4.35-.51.23.94-3.35-.76c-.54.27-.86.57-1.13.52-1.15-.21-2.29-.52-3.44-.79a1.19,1.19,0,0,0-.32,0c.08.29.16.56.28,1l-4.77-1c.05.25.1.52.21,1l-4.6-1.21c0,.3.09.57.14.87-2.33-.33-4.61-.66-6.87-1,0,.14-.06.27-.08.41a4.85,4.85,0,0,0,.75.19c1.8.1,3.49,1.2,5.4.79.15,0,.41.35.6.51,1.21.42,2.73-.78,3.78.67a21.3,21.3,0,0,1,2.52.15c.54.09,1,.56,1.58.64,1.95.3,3.91.51,5.85.74,0,.24-.06.44-.08.6l3.16.38c-.18.38-.28.61-.39.83,1.11.49,2.66-.36,3.16,1.5l3.12.51,0,.45-1.29.09,3.8,1.26c.68.22,1.17.55.88,1.14l6.28,2.85c0,.13,0,.26,0,.39-2.58-.46-5.28-.92-8.08-1.37.11.2.26.5.57,1.07l-5.11-1.14c0,.27.07.56.13,1-1.36-.57-2.61-1.11-3.91-1.67,0,.43.08.75.14,1.3-1.39-.65-2.58-1.22-3.79-1.8v1.2c-1.2-.65-2.22-1.22-3.25-1.8-.06.24-.12.46-.22.83-1-.72-1.86-1.36-2.53-1.87-.42,0-.72.15-.9.06-1.14-.53-1.84-1.56-3.38-1.71-.75-.07-1.42-1-2.12-1.64l-.45.71c-.93-.86-1.75-1.64-2.57-2.46l-.31.43c-1.1-.33-1.26-1.83-2.81-1.73l.75.82-.42.28c1,.9,1.94,1.72,2.93,2.55l-.59.41c.86.91,2.21,1.32,2.27,2.78,0,.74,1.24,1.38,1.67,2.35.76,1.74,2.36,3.2,3.69,4.67l.44.53c-2.39-1.38-4.3-3.11-6.93-4.29-1-.45-1.39-1.64-2.61-2.21-.68-.32-.92-1.28-1.39-2l-.7.63c-.56-1.25-1-2.4-1.56-3.62l-.59.56c-.2-1.27-.39-2.39-.54-3.53-.42-3.43-.44-3.45-3.92-3.9-1.15-.16-2.28-.39-3.6-.64l.7-.5c-1.24-.55-2.37-1.06-3.52-1.61.24-.34.39-.54.57-.78a3.25,3.25,0,0,1-.75-.39c-.66-.61-1.85-.57-1.74-2.1,0-.07-.21-.2-.33-.25-1.47-.64-2-2.48-2.84-3.83-.52-.84-1.07-1.64-1.62-2.42-.43-.6-.83-1.22-1.23-1.83,1.87,1.65,3.75,3.43,6.11,4.31.81.3,1.19,1.47,2.27,1.65.7.11,1.3,1.33,1.95,2,.15-.15.32-.33.45-.48.83,1,1.64,2,2.47,2.91l.3-.5c.39.54.72,1,1.06,1.45l.28-.24c-.74-1.07-1.47-2.16-2.19-3.26l.32-.3c-.82-.87-1.58-1.7-2.41-2.63l.8-.41c-.79-1-1.49-1.87-2.2-2.79l.49-.46c-.57-1-1.8-1.55-1.57-3.25-.5-.68-1.12-1.54-1.79-2.49l.78-.23c-.58-1.07-1.12-2.07-1.71-3.2l1.17-.06c-.58-1.24-1.13-2.43-1.73-3.74l1.27.07c-.55-1.31-1.06-2.54-1.61-3.87l1,.12c-.34-1.72-.67-3.34-1-5.14l1.05.6q-.65-4.2-1.27-8.09h.4l2.72,6.23c.3.11.7.12.78.28.54,1,1.23,2.07.8,3.29l1.37.09c.17,1.08.33,2.13.51,3.27l.93-.34c.15,1.14.29,2.18.44,3.31l.8-.36a5,5,0,0,1,.18.72c.08.78.15,1.57.22,2.41l.63-.1c0,.55.08,1.05.09,1.56s-.18,1.26,0,1.37c1,.68.45,1.57.56,2.36,0,.31-.07.86,0,.91.91.47.56,1.29.59,2a15.45,15.45,0,0,1-.13,1.91c.93.06.93,0,.77,3.84l.81-.06c-.85,2.07.37,3.9.5,5.82a5.23,5.23,0,0,0,.2.85l.42-.08c-.33-2.25-.65-4.53-1-7l.92.46c-.44-1.81-.79-3.28-1.15-4.83l1,.18c-.3-1.6-.58-3.12-.88-4.75l.93.28c-.31-1.51-.59-3-.88-4.44l.78,0c-.25-1.3-.49-2.52-.74-3.81l.91.32c-.14-1.42-.28-2.79-.42-4.26l1.21.54c-.08-1.4-.16-2.74-.23-4.26l1.14.86c-.07-1.51-.13-2.9-.18-4.43l.91.68c.1-1,.21-2,.33-2.94l.44,0,.9.58c.23-1,.47-2,.75-2.94l1.08.53c.19-.74.38-1.44.59-2.15l.89.3a28.71,28.71,0,0,1,2.37-2.42l.5.15c-.17.91-.31,1.9-.43,3l1,.1c-.42.7-.77,1.35-1.14,2.06l1.28.07c-.45.94-.86,1.86-1.25,2.84l1.37-.12c-.52,1-1,1.92-1.41,2.91l1.38-.15c-.84,1.31-1.52,2.47-2.22,3.73l1.4-.11c-.73,1.27-1.34,2.4-2,3.62l1.41.05c-.74,1.31-1.38,2.48-2.2,4l1-.43c0,.11.07.22.1.33-.6.94-1.2,1.89-1.78,2.85.72.51.8.68.24,1.34s-1.44,1.47-2.16,2.21l.1.1,1.24-1.15.1.11c-.36.52-.72,1-1.16,1.7l1.31-.07c-.84,1.48-1.57,2.79-2.33,4.15l1.06.28c-.82,1.33-1.57,2.56-2.34,3.84l.91.13c-1.11,2.72-2.18,5.36-3.27,8l.39.2c1.42-3.31,4.35-5.59,5.25-9.26l.9.71c.57-1.34,1.12-2.62,1.68-3.91l.88.53a24.16,24.16,0,0,1,1.61-3.09,2.31,2.31,0,0,1,1.5-.6c.19,0,.48.51.69.81a6.09,6.09,0,0,1,.36.87c.26-1.27-1.46-1.86-.72-3,.49-.74.54-2,1.91-1.69.5-1,1-2,1.57-3.12l.61.73c.76-1.22,1.51-2.37,2.32-3.59.35.47.54.74.71,1,.81-1.13,1.58-2.18,2.45-3.34l.5,1c.9-1.2,1.77-2.32,2.75-3.55.23.5.33.73.41.91.76-.94,1.49-1.82,2.33-2.82l.61,1.12c.88-1.1,1.72-2.13,2.68-3.25.18.48.28.74.4,1,.72-.82,1.4-1.6,2.18-2.46.14.48.24.82.38,1.28a34.78,34.78,0,0,1,6.62-5.43l.17.17q-2.7,3.16-5.39,6.49l1.09.34c-.93.8-1.72,1.45-2.57,2.15l1.05.41c-1.16,1-2.21,1.8-3.3,2.65l1.15.61c-1.06.86-2,1.58-2.93,2.31l1.05.36c-1.34,1-2.54,1.84-3.81,2.71l1.15.46c-1.28.91-2.41,1.67-3.56,2.44.28.19.53.36,1,.7-1.3.82-2.48,1.53-3.67,2.24l.81.58c-1.2.57-2.27,1.05-3,1.36-.69,2-2.46,1.89-3.66,2.62l.5.84L378.26,301l.72.82-4.18,1.61.58.72c-1.74,1.22-3.92,1.48-5.47,3a21.18,21.18,0,0,1-3.66,2.3c0,.09.08.18.13.27,2.62-1.05,5.25-2.08,7.85-3.11l.28.82c1.31-.75,2.54-1.46,3.85-2.23.09.54.13.78.17,1,1.38-.59,2.68-1.15,4-1.72l.19.22-.43,1a3.44,3.44,0,0,1,1.08-.15,2.36,2.36,0,0,0,2.59-2.33Z"/></svg>