<?xml version="1.0" encoding="utf-8"?>
<!-- Generator: Adobe Illustrator 22.1.0, SVG Export Plug-In . SVG Version: 6.00 Build 0)  -->
<svg version="1.1" id="Layer_1" xmlns="http://www.w3.org/2000/svg" xmlns:xlink="http://www.w3.org/1999/xlink" x="0px" y="0px"
	 viewBox="0 0 583 670" style="enable-background:new 0 0 583 670;" xml:space="preserve">
<style type="text/css">
	.st0{fill:#231F20;stroke:#231F20;stroke-width:2.4603;stroke-miterlimit:10;}
	.st1{fill:none;stroke:#FFDD15;stroke-width:1.2301;stroke-miterlimit:10;}
	.st2{fill:none;}
	.st3{fill:#FFDD15;}
</style>
<g>
	<g>
		<polygon class="st0" points="577.8,500.3 577.8,169.7 291.5,4.4 5.2,169.7 5.2,500.3 291.5,665.6 		"/>
		<polygon class="st1" points="18.8,492.5 18.8,177.5 291.5,20.1 564.2,177.5 564.2,492.5 291.5,649.9 		"/>
	</g>
	<path class="st2" d="M284.4,99.8c-2,1.2-4,2.3-6,3.5l7.1-3.9C285.2,99.6,284.8,99.6,284.4,99.8z"/>
	<path class="st3" d="M381.2,93.6l6.1,57.4l9.9,5.6c27.9,17,66.1,39.9,95.9,56.7v241.1c-1.8,2-4,3.8-6.9,5.5
		c-59,33.6-118.2,66.7-176.2,101.9c-3.1,1.9-5.9,3.4-8.4,4.6l-23.3,13.5v-28.7c-0.2-2.5-0.3-5.2-0.3-8.3
		c1.1-130.7,0.5-261.5,0.5-392.2c0-4.7,0-35.5,0-47.3c2-1.2,4-2.3,6-3.5c0.4-0.2,0.7-0.2,1.1-0.4l15.3-8.3l2.3,15
		c0,0.1,0.1,0.1,0.1,0.2l29,221.2l0,0c2.4,19.1,4.7,38.3,7.1,57.4c5,39.7,10.3,79.4,15.7,120.7l0.9,6.1l66.1-38.6l7-38.2
		c1.1-4.1,2-8.4,2.7-13c9.5-59.2,24.1-117.6,36.7-176.3l0,0l0.8-3.4l0,0l0-0.1l2.6-11.6l-0.1,0l0.5-2.2l-51-29.7l-2.5,14.9
		c-9.5,54.3-18.7,106.5-27.8,158.5c-5-20-7.3-39.8-9.5-59.6c-8.1-72.7-16-145.4-24.4-218l0,0l-1.8-15.9l-18.2-10.3l-45.6-26.3
		L37.6,188.4v293.2l164.2,94.8v-37.9c0.1-2.3,0.1-4.6,0.2-6.8c0-1-0.1-1.9-0.2-2.8v-8.2L83.5,454.4V214.6l1.7-1.3l142.8-80.7
		c0.3,41.4,0.1,121.4,0.1,162.1c0,4.4,0,8.9,0,13.6c-23,0-44.1,0-67.2,0c0-17.9,0-35.7,0-53.7c0-17.7,0-35.6,0-54.1l-50.3,28.8v13
		l0,0c-0.2,63-0.2,126-0.1,188.9c0,2.7,0.5,6.8,2.2,7.9c15.1,9.3,30.6,18,49,28.7c0-38.3,0-73.2,0-107.9c23.2,0,44.3,0,66.4,0
		c0,10,0,19.1,0,28.2c0,65.4,0.2,130.8-0.2,196.2c0,3.2,0.6,5.8,1.6,8l62.1,35.8l253.9-146.6V188.4L381.2,93.6z"/>
</g>
</svg>
