<?xml version="1.0" encoding="utf-8"?>
<!-- Generator: Adobe Illustrator 22.1.0, SVG Export Plug-In . SVG Version: 6.00 Build 0)  -->
<svg version="1.1" id="Layer_1" xmlns="http://www.w3.org/2000/svg" xmlns:xlink="http://www.w3.org/1999/xlink" x="0px" y="0px"
	 viewBox="0 0 1600 300" style="enable-background:new 0 0 1600 300;" xml:space="preserve">
<style type="text/css">
	.st0{fill:none;}
	.st1{fill:#FAAF40;}
	.st2{fill:#F6921E;}
</style>
<rect x="-20.3" y="-109.3" class="st0" width="1204.8" height="843.4"/>
<rect x="-20.3" y="-109.3" class="st0" width="1204.8" height="843.4"/>
<rect x="-20.3" y="-109.3" class="st0" width="1204.8" height="843.4"/>
<rect x="-20.3" y="-109.3" class="st0" width="1204.8" height="843.4"/>
<rect x="-20.3" y="-109.3" class="st0" width="1204.8" height="843.4"/>
<rect x="-20.3" y="-109.3" class="st0" width="1204.8" height="843.4"/>
<rect x="-20.3" y="-109.3" class="st0" width="1204.8" height="843.4"/>
<rect x="-20.3" y="-109.3" class="st0" width="1204.8" height="843.4"/>
<rect x="-20.3" y="-109.3" class="st0" width="1204.8" height="843.4"/>
<rect x="-20.3" y="-109.3" class="st0" width="1204.8" height="843.4"/>
<rect x="-20.3" y="-109.3" class="st0" width="1204.8" height="843.4"/>
<rect x="-20.3" y="-109.3" class="st0" width="1204.8" height="843.4"/>
<rect x="-20.3" y="-109.3" class="st0" width="1204.8" height="843.4"/>
<rect x="-20.3" y="-109.3" class="st0" width="1204.8" height="843.4"/>
<rect x="-20.3" y="-109.3" class="st0" width="1204.8" height="843.4"/>
<rect x="-20.3" y="-109.3" class="st0" width="1204.8" height="843.4"/>
<rect x="-20.3" y="-109.3" class="st0" width="1204.8" height="843.4"/>
<rect x="-20.3" y="-109.3" class="st0" width="1204.8" height="843.4"/>
<rect x="-20.3" y="-109.3" class="st0" width="1204.8" height="843.4"/>
<rect x="-20.3" y="-109.3" class="st0" width="1204.8" height="843.4"/>
<rect x="-20.3" y="-109.3" class="st0" width="1204.8" height="843.4"/>
<rect x="-20.3" y="-109.3" class="st0" width="1204.8" height="843.4"/>
<rect x="-20.3" y="-109.3" class="st0" width="1204.8" height="843.4"/>
<rect x="-20.3" y="-109.3" class="st0" width="1204.8" height="843.4"/>
<rect x="-20.3" y="-109.3" class="st0" width="1204.8" height="843.4"/>
<rect x="-20.3" y="-109.3" class="st0" width="1204.8" height="843.4"/>
<rect x="-20.3" y="-109.3" class="st0" width="1204.8" height="843.4"/>
<rect x="-20.3" y="-109.3" class="st0" width="1204.8" height="843.4"/>
<rect x="-20.3" y="-109.3" class="st0" width="1204.8" height="843.4"/>
<rect x="-20.3" y="-109.3" class="st0" width="1204.8" height="843.4"/>
<rect x="-20.3" y="-109.3" class="st0" width="1204.8" height="843.4"/>
<rect x="-20.3" y="-109.3" class="st0" width="1204.8" height="843.4"/>
<rect x="-20.3" y="-109.3" class="st0" width="1204.8" height="843.4"/>
<rect x="-20.3" y="-109.3" class="st0" width="1204.8" height="843.4"/>
<rect x="-20.3" y="-109.3" class="st0" width="1204.8" height="843.4"/>
<rect x="-20.3" y="-109.3" class="st0" width="1204.8" height="843.4"/>
<rect x="-20.3" y="-109.3" class="st0" width="1204.8" height="843.4"/>
<rect x="-20.3" y="-109.3" class="st0" width="1204.8" height="843.4"/>
<rect x="-20.3" y="-109.3" class="st0" width="1204.8" height="843.4"/>
<rect x="-20.3" y="-109.3" class="st0" width="1204.8" height="843.4"/>
<rect x="-20.3" y="-109.3" class="st0" width="1204.8" height="843.4"/>
<rect x="-20.3" y="-109.3" class="st0" width="1204.8" height="843.4"/>
<rect x="-20.3" y="-109.3" class="st0" width="1204.8" height="843.4"/>
<rect x="-20.3" y="-109.3" class="st0" width="1204.8" height="843.4"/>
<rect x="-20.3" y="-109.3" class="st0" width="1204.8" height="843.4"/>
<rect x="-20.3" y="-109.3" class="st0" width="1204.8" height="843.4"/>
<rect x="-20.3" y="-109.3" class="st0" width="1204.8" height="843.4"/>
<rect x="-20.3" y="-109.3" class="st0" width="1204.8" height="843.4"/>
<rect x="-20.3" y="-109.3" class="st0" width="1204.8" height="843.4"/>
<rect x="-20.3" y="-109.3" class="st0" width="1204.8" height="843.4"/>
<rect x="-20.3" y="-109.3" class="st0" width="1204.8" height="843.4"/>
<rect x="-20.3" y="-109.3" class="st0" width="1204.8" height="843.4"/>
<rect x="-20.3" y="-109.3" class="st0" width="1204.8" height="843.4"/>
<rect x="-20.3" y="-109.3" class="st0" width="1204.8" height="843.4"/>
<rect x="-20.3" y="-109.3" class="st0" width="1204.8" height="843.4"/>
<g>
	<path class="st1" d="M1218.9,28.2l-34.4,34.4l-34.4-34.4l34.4-34.4L1218.9,28.2z"/>
	<path class="st2" d="M1150.1,28.2h68.8l-34.4,34.3L1150.1,28.2z"/>
</g>
<rect x="-20.3" y="-109.3" class="st0" width="1204.8" height="843.4"/>
<g>
	<path class="st1" d="M1150.2,28.2l-34.4,34.4l-34.4-34.4l34.4-34.4L1150.2,28.2z"/>
	<path class="st2" d="M1081.3,28.2h68.8l-34.3,34.3L1081.3,28.2z"/>
</g>
<rect x="-20.3" y="-109.3" class="st0" width="1204.8" height="843.4"/>
<g>
	<path class="st1" d="M1184.5,62.6l-34.4,34.4l-34.4-34.4l34.4-34.4L1184.5,62.6z"/>
	<path class="st2" d="M1115.7,62.6h68.8L1150.1,97L1115.7,62.6z"/>
</g>
<rect x="-20.3" y="-109.3" class="st0" width="1204.8" height="843.4"/>
<g>
	<path class="st1" d="M1115.7,62.6L1081.3,97l-34.4-34.4l34.4-34.4L1115.7,62.6z"/>
	<path class="st2" d="M1047,62.6h68.8L1081.3,97L1047,62.6z"/>
</g>
<rect x="-20.3" y="-109.3" class="st0" width="1204.8" height="843.4"/>
<g>
	<path class="st1" d="M1184.5-6.2l-34.4,34.4l-34.4-34.4l34.4-34.4L1184.5-6.2z"/>
	<path class="st2" d="M1115.7-6.2h68.8l-34.4,34.4L1115.7-6.2z"/>
</g>
<rect x="-20.3" y="-109.3" class="st0" width="1204.8" height="843.4"/>
<g>
	<path class="st1" d="M1115.7-6.2l-34.4,34.4l-34.4-34.4l34.4-34.4L1115.7-6.2z"/>
	<path class="st2" d="M1047-6.2h68.8l-34.4,34.4L1047-6.2z"/>
</g>
<rect x="-20.3" y="-109.3" class="st0" width="1204.8" height="843.4"/>
<g>
	<path class="st1" d="M1081.4,28.2L1047,62.6l-34.4-34.4L1047-6.2L1081.4,28.2z"/>
	<path class="st2" d="M1012.6,28.2h68.8L1047,62.6L1012.6,28.2z"/>
</g>
<rect x="-20.3" y="-109.3" class="st0" width="1204.8" height="843.4"/>
<g>
	<path class="st1" d="M1012.6,28.2l-34.4,34.4l-34.4-34.4l34.4-34.4L1012.6,28.2z"/>
	<path class="st2" d="M943.8,28.2h68.8l-34.3,34.3L943.8,28.2z"/>
</g>
<rect x="-20.3" y="-109.3" class="st0" width="1204.8" height="843.4"/>
<g>
	<path class="st1" d="M1046.9,62.6L1012.5,97l-34.4-34.4l34.4-34.4L1046.9,62.6z"/>
	<path class="st2" d="M978.2,62.6h68.8L1012.6,97L978.2,62.6z"/>
</g>
<rect x="-20.3" y="-109.3" class="st0" width="1204.8" height="843.4"/>
<g>
	<path class="st1" d="M978.2,62.5l-34.4,34.4l-34.4-34.4l34.4-34.4L978.2,62.5z"/>
	<path class="st2" d="M909.4,62.6h68.8L943.8,97L909.4,62.6z"/>
</g>
<rect x="-20.3" y="-109.3" class="st0" width="1204.8" height="843.4"/>
<g>
	<path class="st1" d="M1046.9-6.2l-34.4,34.4L978.2-6.2l34.4-34.4L1046.9-6.2z"/>
	<path class="st2" d="M978.2-6.2h68.8l-34.4,34.4L978.2-6.2z"/>
</g>
<rect x="-20.3" y="-109.3" class="st0" width="1204.8" height="843.4"/>
<g>
	<path class="st1" d="M978.2-6.2l-34.4,34.4L909.4-6.2l34.4-34.4L978.2-6.2z"/>
	<path class="st2" d="M909.4-6.2h68.8l-34.4,34.4L909.4-6.2z"/>
</g>
<rect x="-20.3" y="-109.3" class="st0" width="1204.8" height="843.4"/>
<g>
	<path class="st1" d="M943.8,28.2l-34.4,34.4L875,28.2l34.4-34.4L943.8,28.2z"/>
	<path class="st2" d="M875,28.2h68.8l-34.4,34.3L875,28.2z"/>
</g>
<rect x="-20.3" y="-109.3" class="st0" width="1204.8" height="843.4"/>
<g>
	<path class="st1" d="M875,28.2l-34.4,34.4l-34.4-34.4l34.4-34.4L875,28.2z"/>
	<path class="st2" d="M806.3,28.2H875l-34.4,34.3L806.3,28.2z"/>
</g>
<rect x="-20.3" y="-109.3" class="st0" width="1204.8" height="843.4"/>
<g>
	<path class="st1" d="M909.4,62.5L875,96.9l-34.4-34.4L875,28.2L909.4,62.5z"/>
	<path class="st2" d="M840.6,62.6h68.8L875,97L840.6,62.6z"/>
</g>
<rect x="-20.3" y="-109.3" class="st0" width="1204.8" height="843.4"/>
<g>
	<path class="st1" d="M840.6,62.6l-34.4,34.4l-34.4-34.4l34.4-34.4L840.6,62.6z"/>
	<path class="st2" d="M771.9,62.6h68.8L806.3,97L771.9,62.6z"/>
</g>
<rect x="-20.3" y="-109.3" class="st0" width="1204.8" height="843.4"/>
<g>
	<path class="st1" d="M909.4-6.2L875,28.1L840.7-6.2L875-40.6L909.4-6.2z"/>
	<path class="st2" d="M840.6-6.2h68.8L875,28.2L840.6-6.2z"/>
</g>
<rect x="-20.3" y="-109.3" class="st0" width="1204.8" height="843.4"/>
<g>
	<path class="st1" d="M840.6-6.2l-34.4,34.4L771.9-6.2l34.4-34.4L840.6-6.2z"/>
	<path class="st2" d="M771.9-6.2h68.8l-34.3,34.4L771.9-6.2z"/>
</g>
<rect x="-20.3" y="-109.3" class="st0" width="1204.8" height="843.4"/>
<g>
	<path class="st1" d="M806.2,28.2l-34.4,34.4l-34.4-34.4l34.4-34.4L806.2,28.2z"/>
	<path class="st2" d="M737.5,28.2h68.8l-34.4,34.3L737.5,28.2z"/>
</g>
<rect x="-20.3" y="-109.3" class="st0" width="1204.8" height="843.4"/>
<g>
	<path class="st1" d="M737.5,28.2l-34.4,34.4l-34.4-34.4l34.4-34.4L737.5,28.2z"/>
	<path class="st2" d="M668.7,28.2h68.8l-34.4,34.3L668.7,28.2z"/>
</g>
<rect x="-20.3" y="-109.3" class="st0" width="1204.8" height="843.4"/>
<g>
	<path class="st1" d="M771.9,62.6l-34.4,34.4l-34.4-34.4l34.4-34.4L771.9,62.6z"/>
	<path class="st2" d="M703.1,62.6h68.8L737.5,97L703.1,62.6z"/>
</g>
<rect x="-20.3" y="-109.3" class="st0" width="1204.8" height="843.4"/>
<g>
	<path class="st1" d="M703.1,62.6L668.7,97l-34.4-34.4l34.4-34.4L703.1,62.6z"/>
	<path class="st2" d="M634.3,62.6h68.8L668.7,97L634.3,62.6z"/>
</g>
<rect x="-20.3" y="-109.3" class="st0" width="1204.8" height="843.4"/>
<g>
	<path class="st1" d="M771.9-6.2l-34.4,34.4L703.1-6.2l34.4-34.4L771.9-6.2z"/>
	<path class="st2" d="M703.1-6.2h68.8l-34.3,34.4L703.1-6.2z"/>
</g>
<rect x="-20.3" y="-109.3" class="st0" width="1204.8" height="843.4"/>
<g>
	<path class="st1" d="M703.1-6.2l-34.4,34.4L634.3-6.2l34.4-34.4L703.1-6.2z"/>
	<path class="st2" d="M634.3-6.2h68.8l-34.4,34.4L634.3-6.2z"/>
</g>
<rect x="-20.3" y="-109.3" class="st0" width="1204.8" height="843.4"/>
<g>
	<path class="st1" d="M668.7,28.2l-34.4,34.4L600,28.2l34.4-34.4L668.7,28.2z"/>
	<path class="st2" d="M599.9,28.2h68.8l-34.3,34.3L599.9,28.2z"/>
</g>
<rect x="-20.3" y="-109.3" class="st0" width="1204.8" height="843.4"/>
<g>
	<path class="st1" d="M600,28.2l-34.4,34.4l-34.4-34.4l34.4-34.4L600,28.2z"/>
	<path class="st2" d="M531.1,28.2h68.8l-34.3,34.3L531.1,28.2z"/>
</g>
<rect x="-20.3" y="-109.3" class="st0" width="1204.8" height="843.4"/>
<g>
	<path class="st1" d="M634.3,62.6L599.9,97l-34.4-34.4l34.4-34.4L634.3,62.6z"/>
	<path class="st2" d="M565.6,62.6h68.8L599.9,97L565.6,62.6z"/>
</g>
<rect x="-20.3" y="-109.3" class="st0" width="1204.8" height="843.4"/>
<g>
	<path class="st1" d="M565.5,62.6L531.1,97l-34.4-34.4l34.4-34.4L565.5,62.6z"/>
	<path class="st2" d="M496.8,62.6h68.8L531.1,97L496.8,62.6z"/>
</g>
<rect x="-20.3" y="-109.3" class="st0" width="1204.8" height="843.4"/>
<g>
	<path class="st1" d="M634.3-6.2l-34.4,34.4L565.5-6.2l34.4-34.4L634.3-6.2z"/>
	<path class="st2" d="M565.6-6.2h68.8l-34.4,34.4L565.6-6.2z"/>
</g>
<rect x="-20.3" y="-109.3" class="st0" width="1204.8" height="843.4"/>
<g>
	<path class="st1" d="M565.5-6.2l-34.4,34.4L496.7-6.2l34.4-34.4L565.5-6.2z"/>
	<path class="st2" d="M496.8-6.2h68.8l-34.4,34.4L496.8-6.2z"/>
</g>
<rect x="-20.3" y="-109.3" class="st0" width="1204.8" height="843.4"/>
<g>
	<path class="st1" d="M531.2,28.2l-34.4,34.4l-34.4-34.4l34.4-34.4L531.2,28.2z"/>
	<path class="st2" d="M462.4,28.2h68.8l-34.3,34.3L462.4,28.2z"/>
</g>
<rect x="-20.3" y="-109.3" class="st0" width="1204.8" height="843.4"/>
<g>
	<path class="st1" d="M462.4,28.2L428,62.6l-34.4-34.4L428-6.2L462.4,28.2z"/>
	<path class="st2" d="M393.6,28.2h68.8L428,62.6L393.6,28.2z"/>
</g>
<rect x="-20.3" y="-109.3" class="st0" width="1204.8" height="843.4"/>
<g>
	<path class="st1" d="M496.7,62.6L462.4,97L428,62.6l34.4-34.4L496.7,62.6z"/>
	<path class="st2" d="M428,62.6h68.8L462.4,97L428,62.6z"/>
</g>
<rect x="-20.3" y="-109.3" class="st0" width="1204.8" height="843.4"/>
<g>
	<path class="st1" d="M428,62.5l-34.4,34.4l-34.4-34.4l34.4-34.4L428,62.5z"/>
	<path class="st2" d="M359.2,62.6H428L393.6,97L359.2,62.6z"/>
</g>
<rect x="-20.3" y="-109.3" class="st0" width="1204.8" height="843.4"/>
<g>
	<path class="st1" d="M496.7-6.2l-34.4,34.4L428-6.2l34.4-34.4L496.7-6.2z"/>
	<path class="st2" d="M428-6.2h68.8l-34.4,34.4L428-6.2z"/>
</g>
<rect x="-20.3" y="-109.3" class="st0" width="1204.8" height="843.4"/>
<g>
	<path class="st1" d="M428-6.2l-34.4,34.4L359.2-6.2l34.4-34.4L428-6.2z"/>
	<path class="st2" d="M359.2-6.2H428l-34.4,34.4L359.2-6.2z"/>
</g>
<rect x="-20.3" y="-109.3" class="st0" width="1204.8" height="843.4"/>
<g>
	<path class="st1" d="M393.6,28.2l-34.4,34.4l-34.4-34.4l34.4-34.4L393.6,28.2z"/>
	<path class="st2" d="M324.9,28.2h68.8l-34.4,34.3L324.9,28.2z"/>
</g>
<rect x="-20.3" y="-109.3" class="st0" width="1204.8" height="843.4"/>
<g>
	<path class="st1" d="M324.8,28.2l-34.4,34.4l-34.4-34.4l34.4-34.4L324.8,28.2z"/>
	<path class="st2" d="M256.1,28.2h68.8l-34.4,34.3L256.1,28.2z"/>
</g>
<rect x="-20.3" y="-109.3" class="st0" width="1204.8" height="843.4"/>
<g>
	<path class="st1" d="M359.2,62.6l-34.4,34.4l-34.4-34.4l34.4-34.4L359.2,62.6z"/>
	<path class="st2" d="M290.4,62.6h68.8L324.9,97L290.4,62.6z"/>
</g>
<rect x="-20.3" y="-109.3" class="st0" width="1204.8" height="843.4"/>
<g>
	<path class="st1" d="M290.4,62.6l-34.4,34.4l-34.4-34.4l34.4-34.4L290.4,62.6z"/>
	<path class="st2" d="M221.7,62.6h68.8L256.1,97L221.7,62.6z"/>
</g>
<rect x="-20.3" y="-109.3" class="st0" width="1204.8" height="843.4"/>
<g>
	<path class="st1" d="M359.2-6.2l-34.4,34.4L290.5-6.2l34.4-34.4L359.2-6.2z"/>
	<path class="st2" d="M290.4-6.2h68.8l-34.3,34.4L290.4-6.2z"/>
</g>
<rect x="-20.3" y="-109.3" class="st0" width="1204.8" height="843.4"/>
<g>
	<path class="st1" d="M290.4-6.2l-34.4,34.4L221.7-6.2l34.4-34.4L290.4-6.2z"/>
	<path class="st2" d="M221.7-6.2h68.8l-34.3,34.4L221.7-6.2z"/>
</g>
<rect x="-20.3" y="-109.3" class="st0" width="1204.8" height="843.4"/>
<g>
	<path class="st1" d="M256.1,28.2l-34.4,34.4l-34.4-34.4l34.4-34.4L256.1,28.2z"/>
	<path class="st2" d="M187.3,28.2h68.8l-34.4,34.3L187.3,28.2z"/>
</g>
<rect x="-20.3" y="-109.3" class="st0" width="1204.8" height="843.4"/>
<g>
	<path class="st1" d="M187.3,28.2l-34.4,34.4l-34.4-34.4l34.4-34.4L187.3,28.2z"/>
	<path class="st2" d="M118.5,28.2h68.8l-34.4,34.3L118.5,28.2z"/>
</g>
<rect x="-20.3" y="-109.3" class="st0" width="1204.8" height="843.4"/>
<g>
	<path class="st1" d="M221.7,62.6L187.3,97l-34.4-34.4l34.4-34.4L221.7,62.6z"/>
	<path class="st2" d="M152.9,62.6h68.8L187.3,97L152.9,62.6z"/>
</g>
<rect x="-20.3" y="-109.3" class="st0" width="1204.8" height="843.4"/>
<g>
	<path class="st1" d="M152.9,62.6L118.5,97L84.1,62.6l34.4-34.4L152.9,62.6z"/>
	<path class="st2" d="M84.2,62.6h68.8L118.5,97L84.2,62.6z"/>
</g>
<rect x="-20.3" y="-109.3" class="st0" width="1204.8" height="843.4"/>
<g>
	<path class="st1" d="M221.7-6.2l-34.4,34.4L152.9-6.2l34.4-34.4L221.7-6.2z"/>
	<path class="st2" d="M152.9-6.2h68.8l-34.3,34.4L152.9-6.2z"/>
</g>
<rect x="-20.3" y="-109.3" class="st0" width="1204.8" height="843.4"/>
<g>
	<path class="st1" d="M152.9-6.2l-34.4,34.4L84.1-6.2l34.4-34.4L152.9-6.2z"/>
	<path class="st2" d="M84.2-6.2h68.8l-34.4,34.4L84.2-6.2z"/>
</g>
<rect x="-20.3" y="-109.3" class="st0" width="1204.8" height="843.4"/>
<g>
	<path class="st1" d="M118.5,28.2L84.2,62.6L49.8,28.2L84.2-6.2L118.5,28.2z"/>
	<path class="st2" d="M49.7,28.2h68.8L84.2,62.6L49.7,28.2z"/>
</g>
<rect x="-20.3" y="-109.3" class="st0" width="1204.8" height="843.4"/>
<g>
	<path class="st1" d="M49.8,28.2L15.4,62.6L-19,28.2L15.4-6.2L49.8,28.2z"/>
	<path class="st2" d="M-19,28.2h68.8L15.4,62.6L-19,28.2z"/>
</g>
<rect x="-20.3" y="-109.3" class="st0" width="1204.8" height="843.4"/>
<g>
	<path class="st1" d="M84.1,62.6L49.7,97L15.3,62.6l34.4-34.4L84.1,62.6z"/>
	<path class="st2" d="M15.4,62.6h68.8L49.7,97L15.4,62.6z"/>
</g>
<rect x="-20.3" y="-109.3" class="st0" width="1204.8" height="843.4"/>
<g>
	<path class="st1" d="M15.3,62.6L-19.1,97l-34.4-34.4l34.4-34.4L15.3,62.6z"/>
	<path class="st2" d="M-53.4,62.6h68.8L-19,97L-53.4,62.6z"/>
</g>
<rect x="-20.3" y="-109.3" class="st0" width="1204.8" height="843.4"/>
<g>
	<path class="st1" d="M84.1-6.2L49.7,28.2L15.3-6.2l34.4-34.4L84.1-6.2z"/>
	<path class="st2" d="M15.4-6.2h68.8L49.7,28.2L15.4-6.2z"/>
</g>
<rect x="-20.3" y="-109.3" class="st0" width="1204.8" height="843.4"/>
<g>
	<path class="st1" d="M15.3-6.2l-34.4,34.4L-53.5-6.2l34.4-34.4L15.3-6.2z"/>
	<path class="st2" d="M-53.4-6.2h68.8L-19,28.2L-53.4-6.2z"/>
</g>
<rect x="-20.3" y="-109.3" class="st0" width="1204.8" height="843.4"/>
<g>
	<path class="st1" d="M-19,97l34.4,34.4L-19,165.8l-34.4-34.4L-19,97z"/>
	<path class="st2" d="M15.4,131.3h-68.8l34.3,34.4L15.4,131.3z"/>
</g>
<rect x="-20.3" y="-109.3" class="st0" width="1204.8" height="843.4"/>
<g>
	<path class="st1" d="M49.8,97l34.4,34.4l-34.4,34.4l-34.4-34.4L49.8,97z"/>
	<path class="st2" d="M84.2,131.3H15.4l34.3,34.4L84.2,131.3z"/>
</g>
<rect x="-20.3" y="-109.3" class="st0" width="1204.8" height="843.4"/>
<g>
	<path class="st1" d="M15.4,131.3l34.4,34.4l-34.4,34.4L-19,165.7L15.4,131.3z"/>
	<path class="st2" d="M49.7,165.8H-19l34.4,34.3L49.7,165.8z"/>
</g>
<rect x="-20.3" y="-109.3" class="st0" width="1204.8" height="843.4"/>
<g>
	<path class="st1" d="M84.1,131.3l34.4,34.4l-34.4,34.4l-34.4-34.4L84.1,131.3z"/>
	<path class="st2" d="M118.5,165.8H49.7l34.4,34.3L118.5,165.8z"/>
</g>
<rect x="-20.3" y="-109.3" class="st0" width="1204.8" height="843.4"/>
<g>
	<path class="st1" d="M15.4,62.6l34.4,34.4l-34.4,34.4L-19,96.9L15.4,62.6z"/>
	<path class="st2" d="M49.7,97H-19l34.4,34.3L49.7,97z"/>
</g>
<rect x="-20.3" y="-109.3" class="st0" width="1204.8" height="843.4"/>
<g>
	<path class="st1" d="M84.1,62.6l34.4,34.4l-34.4,34.4L49.8,96.9L84.1,62.6z"/>
	<path class="st2" d="M118.5,97H49.7l34.4,34.3L118.5,97z"/>
</g>
<rect x="-20.3" y="-109.3" class="st0" width="1204.8" height="843.4"/>
<g>
	<path class="st1" d="M118.5,97l34.4,34.4l-34.4,34.4l-34.4-34.4L118.5,97z"/>
	<path class="st2" d="M152.9,131.3H84.2l34.3,34.4L152.9,131.3z"/>
</g>
<rect x="-20.3" y="-109.3" class="st0" width="1204.8" height="843.4"/>
<g>
	<path class="st1" d="M187.3,97l34.4,34.4l-34.4,34.4l-34.4-34.4L187.3,97z"/>
	<path class="st2" d="M221.7,131.3h-68.8l34.4,34.4L221.7,131.3z"/>
</g>
<rect x="-20.3" y="-109.3" class="st0" width="1204.8" height="843.4"/>
<g>
	<path class="st1" d="M152.9,131.3l34.4,34.4l-34.4,34.4l-34.4-34.4L152.9,131.3z"/>
	<path class="st2" d="M187.3,165.8h-68.8l34.4,34.3L187.3,165.8z"/>
</g>
<rect x="-20.3" y="-109.3" class="st0" width="1204.8" height="843.4"/>
<g>
	<path class="st1" d="M221.7,131.4l34.4,34.4l-34.4,34.4l-34.4-34.4L221.7,131.4z"/>
	<path class="st2" d="M256.1,165.8h-68.8l34.3,34.3L256.1,165.8z"/>
</g>
<rect x="-20.3" y="-109.3" class="st0" width="1204.8" height="843.4"/>
<g>
	<path class="st1" d="M152.9,62.5l34.4,34.4l-34.4,34.4l-34.4-34.4L152.9,62.5z"/>
	<path class="st2" d="M187.3,97h-68.8l34.4,34.3L187.3,97z"/>
</g>
<rect x="-20.3" y="-109.3" class="st0" width="1204.8" height="843.4"/>
<g>
	<path class="st1" d="M221.7,62.6L256.1,97l-34.4,34.4L187.3,97L221.7,62.6z"/>
	<path class="st2" d="M256.1,97h-68.8l34.3,34.3L256.1,97z"/>
</g>
<rect x="-20.3" y="-109.3" class="st0" width="1204.8" height="843.4"/>
<g>
	<path class="st1" d="M256.1,97l34.4,34.4l-34.4,34.4l-34.4-34.4L256.1,97z"/>
	<path class="st2" d="M290.4,131.3h-68.8l34.4,34.4L290.4,131.3z"/>
</g>
<rect x="-20.3" y="-109.3" class="st0" width="1204.8" height="843.4"/>
<g>
	<path class="st1" d="M324.8,97l34.4,34.4l-34.4,34.4l-34.4-34.4L324.8,97z"/>
	<path class="st2" d="M359.2,131.3h-68.8l34.4,34.4L359.2,131.3z"/>
</g>
<rect x="-20.3" y="-109.3" class="st0" width="1204.8" height="843.4"/>
<g>
	<path class="st1" d="M290.5,131.4l34.4,34.4l-34.4,34.4l-34.4-34.4L290.5,131.4z"/>
	<path class="st2" d="M324.9,165.8h-68.8l34.3,34.3L324.9,165.8z"/>
</g>
<rect x="-20.3" y="-109.3" class="st0" width="1204.8" height="843.4"/>
<g>
	<path class="st1" d="M359.3,131.3l34.4,34.4l-34.4,34.4l-34.4-34.4L359.3,131.3z"/>
	<path class="st2" d="M393.6,165.8h-68.8l34.3,34.3L393.6,165.8z"/>
</g>
<rect x="-20.3" y="-109.3" class="st0" width="1204.8" height="843.4"/>
<g>
	<path class="st1" d="M290.5,62.6L324.9,97l-34.4,34.4L256.1,97L290.5,62.6z"/>
	<path class="st2" d="M324.9,97h-68.8l34.3,34.3L324.9,97z"/>
</g>
<rect x="-20.3" y="-109.3" class="st0" width="1204.8" height="843.4"/>
<g>
	<path class="st1" d="M359.3,62.6L393.6,97l-34.4,34.4L324.9,97L359.3,62.6z"/>
	<path class="st2" d="M393.6,97h-68.8l34.3,34.3L393.6,97z"/>
</g>
<rect x="-20.3" y="-109.3" class="st0" width="1204.8" height="843.4"/>
<g>
	<path class="st1" d="M393.6,97l34.4,34.4l-34.4,34.4l-34.4-34.4L393.6,97z"/>
	<path class="st2" d="M428,131.3h-68.8l34.4,34.4L428,131.3z"/>
</g>
<rect x="-20.3" y="-109.3" class="st0" width="1204.8" height="843.4"/>
<g>
	<path class="st1" d="M462.4,97l34.4,34.4l-34.4,34.4L428,131.4L462.4,97z"/>
	<path class="st2" d="M496.8,131.3H428l34.3,34.4L496.8,131.3z"/>
</g>
<rect x="-20.3" y="-109.3" class="st0" width="1204.8" height="843.4"/>
<g>
	<path class="st1" d="M428,131.3l34.4,34.4L428,200.1l-34.4-34.4L428,131.3z"/>
	<path class="st2" d="M462.4,165.8h-68.8l34.4,34.3L462.4,165.8z"/>
</g>
<rect x="-20.3" y="-109.3" class="st0" width="1204.8" height="843.4"/>
<g>
	<path class="st1" d="M496.8,131.3l34.4,34.4l-34.4,34.4l-34.4-34.4L496.8,131.3z"/>
	<path class="st2" d="M531.1,165.8h-68.8l34.4,34.3L531.1,165.8z"/>
</g>
<rect x="-20.3" y="-109.3" class="st0" width="1204.8" height="843.4"/>
<g>
	<path class="st1" d="M428,62.6L462.4,97L428,131.3L393.6,97L428,62.6z"/>
	<path class="st2" d="M462.4,97h-68.8l34.4,34.3L462.4,97z"/>
</g>
<rect x="-20.3" y="-109.3" class="st0" width="1204.8" height="843.4"/>
<g>
	<path class="st1" d="M496.8,62.6l34.4,34.4l-34.4,34.4l-34.4-34.4L496.8,62.6z"/>
	<path class="st2" d="M531.1,97h-68.8l34.4,34.3L531.1,97z"/>
</g>
<rect x="-20.3" y="-109.3" class="st0" width="1204.8" height="843.4"/>
<g>
	<path class="st1" d="M531.2,97l34.4,34.4l-34.4,34.4l-34.4-34.4L531.2,97z"/>
	<path class="st2" d="M565.6,131.3h-68.8l34.3,34.4L565.6,131.3z"/>
</g>
<rect x="-20.3" y="-109.3" class="st0" width="1204.8" height="843.4"/>
<g>
	<path class="st1" d="M599.9,97l34.4,34.4l-34.4,34.4l-34.4-34.4L599.9,97z"/>
	<path class="st2" d="M634.3,131.3h-68.8l34.3,34.4L634.3,131.3z"/>
</g>
<rect x="-20.3" y="-109.3" class="st0" width="1204.8" height="843.4"/>
<g>
	<path class="st1" d="M565.6,131.3l34.4,34.4l-34.4,34.4l-34.4-34.4L565.6,131.3z"/>
	<path class="st2" d="M599.9,165.8h-68.8l34.4,34.3L599.9,165.8z"/>
</g>
<rect x="-20.3" y="-109.3" class="st0" width="1204.8" height="843.4"/>
<g>
	<path class="st1" d="M634.3,131.3l34.4,34.4l-34.4,34.4l-34.4-34.4L634.3,131.3z"/>
	<path class="st2" d="M668.7,165.8h-68.8l34.4,34.3L668.7,165.8z"/>
</g>
<rect x="-20.3" y="-109.3" class="st0" width="1204.8" height="843.4"/>
<g>
	<path class="st1" d="M565.5,62.6l34.4,34.4l-34.4,34.4l-34.4-34.4L565.5,62.6z"/>
	<path class="st2" d="M599.9,97h-68.8l34.4,34.3L599.9,97z"/>
</g>
<rect x="-20.3" y="-109.3" class="st0" width="1204.8" height="843.4"/>
<g>
	<path class="st1" d="M634.3,62.5l34.4,34.4l-34.4,34.4l-34.4-34.4L634.3,62.5z"/>
	<path class="st2" d="M668.7,97h-68.8l34.4,34.3L668.7,97z"/>
</g>
<rect x="-20.3" y="-109.3" class="st0" width="1204.8" height="843.4"/>
<g>
	<path class="st1" d="M668.7,97l34.4,34.4l-34.4,34.4l-34.4-34.4L668.7,97z"/>
	<path class="st2" d="M703.1,131.3h-68.8l34.3,34.4L703.1,131.3z"/>
</g>
<rect x="-20.3" y="-109.3" class="st0" width="1204.8" height="843.4"/>
<g>
	<path class="st1" d="M737.5,97l34.4,34.4l-34.4,34.4l-34.4-34.4L737.5,97z"/>
	<path class="st2" d="M771.9,131.3h-68.8l34.4,34.4L771.9,131.3z"/>
</g>
<rect x="-20.3" y="-109.3" class="st0" width="1204.8" height="843.4"/>
<g>
	<path class="st1" d="M703.1,131.4l34.4,34.4l-34.4,34.4l-34.4-34.4L703.1,131.4z"/>
	<path class="st2" d="M737.5,165.8h-68.8l34.4,34.3L737.5,165.8z"/>
</g>
<rect x="-20.3" y="-109.3" class="st0" width="1204.8" height="843.4"/>
<g>
	<path class="st1" d="M771.9,131.4l34.4,34.4l-34.4,34.4l-34.4-34.4L771.9,131.4z"/>
	<path class="st2" d="M806.3,165.8h-68.8l34.3,34.3L806.3,165.8z"/>
</g>
<rect x="-20.3" y="-109.3" class="st0" width="1204.8" height="843.4"/>
<g>
	<path class="st1" d="M703.1,62.6L737.5,97l-34.4,34.4L668.8,97L703.1,62.6z"/>
	<path class="st2" d="M737.5,97h-68.8l34.4,34.3L737.5,97z"/>
</g>
<rect x="-20.3" y="-109.3" class="st0" width="1204.8" height="843.4"/>
<g>
	<path class="st1" d="M771.9,62.6L806.3,97l-34.4,34.4L737.5,97L771.9,62.6z"/>
	<path class="st2" d="M806.3,97h-68.8l34.3,34.3L806.3,97z"/>
</g>
<rect x="-20.3" y="-109.3" class="st0" width="1204.8" height="843.4"/>
<g>
	<path class="st1" d="M806.2,97l34.4,34.4l-34.4,34.4l-34.4-34.4L806.2,97z"/>
	<path class="st2" d="M840.6,131.3h-68.8l34.4,34.4L840.6,131.3z"/>
</g>
<rect x="-20.3" y="-109.3" class="st0" width="1204.8" height="843.4"/>
<g>
	<path class="st1" d="M875,97l34.4,34.4L875,165.7l-34.4-34.4L875,97z"/>
	<path class="st2" d="M909.4,131.3h-68.8l34.4,34.4L909.4,131.3z"/>
</g>
<rect x="-20.3" y="-109.3" class="st0" width="1204.8" height="843.4"/>
<g>
	<path class="st1" d="M840.7,131.3l34.4,34.4l-34.4,34.4l-34.4-34.4L840.7,131.3z"/>
	<path class="st2" d="M875,165.8h-68.8l34.3,34.3L875,165.8z"/>
</g>
<rect x="-20.3" y="-109.3" class="st0" width="1204.8" height="843.4"/>
<g>
	<path class="st1" d="M909.4,131.3l34.4,34.4l-34.4,34.4l-34.4-34.4L909.4,131.3z"/>
	<path class="st2" d="M943.8,165.8H875l34.3,34.3L943.8,165.8z"/>
</g>
<rect x="-20.3" y="-109.3" class="st0" width="1204.8" height="843.4"/>
<g>
	<path class="st1" d="M840.7,62.6L875,97l-34.4,34.4L806.3,97L840.7,62.6z"/>
	<path class="st2" d="M875,97h-68.8l34.3,34.3L875,97z"/>
</g>
<rect x="-20.3" y="-109.3" class="st0" width="1204.8" height="843.4"/>
<g>
	<path class="st1" d="M909.4,62.6L943.8,97l-34.4,34.4L875,97L909.4,62.6z"/>
	<path class="st2" d="M943.8,97H875l34.3,34.3L943.8,97z"/>
</g>
<rect x="-20.3" y="-109.3" class="st0" width="1204.8" height="843.4"/>
<g>
	<path class="st1" d="M943.8,96.9l34.4,34.4l-34.4,34.4l-34.4-34.4L943.8,96.9z"/>
	<path class="st2" d="M978.2,131.3h-68.8l34.4,34.4L978.2,131.3z"/>
</g>
<rect x="-20.3" y="-109.3" class="st0" width="1204.8" height="843.4"/>
<g>
	<path class="st1" d="M1012.6,97l34.4,34.4l-34.4,34.4l-34.4-34.4L1012.6,97z"/>
	<path class="st2" d="M1047,131.3h-68.8l34.3,34.4L1047,131.3z"/>
</g>
<rect x="-20.3" y="-109.3" class="st0" width="1204.8" height="843.4"/>
<g>
	<path class="st1" d="M978.2,131.3l34.4,34.4l-34.4,34.4l-34.4-34.4L978.2,131.3z"/>
	<path class="st2" d="M1012.6,165.8h-68.8l34.4,34.3L1012.6,165.8z"/>
</g>
<rect x="-20.3" y="-109.3" class="st0" width="1204.8" height="843.4"/>
<g>
	<path class="st1" d="M1047,131.3l34.4,34.4l-34.4,34.4l-34.4-34.4L1047,131.3z"/>
	<path class="st2" d="M1081.3,165.8h-68.8l34.4,34.3L1081.3,165.8z"/>
</g>
<rect x="-20.3" y="-109.3" class="st0" width="1204.8" height="843.4"/>
<g>
	<path class="st1" d="M978.2,62.6l34.4,34.4l-34.4,34.4l-34.4-34.4L978.2,62.6z"/>
	<path class="st2" d="M1012.6,97h-68.8l34.4,34.3L1012.6,97z"/>
</g>
<rect x="-20.3" y="-109.3" class="st0" width="1204.8" height="843.4"/>
<g>
	<path class="st1" d="M1047,62.6l34.4,34.4l-34.4,34.4l-34.4-34.4L1047,62.6z"/>
	<path class="st2" d="M1081.3,97h-68.8l34.4,34.3L1081.3,97z"/>
</g>
<rect x="-20.3" y="-109.3" class="st0" width="1204.8" height="843.4"/>
<g>
	<path class="st1" d="M1081.3,97l34.4,34.4l-34.4,34.4l-34.4-34.4L1081.3,97z"/>
	<path class="st2" d="M1115.7,131.3H1047l34.3,34.4L1115.7,131.3z"/>
</g>
<rect x="-20.3" y="-109.3" class="st0" width="1204.8" height="843.4"/>
<g>
	<path class="st1" d="M1150.1,97l34.4,34.4l-34.4,34.4l-34.4-34.4L1150.1,97z"/>
	<path class="st2" d="M1184.5,131.3h-68.8l34.3,34.4L1184.5,131.3z"/>
</g>
<rect x="-20.3" y="-109.3" class="st0" width="1204.8" height="843.4"/>
<g>
	<path class="st1" d="M1115.7,131.3l34.4,34.4l-34.4,34.4l-34.4-34.4L1115.7,131.3z"/>
	<path class="st2" d="M1150.1,165.8h-68.8l34.4,34.3L1150.1,165.8z"/>
</g>
<rect x="-20.3" y="-109.3" class="st0" width="1204.8" height="843.4"/>
<g>
	<path class="st1" d="M1184.5,131.3l34.4,34.4l-34.4,34.4l-34.4-34.4L1184.5,131.3z"/>
	<path class="st2" d="M1218.9,165.8h-68.8l34.4,34.3L1218.9,165.8z"/>
</g>
<rect x="-20.3" y="-109.3" class="st0" width="1204.8" height="843.4"/>
<g>
	<path class="st1" d="M1115.7,62.5l34.4,34.4l-34.4,34.4l-34.4-34.4L1115.7,62.5z"/>
	<path class="st2" d="M1150.1,97h-68.8l34.4,34.3L1150.1,97z"/>
</g>
<rect x="-20.3" y="-109.3" class="st0" width="1204.8" height="843.4"/>
<g>
	<path class="st1" d="M1184.5,62.5l34.4,34.4l-34.4,34.4l-34.4-34.4L1184.5,62.5z"/>
	<path class="st2" d="M1218.9,97h-68.8l34.4,34.3L1218.9,97z"/>
</g>
<rect x="-20.3" y="-109.3" class="st0" width="1204.8" height="843.4"/>
<g>
	<path class="st1" d="M1218.9,234.5l-34.4,34.4l-34.4-34.4l34.4-34.4L1218.9,234.5z"/>
	<path class="st2" d="M1150.1,234.5h68.8l-34.4,34.4L1150.1,234.5z"/>
</g>
<rect x="-20.3" y="-109.3" class="st0" width="1204.8" height="843.4"/>
<g>
	<path class="st1" d="M1150.1,234.5l-34.4,34.4l-34.4-34.4l34.4-34.4L1150.1,234.5z"/>
	<path class="st2" d="M1081.3,234.5h68.8l-34.3,34.4L1081.3,234.5z"/>
</g>
<rect x="-20.3" y="-109.3" class="st0" width="1204.8" height="843.4"/>
<g>
	<path class="st1" d="M1184.5,268.9l-34.4,34.4l-34.4-34.4l34.4-34.4L1184.5,268.9z"/>
	<path class="st2" d="M1115.7,268.9h68.8l-34.4,34.3L1115.7,268.9z"/>
</g>
<rect x="-20.3" y="-109.3" class="st0" width="1204.8" height="843.4"/>
<g>
	<path class="st1" d="M1115.7,268.9l-34.4,34.4l-34.4-34.4l34.4-34.4L1115.7,268.9z"/>
	<path class="st2" d="M1047,268.9h68.8l-34.4,34.3L1047,268.9z"/>
</g>
<rect x="-20.3" y="-109.3" class="st0" width="1204.8" height="843.4"/>
<g>
	<path class="st1" d="M1184.5,200.1l-34.4,34.4l-34.4-34.4l34.4-34.4L1184.5,200.1z"/>
	<path class="st2" d="M1115.7,200.1h68.8l-34.4,34.4L1115.7,200.1z"/>
</g>
<rect x="-20.3" y="-109.3" class="st0" width="1204.8" height="843.4"/>
<g>
	<path class="st1" d="M1115.7,200.1l-34.4,34.4l-34.4-34.4l34.4-34.4L1115.7,200.1z"/>
	<path class="st2" d="M1047,200.1h68.8l-34.4,34.4L1047,200.1z"/>
</g>
<rect x="-20.3" y="-109.3" class="st0" width="1204.8" height="843.4"/>
<g>
	<path class="st1" d="M1081.3,234.5l-34.4,34.4l-34.4-34.4l34.4-34.4L1081.3,234.5z"/>
	<path class="st2" d="M1012.6,234.5h68.8l-34.3,34.4L1012.6,234.5z"/>
</g>
<rect x="-20.3" y="-109.3" class="st0" width="1204.8" height="843.4"/>
<g>
	<path class="st1" d="M1012.6,234.5l-34.4,34.4l-34.4-34.4l34.4-34.4L1012.6,234.5z"/>
	<path class="st2" d="M943.8,234.5h68.8l-34.3,34.4L943.8,234.5z"/>
</g>
<rect x="-20.3" y="-109.3" class="st0" width="1204.8" height="843.4"/>
<g>
	<path class="st1" d="M1047,268.9l-34.4,34.4l-34.4-34.4l34.4-34.4L1047,268.9z"/>
	<path class="st2" d="M978.2,268.9h68.8l-34.4,34.3L978.2,268.9z"/>
</g>
<rect x="-20.3" y="-109.3" class="st0" width="1204.8" height="843.4"/>
<g>
	<path class="st1" d="M978.2,268.9l-34.4,34.4l-34.4-34.4l34.4-34.4L978.2,268.9z"/>
	<path class="st2" d="M909.4,268.9h68.8l-34.4,34.3L909.4,268.9z"/>
</g>
<rect x="-20.3" y="-109.3" class="st0" width="1204.8" height="843.4"/>
<g>
	<path class="st1" d="M1046.9,200.1l-34.4,34.4l-34.4-34.4l34.4-34.4L1046.9,200.1z"/>
	<path class="st2" d="M978.2,200.1h68.8l-34.4,34.4L978.2,200.1z"/>
</g>
<rect x="-20.3" y="-109.3" class="st0" width="1204.8" height="843.4"/>
<g>
	<path class="st1" d="M978.2,200.1l-34.4,34.4l-34.4-34.4l34.4-34.4L978.2,200.1z"/>
	<path class="st2" d="M909.4,200.1h68.8l-34.4,34.4L909.4,200.1z"/>
</g>
<rect x="-20.3" y="-109.3" class="st0" width="1204.8" height="843.4"/>
<g>
	<path class="st1" d="M943.8,234.5l-34.4,34.4L875,234.5l34.4-34.4L943.8,234.5z"/>
	<path class="st2" d="M875,234.5h68.8l-34.4,34.4L875,234.5z"/>
</g>
<rect x="-20.3" y="-109.3" class="st0" width="1204.8" height="843.4"/>
<g>
	<path class="st1" d="M875,234.5l-34.4,34.4l-34.4-34.4l34.4-34.4L875,234.5z"/>
	<path class="st2" d="M806.3,234.5H875l-34.4,34.4L806.3,234.5z"/>
</g>
<rect x="-20.3" y="-109.3" class="st0" width="1204.8" height="843.4"/>
<g>
	<path class="st1" d="M909.4,268.9l-34.4,34.4l-34.4-34.4l34.4-34.4L909.4,268.9z"/>
	<path class="st2" d="M840.6,268.9h68.8L875,303.3L840.6,268.9z"/>
</g>
<rect x="-20.3" y="-109.3" class="st0" width="1204.8" height="843.4"/>
<g>
	<path class="st1" d="M840.7,268.9l-34.4,34.4l-34.4-34.4l34.4-34.4L840.7,268.9z"/>
	<path class="st2" d="M771.9,268.9h68.8l-34.3,34.3L771.9,268.9z"/>
</g>
<rect x="-20.3" y="-109.3" class="st0" width="1204.8" height="843.4"/>
<g>
	<path class="st1" d="M909.4,200.1l-34.4,34.4l-34.4-34.4l34.4-34.4L909.4,200.1z"/>
	<path class="st2" d="M840.6,200.1h68.8L875,234.5L840.6,200.1z"/>
</g>
<rect x="-20.3" y="-109.3" class="st0" width="1204.8" height="843.4"/>
<g>
	<path class="st1" d="M840.7,200.1l-34.4,34.4l-34.4-34.4l34.4-34.4L840.7,200.1z"/>
	<path class="st2" d="M771.9,200.1h68.8l-34.3,34.4L771.9,200.1z"/>
</g>
<rect x="-20.3" y="-109.3" class="st0" width="1204.8" height="843.4"/>
<g>
	<path class="st1" d="M806.2,234.5l-34.4,34.4l-34.4-34.4l34.4-34.4L806.2,234.5z"/>
	<path class="st2" d="M737.5,234.5h68.8l-34.4,34.4L737.5,234.5z"/>
</g>
<rect x="-20.3" y="-109.3" class="st0" width="1204.8" height="843.4"/>
<g>
	<path class="st1" d="M737.4,234.5L703,268.9l-34.4-34.4l34.4-34.4L737.4,234.5z"/>
	<path class="st2" d="M668.7,234.5h68.8l-34.4,34.4L668.7,234.5z"/>
</g>
<rect x="-20.3" y="-109.3" class="st0" width="1204.8" height="843.4"/>
<g>
	<path class="st1" d="M771.9,268.9l-34.4,34.4l-34.4-34.4l34.4-34.4L771.9,268.9z"/>
	<path class="st2" d="M703.1,268.9h68.8l-34.3,34.3L703.1,268.9z"/>
</g>
<rect x="-20.3" y="-109.3" class="st0" width="1204.8" height="843.4"/>
<g>
	<path class="st1" d="M703.1,268.9l-34.4,34.4l-34.4-34.4l34.4-34.4L703.1,268.9z"/>
	<path class="st2" d="M634.3,268.9h68.8l-34.4,34.3L634.3,268.9z"/>
</g>
<rect x="-20.3" y="-109.3" class="st0" width="1204.8" height="843.4"/>
<g>
	<path class="st1" d="M771.9,200.1l-34.4,34.4l-34.4-34.4l34.4-34.4L771.9,200.1z"/>
	<path class="st2" d="M703.1,200.1h68.8l-34.3,34.4L703.1,200.1z"/>
</g>
<rect x="-20.3" y="-109.3" class="st0" width="1204.8" height="843.4"/>
<g>
	<path class="st1" d="M703.1,200.1l-34.4,34.4l-34.4-34.4l34.4-34.4L703.1,200.1z"/>
	<path class="st2" d="M634.3,200.1h68.8l-34.4,34.4L634.3,200.1z"/>
</g>
<rect x="-20.3" y="-109.3" class="st0" width="1204.8" height="843.4"/>
<g>
	<path class="st1" d="M668.7,234.5l-34.4,34.4l-34.4-34.4l34.4-34.4L668.7,234.5z"/>
	<path class="st2" d="M599.9,234.5h68.8l-34.3,34.4L599.9,234.5z"/>
</g>
<rect x="-20.3" y="-109.3" class="st0" width="1204.8" height="843.4"/>
<g>
	<path class="st1" d="M599.9,234.5l-34.4,34.4l-34.4-34.4l34.4-34.4L599.9,234.5z"/>
	<path class="st2" d="M531.1,234.5h68.8l-34.3,34.4L531.1,234.5z"/>
</g>
<rect x="-20.3" y="-109.3" class="st0" width="1204.8" height="843.4"/>
<g>
	<path class="st1" d="M634.3,268.9l-34.4,34.4l-34.4-34.4l34.4-34.4L634.3,268.9z"/>
	<path class="st2" d="M565.6,268.9h68.8l-34.4,34.3L565.6,268.9z"/>
</g>
<rect x="-20.3" y="-109.3" class="st0" width="1204.8" height="843.4"/>
<g>
	<path class="st1" d="M565.5,268.9l-34.4,34.4l-34.4-34.4l34.4-34.4L565.5,268.9z"/>
	<path class="st2" d="M496.8,268.9h68.8l-34.4,34.3L496.8,268.9z"/>
</g>
<rect x="-20.3" y="-109.3" class="st0" width="1204.8" height="843.4"/>
<g>
	<path class="st1" d="M634.3,200.1l-34.4,34.4l-34.4-34.4l34.4-34.4L634.3,200.1z"/>
	<path class="st2" d="M565.6,200.1h68.8l-34.4,34.4L565.6,200.1z"/>
</g>
<rect x="-20.3" y="-109.3" class="st0" width="1204.8" height="843.4"/>
<g>
	<path class="st1" d="M565.5,200.1l-34.4,34.4l-34.4-34.4l34.4-34.4L565.5,200.1z"/>
	<path class="st2" d="M496.8,200.1h68.8l-34.4,34.4L496.8,200.1z"/>
</g>
<rect x="-20.3" y="-109.3" class="st0" width="1204.8" height="843.4"/>
<g>
	<path class="st1" d="M531.1,234.5l-34.4,34.4l-34.4-34.4l34.4-34.4L531.1,234.5z"/>
	<path class="st2" d="M462.4,234.5h68.8l-34.3,34.4L462.4,234.5z"/>
</g>
<rect x="-20.3" y="-109.3" class="st0" width="1204.8" height="843.4"/>
<g>
	<path class="st1" d="M462.4,234.5L428,268.9l-34.4-34.4l34.4-34.4L462.4,234.5z"/>
	<path class="st2" d="M393.6,234.5h68.8L428,268.9L393.6,234.5z"/>
</g>
<rect x="-20.3" y="-109.3" class="st0" width="1204.8" height="843.4"/>
<g>
	<path class="st1" d="M496.8,268.9l-34.4,34.4L428,268.9l34.4-34.4L496.8,268.9z"/>
	<path class="st2" d="M428,268.9h68.8l-34.4,34.3L428,268.9z"/>
</g>
<rect x="-20.3" y="-109.3" class="st0" width="1204.8" height="843.4"/>
<g>
	<path class="st1" d="M428,268.9l-34.4,34.4l-34.4-34.4l34.4-34.4L428,268.9z"/>
	<path class="st2" d="M359.2,268.9H428l-34.4,34.3L359.2,268.9z"/>
</g>
<rect x="-20.3" y="-109.3" class="st0" width="1204.8" height="843.4"/>
<g>
	<path class="st1" d="M496.7,200.2l-34.4,34.4L428,200.2l34.4-34.4L496.7,200.2z"/>
	<path class="st2" d="M428,200.1h68.8l-34.4,34.4L428,200.1z"/>
</g>
<rect x="-20.3" y="-109.3" class="st0" width="1204.8" height="843.4"/>
<g>
	<path class="st1" d="M428,200.1l-34.4,34.4l-34.4-34.4l34.4-34.4L428,200.1z"/>
	<path class="st2" d="M359.2,200.1H428l-34.4,34.4L359.2,200.1z"/>
</g>
<rect x="-20.3" y="-109.3" class="st0" width="1204.8" height="843.4"/>
<g>
	<path class="st1" d="M393.6,234.5l-34.4,34.4l-34.4-34.4l34.4-34.4L393.6,234.5z"/>
	<path class="st2" d="M324.9,234.5h68.8l-34.4,34.4L324.9,234.5z"/>
</g>
<rect x="-20.3" y="-109.3" class="st0" width="1204.8" height="843.4"/>
<g>
	<path class="st1" d="M324.8,234.5l-34.4,34.4L256,234.5l34.4-34.4L324.8,234.5z"/>
	<path class="st2" d="M256.1,234.5h68.8l-34.4,34.4L256.1,234.5z"/>
</g>
<rect x="-20.3" y="-109.3" class="st0" width="1204.8" height="843.4"/>
<g>
	<path class="st1" d="M359.3,268.9l-34.4,34.4l-34.4-34.4l34.4-34.4L359.3,268.9z"/>
	<path class="st2" d="M290.4,268.9h68.8l-34.3,34.3L290.4,268.9z"/>
</g>
<rect x="-20.3" y="-109.3" class="st0" width="1204.8" height="843.4"/>
<g>
	<path class="st1" d="M290.5,268.9l-34.4,34.4l-34.4-34.4l34.4-34.4L290.5,268.9z"/>
	<path class="st2" d="M221.7,268.9h68.8l-34.3,34.3L221.7,268.9z"/>
</g>
<rect x="-20.3" y="-109.3" class="st0" width="1204.8" height="843.4"/>
<g>
	<path class="st1" d="M359.2,200.1l-34.4,34.4l-34.4-34.4l34.4-34.4L359.2,200.1z"/>
	<path class="st2" d="M290.4,200.1h68.8l-34.3,34.4L290.4,200.1z"/>
</g>
<rect x="-20.3" y="-109.3" class="st0" width="1204.8" height="843.4"/>
<g>
	<path class="st1" d="M290.5,200.1l-34.4,34.4l-34.4-34.4l34.4-34.4L290.5,200.1z"/>
	<path class="st2" d="M221.7,200.1h68.8l-34.3,34.4L221.7,200.1z"/>
</g>
<rect x="-20.3" y="-109.3" class="st0" width="1204.8" height="843.4"/>
<g>
	<path class="st1" d="M256,234.5l-34.4,34.4l-34.4-34.4l34.4-34.4L256,234.5z"/>
	<path class="st2" d="M187.3,234.5h68.8l-34.4,34.4L187.3,234.5z"/>
</g>
<rect x="-20.3" y="-109.3" class="st0" width="1204.8" height="843.4"/>
<g>
	<path class="st1" d="M187.3,234.5l-34.4,34.4l-34.4-34.4l34.4-34.4L187.3,234.5z"/>
	<path class="st2" d="M118.5,234.5h68.8l-34.4,34.4L118.5,234.5z"/>
</g>
<rect x="-20.3" y="-109.3" class="st0" width="1204.8" height="843.4"/>
<g>
	<path class="st1" d="M221.7,268.9l-34.4,34.4l-34.4-34.4l34.4-34.4L221.7,268.9z"/>
	<path class="st2" d="M152.9,268.9h68.8l-34.3,34.3L152.9,268.9z"/>
</g>
<rect x="-20.3" y="-109.3" class="st0" width="1204.8" height="843.4"/>
<g>
	<path class="st1" d="M152.9,268.9l-34.4,34.4l-34.4-34.4l34.4-34.4L152.9,268.9z"/>
	<path class="st2" d="M84.2,268.9h68.8l-34.4,34.3L84.2,268.9z"/>
</g>
<rect x="-20.3" y="-109.3" class="st0" width="1204.8" height="843.4"/>
<g>
	<path class="st1" d="M221.7,200.1l-34.4,34.4l-34.4-34.4l34.4-34.4L221.7,200.1z"/>
	<path class="st2" d="M152.9,200.1h68.8l-34.3,34.4L152.9,200.1z"/>
</g>
<rect x="-20.3" y="-109.3" class="st0" width="1204.8" height="843.4"/>
<g>
	<path class="st1" d="M152.9,200.1l-34.4,34.4l-34.4-34.4l34.4-34.4L152.9,200.1z"/>
	<path class="st2" d="M84.2,200.1h68.8l-34.4,34.4L84.2,200.1z"/>
</g>
<rect x="-20.3" y="-109.3" class="st0" width="1204.8" height="843.4"/>
<g>
	<path class="st1" d="M118.5,234.5l-34.4,34.4l-34.4-34.4l34.4-34.4L118.5,234.5z"/>
	<path class="st2" d="M49.7,234.5h68.8l-34.3,34.4L49.7,234.5z"/>
</g>
<rect x="-20.3" y="-109.3" class="st0" width="1204.8" height="843.4"/>
<g>
	<path class="st1" d="M49.7,234.5l-34.4,34.4L-19,234.5l34.4-34.4L49.7,234.5z"/>
	<path class="st2" d="M-19,234.5h68.8l-34.3,34.4L-19,234.5z"/>
</g>
<rect x="-20.3" y="-109.3" class="st0" width="1204.8" height="843.4"/>
<g>
	<path class="st1" d="M84.1,268.9l-34.4,34.4l-34.4-34.4l34.4-34.4L84.1,268.9z"/>
	<path class="st2" d="M15.4,268.9h68.8l-34.4,34.3L15.4,268.9z"/>
</g>
<rect x="-20.3" y="-109.3" class="st0" width="1204.8" height="843.4"/>
<g>
	<path class="st1" d="M15.3,268.9L-19,303.3l-34.4-34.4l34.4-34.4L15.3,268.9z"/>
	<path class="st2" d="M-53.4,268.9h68.8L-19,303.3L-53.4,268.9z"/>
</g>
<rect x="-20.3" y="-109.3" class="st0" width="1204.8" height="843.4"/>
<g>
	<path class="st1" d="M84.1,200.1l-34.4,34.4l-34.4-34.4l34.4-34.4L84.1,200.1z"/>
	<path class="st2" d="M15.4,200.1h68.8l-34.4,34.4L15.4,200.1z"/>
</g>
<rect x="-20.3" y="-109.3" class="st0" width="1204.8" height="843.4"/>
<g>
	<path class="st1" d="M15.3,200.2L-19,234.5l-34.4-34.4l34.4-34.4L15.3,200.2z"/>
	<path class="st2" d="M-53.4,200.1h68.8L-19,234.5L-53.4,200.1z"/>
</g>
<rect x="-20.3" y="-109.3" class="st0" width="1204.8" height="843.4"/>
<rect x="-20.3" y="-109.3" class="st0" width="1204.8" height="843.4"/>
<rect x="-20.3" y="-109.3" class="st0" width="1204.8" height="843.4"/>
<rect x="-20.3" y="-109.3" class="st0" width="1204.8" height="843.4"/>
<rect x="-20.3" y="-109.3" class="st0" width="1204.8" height="843.4"/>
<g>
	<path class="st1" d="M15.3,268.9l34.4,34.4l-34.4,34.4L-19,303.3L15.3,268.9z"/>
</g>
<rect x="-20.3" y="-109.3" class="st0" width="1204.8" height="843.4"/>
<g>
	<path class="st1" d="M84.1,268.9l34.4,34.4l-34.4,34.4l-34.4-34.4L84.1,268.9z"/>
</g>
<rect x="-20.3" y="-109.3" class="st0" width="1204.8" height="843.4"/>
<rect x="-20.3" y="-109.3" class="st0" width="1204.8" height="843.4"/>
<rect x="-20.3" y="-109.3" class="st0" width="1204.8" height="843.4"/>
<rect x="-20.3" y="-109.3" class="st0" width="1204.8" height="843.4"/>
<rect x="-20.3" y="-109.3" class="st0" width="1204.8" height="843.4"/>
<g>
	<path class="st1" d="M152.9,268.9l34.4,34.4l-34.4,34.4l-34.4-34.4L152.9,268.9z"/>
</g>
<rect x="-20.3" y="-109.3" class="st0" width="1204.8" height="843.4"/>
<g>
	<path class="st1" d="M221.7,269l34.4,34.4l-34.4,34.4l-34.4-34.4L221.7,269z"/>
</g>
<rect x="-20.3" y="-109.3" class="st0" width="1204.8" height="843.4"/>
<rect x="-20.3" y="-109.3" class="st0" width="1204.8" height="843.4"/>
<rect x="-20.3" y="-109.3" class="st0" width="1204.8" height="843.4"/>
<rect x="-20.3" y="-109.3" class="st0" width="1204.8" height="843.4"/>
<rect x="-20.3" y="-109.3" class="st0" width="1204.8" height="843.4"/>
<g>
	<path class="st1" d="M290.5,268.9l34.4,34.4l-34.4,34.4l-34.4-34.4L290.5,268.9z"/>
</g>
<rect x="-20.3" y="-109.3" class="st0" width="1204.8" height="843.4"/>
<g>
	<path class="st1" d="M359.2,268.9l34.4,34.4l-34.4,34.4l-34.4-34.4L359.2,268.9z"/>
</g>
<rect x="-20.3" y="-109.3" class="st0" width="1204.8" height="843.4"/>
<rect x="-20.3" y="-109.3" class="st0" width="1204.8" height="843.4"/>
<rect x="-20.3" y="-109.3" class="st0" width="1204.8" height="843.4"/>
<rect x="-20.3" y="-109.3" class="st0" width="1204.8" height="843.4"/>
<rect x="-20.3" y="-109.3" class="st0" width="1204.8" height="843.4"/>
<g>
	<path class="st1" d="M428,268.9l34.4,34.4L428,337.7l-34.4-34.4L428,268.9z"/>
</g>
<rect x="-20.3" y="-109.3" class="st0" width="1204.8" height="843.4"/>
<g>
	<path class="st1" d="M496.7,268.9l34.4,34.4l-34.4,34.4l-34.4-34.4L496.7,268.9z"/>
</g>
<rect x="-20.3" y="-109.3" class="st0" width="1204.8" height="843.4"/>
<rect x="-20.3" y="-109.3" class="st0" width="1204.8" height="843.4"/>
<rect x="-20.3" y="-109.3" class="st0" width="1204.8" height="843.4"/>
<rect x="-20.3" y="-109.3" class="st0" width="1204.8" height="843.4"/>
<rect x="-20.3" y="-109.3" class="st0" width="1204.8" height="843.4"/>
<g>
	<path class="st1" d="M565.5,268.9l34.4,34.4l-34.4,34.4l-34.4-34.4L565.5,268.9z"/>
</g>
<rect x="-20.3" y="-109.3" class="st0" width="1204.8" height="843.4"/>
<g>
	<path class="st1" d="M634.3,268.9l34.4,34.4l-34.4,34.4l-34.4-34.4L634.3,268.9z"/>
</g>
<rect x="-20.3" y="-109.3" class="st0" width="1204.8" height="843.4"/>
<rect x="-20.3" y="-109.3" class="st0" width="1204.8" height="843.4"/>
<rect x="-20.3" y="-109.3" class="st0" width="1204.8" height="843.4"/>
<rect x="-20.3" y="-109.3" class="st0" width="1204.8" height="843.4"/>
<rect x="-20.3" y="-109.3" class="st0" width="1204.8" height="843.4"/>
<g>
	<path class="st1" d="M703.1,269l34.4,34.4l-34.4,34.4l-34.4-34.4L703.1,269z"/>
</g>
<rect x="-20.3" y="-109.3" class="st0" width="1204.8" height="843.4"/>
<g>
	<path class="st1" d="M771.9,268.9l34.4,34.4l-34.4,34.4l-34.4-34.4L771.9,268.9z"/>
</g>
<rect x="-20.3" y="-109.3" class="st0" width="1204.8" height="843.4"/>
<rect x="-20.3" y="-109.3" class="st0" width="1204.8" height="843.4"/>
<rect x="-20.3" y="-109.3" class="st0" width="1204.8" height="843.4"/>
<rect x="-20.3" y="-109.3" class="st0" width="1204.8" height="843.4"/>
<rect x="-20.3" y="-109.3" class="st0" width="1204.8" height="843.4"/>
<g>
	<path class="st1" d="M840.6,268.9l34.4,34.4l-34.4,34.4l-34.4-34.4L840.6,268.9z"/>
</g>
<rect x="-20.3" y="-109.3" class="st0" width="1204.8" height="843.4"/>
<g>
	<path class="st1" d="M909.4,268.9l34.4,34.4l-34.4,34.4L875,303.3L909.4,268.9z"/>
</g>
<rect x="-20.3" y="-109.3" class="st0" width="1204.8" height="843.4"/>
<rect x="-20.3" y="-109.3" class="st0" width="1204.8" height="843.4"/>
<rect x="-20.3" y="-109.3" class="st0" width="1204.8" height="843.4"/>
<rect x="-20.3" y="-109.3" class="st0" width="1204.8" height="843.4"/>
<rect x="-20.3" y="-109.3" class="st0" width="1204.8" height="843.4"/>
<g>
	<path class="st1" d="M978.2,268.9l34.4,34.4l-34.4,34.4l-34.4-34.4L978.2,268.9z"/>
</g>
<rect x="-20.3" y="-109.3" class="st0" width="1204.8" height="843.4"/>
<g>
	<path class="st1" d="M1046.9,268.9l34.4,34.4l-34.4,34.4l-34.4-34.4L1046.9,268.9z"/>
</g>
<rect x="-20.3" y="-109.3" class="st0" width="1204.8" height="843.4"/>
<rect x="-20.3" y="-109.3" class="st0" width="1204.8" height="843.4"/>
<rect x="-20.3" y="-109.3" class="st0" width="1204.8" height="843.4"/>
<rect x="-20.3" y="-109.3" class="st0" width="1204.8" height="843.4"/>
<rect x="-20.3" y="-109.3" class="st0" width="1204.8" height="843.4"/>
<g>
	<path class="st1" d="M1115.7,268.9l34.4,34.4l-34.4,34.4l-34.4-34.4L1115.7,268.9z"/>
</g>
<rect x="-20.3" y="-109.3" class="st0" width="1204.8" height="843.4"/>
<g>
	<path class="st1" d="M1184.5,268.9l34.4,34.4l-34.4,34.4l-34.4-34.4L1184.5,268.9z"/>
</g>
<rect x="-20.3" y="-109.3" class="st0" width="1204.8" height="843.4"/>
<rect x="-20.3" y="-109.3" class="st0" width="1204.8" height="843.4"/>
<rect x="-20.3" y="-109.3" class="st0" width="1204.8" height="843.4"/>
<rect x="-20.3" y="-109.3" class="st0" width="1204.8" height="843.4"/>
<rect x="-20.3" y="-109.3" class="st0" width="1204.8" height="843.4"/>
<rect x="-20.3" y="-109.3" class="st0" width="1204.8" height="843.4"/>
<rect x="-20.3" y="-109.3" class="st0" width="1204.8" height="843.4"/>
<rect x="-20.3" y="-109.3" class="st0" width="1204.8" height="843.4"/>
<rect x="-20.3" y="-109.3" class="st0" width="1204.8" height="843.4"/>
<rect x="-20.3" y="-109.3" class="st0" width="1204.8" height="843.4"/>
<rect x="-20.3" y="-109.3" class="st0" width="1204.8" height="843.4"/>
<rect x="-20.3" y="-109.3" class="st0" width="1204.8" height="843.4"/>
<rect x="-20.3" y="-109.3" class="st0" width="1204.8" height="843.4"/>
<rect x="-20.3" y="-109.3" class="st0" width="1204.8" height="843.4"/>
<rect x="-20.3" y="-109.3" class="st0" width="1204.8" height="843.4"/>
<rect x="-20.3" y="-109.3" class="st0" width="1204.8" height="843.4"/>
<rect x="-20.3" y="-109.3" class="st0" width="1204.8" height="843.4"/>
<rect x="-20.3" y="-109.3" class="st0" width="1204.8" height="843.4"/>
<rect x="-20.3" y="-109.3" class="st0" width="1204.8" height="843.4"/>
<rect x="-20.3" y="-109.3" class="st0" width="1204.8" height="843.4"/>
<rect x="-20.3" y="-109.3" class="st0" width="1204.8" height="843.4"/>
<rect x="-20.3" y="-109.3" class="st0" width="1204.8" height="843.4"/>
<rect x="-20.3" y="-109.3" class="st0" width="1204.8" height="843.4"/>
<rect x="-20.3" y="-109.3" class="st0" width="1204.8" height="843.4"/>
<rect x="-20.3" y="-109.3" class="st0" width="1204.8" height="843.4"/>
<rect x="-20.3" y="-109.3" class="st0" width="1204.8" height="843.4"/>
<rect x="-20.3" y="-109.3" class="st0" width="1204.8" height="843.4"/>
<rect x="-20.3" y="-109.3" class="st0" width="1204.8" height="843.4"/>
<rect x="-20.3" y="-109.3" class="st0" width="1204.8" height="843.4"/>
<rect x="-20.3" y="-109.3" class="st0" width="1204.8" height="843.4"/>
<rect x="-20.3" y="-109.3" class="st0" width="1204.8" height="843.4"/>
<rect x="-20.3" y="-109.3" class="st0" width="1204.8" height="843.4"/>
<rect x="-20.3" y="-109.3" class="st0" width="1204.8" height="843.4"/>
<rect x="-20.3" y="-109.3" class="st0" width="1204.8" height="843.4"/>
<rect x="-20.3" y="-109.3" class="st0" width="1204.8" height="843.4"/>
<rect x="-20.3" y="-109.3" class="st0" width="1204.8" height="843.4"/>
<rect x="-20.3" y="-109.3" class="st0" width="1204.8" height="843.4"/>
<rect x="-20.3" y="-109.3" class="st0" width="1204.8" height="843.4"/>
<rect x="-20.3" y="-109.3" class="st0" width="1204.8" height="843.4"/>
<rect x="-20.3" y="-109.3" class="st0" width="1204.8" height="843.4"/>
<rect x="-20.3" y="-109.3" class="st0" width="1204.8" height="843.4"/>
<rect x="-20.3" y="-109.3" class="st0" width="1204.8" height="843.4"/>
<rect x="-20.3" y="-109.3" class="st0" width="1204.8" height="843.4"/>
<rect x="-20.3" y="-109.3" class="st0" width="1204.8" height="843.4"/>
<rect x="-20.3" y="-109.3" class="st0" width="1204.8" height="843.4"/>
<rect x="-20.3" y="-109.3" class="st0" width="1204.8" height="843.4"/>
<rect x="-20.3" y="-109.3" class="st0" width="1204.8" height="843.4"/>
<rect x="-20.3" y="-109.3" class="st0" width="1204.8" height="843.4"/>
<rect x="-20.3" y="-109.3" class="st0" width="1204.8" height="843.4"/>
<rect x="-20.3" y="-109.3" class="st0" width="1204.8" height="843.4"/>
<rect x="-20.3" y="-109.3" class="st0" width="1204.8" height="843.4"/>
<rect x="-20.3" y="-109.3" class="st0" width="1204.8" height="843.4"/>
<rect x="-20.3" y="-109.3" class="st0" width="1204.8" height="843.4"/>
<rect x="-20.3" y="-109.3" class="st0" width="1204.8" height="843.4"/>
<rect x="-20.3" y="-109.3" class="st0" width="1204.8" height="843.4"/>
<rect x="-20.3" y="-109.3" class="st0" width="1204.8" height="843.4"/>
<rect x="-20.3" y="-109.3" class="st0" width="1204.8" height="843.4"/>
<rect x="-20.3" y="-109.3" class="st0" width="1204.8" height="843.4"/>
<rect x="-20.3" y="-109.3" class="st0" width="1204.8" height="843.4"/>
<rect x="-20.3" y="-109.3" class="st0" width="1204.8" height="843.4"/>
<rect x="-20.3" y="-109.3" class="st0" width="1204.8" height="843.4"/>
<rect x="-20.3" y="-109.3" class="st0" width="1204.8" height="843.4"/>
<rect x="-20.3" y="-109.3" class="st0" width="1204.8" height="843.4"/>
<rect x="-20.3" y="-109.3" class="st0" width="1204.8" height="843.4"/>
<rect x="-20.3" y="-109.3" class="st0" width="1204.8" height="843.4"/>
<rect x="-20.3" y="-109.3" class="st0" width="1204.8" height="843.4"/>
<rect x="-20.3" y="-109.3" class="st0" width="1204.8" height="843.4"/>
<rect x="-20.3" y="-109.3" class="st0" width="1204.8" height="843.4"/>
<rect x="-20.3" y="-109.3" class="st0" width="1204.8" height="843.4"/>
<rect x="-20.3" y="-109.3" class="st0" width="1204.8" height="843.4"/>
<rect x="-20.3" y="-109.3" class="st0" width="1204.8" height="843.4"/>
<rect x="-20.3" y="-109.3" class="st0" width="1204.8" height="843.4"/>
<rect x="-20.3" y="-109.3" class="st0" width="1204.8" height="843.4"/>
<rect x="-20.3" y="-109.3" class="st0" width="1204.8" height="843.4"/>
<rect x="-20.3" y="-109.3" class="st0" width="1204.8" height="843.4"/>
<rect x="-20.3" y="-109.3" class="st0" width="1204.8" height="843.4"/>
<rect x="-20.3" y="-109.3" class="st0" width="1204.8" height="843.4"/>
<rect x="-20.3" y="-109.3" class="st0" width="1204.8" height="843.4"/>
<rect x="-20.3" y="-109.3" class="st0" width="1204.8" height="843.4"/>
<rect x="-20.3" y="-109.3" class="st0" width="1204.8" height="843.4"/>
<rect x="-20.3" y="-109.3" class="st0" width="1204.8" height="843.4"/>
<rect x="-20.3" y="-109.3" class="st0" width="1204.8" height="843.4"/>
<rect x="-20.3" y="-109.3" class="st0" width="1204.8" height="843.4"/>
<rect x="-20.3" y="-109.3" class="st0" width="1204.8" height="843.4"/>
<rect x="-20.3" y="-109.3" class="st0" width="1204.8" height="843.4"/>
<rect x="-20.3" y="-109.3" class="st0" width="1204.8" height="843.4"/>
<rect x="-20.3" y="-109.3" class="st0" width="1204.8" height="843.4"/>
<rect x="-20.3" y="-109.3" class="st0" width="1204.8" height="843.4"/>
<rect x="-20.3" y="-109.3" class="st0" width="1204.8" height="843.4"/>
<rect x="-20.3" y="-109.3" class="st0" width="1204.8" height="843.4"/>
<rect x="-20.3" y="-109.3" class="st0" width="1204.8" height="843.4"/>
<rect x="-20.3" y="-109.3" class="st0" width="1204.8" height="843.4"/>
<rect x="-20.3" y="-109.3" class="st0" width="1204.8" height="843.4"/>
<rect x="-20.3" y="-109.3" class="st0" width="1204.8" height="843.4"/>
<rect x="-20.3" y="-109.3" class="st0" width="1204.8" height="843.4"/>
<rect x="-20.3" y="-109.3" class="st0" width="1204.8" height="843.4"/>
<rect x="-20.3" y="-109.3" class="st0" width="1204.8" height="843.4"/>
<rect x="-20.3" y="-109.3" class="st0" width="1204.8" height="843.4"/>
<rect x="-20.3" y="-109.3" class="st0" width="1204.8" height="843.4"/>
<rect x="-20.3" y="-109.3" class="st0" width="1204.8" height="843.4"/>
<rect x="-20.3" y="-109.3" class="st0" width="1204.8" height="843.4"/>
<rect x="-20.3" y="-109.3" class="st0" width="1204.8" height="843.4"/>
<rect x="-20.3" y="-109.3" class="st0" width="1204.8" height="843.4"/>
<rect x="-20.3" y="-109.3" class="st0" width="1204.8" height="843.4"/>
<rect x="-20.3" y="-109.3" class="st0" width="1204.8" height="843.4"/>
<rect x="-20.3" y="-109.3" class="st0" width="1204.8" height="843.4"/>
<rect x="-20.3" y="-109.3" class="st0" width="1204.8" height="843.4"/>
<rect x="-20.3" y="-109.3" class="st0" width="1204.8" height="843.4"/>
<rect x="-20.3" y="-109.3" class="st0" width="1204.8" height="843.4"/>
<rect x="-20.3" y="-109.3" class="st0" width="1204.8" height="843.4"/>
<rect x="-20.3" y="-109.3" class="st0" width="1204.8" height="843.4"/>
<rect x="-20.3" y="-109.3" class="st0" width="1204.8" height="843.4"/>
<rect x="-20.3" y="-109.3" class="st0" width="1204.8" height="843.4"/>
<rect x="-20.3" y="-109.3" class="st0" width="1204.8" height="843.4"/>
<rect x="-20.3" y="-109.3" class="st0" width="1204.8" height="843.4"/>
<rect x="-20.3" y="-109.3" class="st0" width="1204.8" height="843.4"/>
<rect x="-20.3" y="-109.3" class="st0" width="1204.8" height="843.4"/>
<rect x="-20.3" y="-109.3" class="st0" width="1204.8" height="843.4"/>
<rect x="-20.3" y="-109.3" class="st0" width="1204.8" height="843.4"/>
<rect x="-20.3" y="-109.3" class="st0" width="1204.8" height="843.4"/>
<rect x="-20.3" y="-109.3" class="st0" width="1204.8" height="843.4"/>
<rect x="-20.3" y="-109.3" class="st0" width="1204.8" height="843.4"/>
<rect x="-20.3" y="-109.3" class="st0" width="1204.8" height="843.4"/>
<rect x="-20.3" y="-109.3" class="st0" width="1204.8" height="843.4"/>
<rect x="-20.3" y="-109.3" class="st0" width="1204.8" height="843.4"/>
<rect x="-20.3" y="-109.3" class="st0" width="1204.8" height="843.4"/>
<rect x="-20.3" y="-109.3" class="st0" width="1204.8" height="843.4"/>
<rect x="-20.3" y="-109.3" class="st0" width="1204.8" height="843.4"/>
<rect x="-20.3" y="-109.3" class="st0" width="1204.8" height="843.4"/>
<rect x="-20.3" y="-109.3" class="st0" width="1204.8" height="843.4"/>
<rect x="-20.3" y="-109.3" class="st0" width="1204.8" height="843.4"/>
<rect x="-20.3" y="-109.3" class="st0" width="1204.8" height="843.4"/>
<rect x="-20.3" y="-109.3" class="st0" width="1204.8" height="843.4"/>
<rect x="-20.3" y="-109.3" class="st0" width="1204.8" height="843.4"/>
<rect x="-20.3" y="-109.3" class="st0" width="1204.8" height="843.4"/>
<rect x="-20.3" y="-109.3" class="st0" width="1204.8" height="843.4"/>
<rect x="-20.3" y="-109.3" class="st0" width="1204.8" height="843.4"/>
<rect x="-20.3" y="-109.3" class="st0" width="1204.8" height="843.4"/>
<rect x="-20.3" y="-109.3" class="st0" width="1204.8" height="843.4"/>
<rect x="-20.3" y="-109.3" class="st0" width="1204.8" height="843.4"/>
<rect x="-20.3" y="-109.3" class="st0" width="1204.8" height="843.4"/>
<rect x="-20.3" y="-109.3" class="st0" width="1204.8" height="843.4"/>
<rect x="-20.3" y="-109.3" class="st0" width="1204.8" height="843.4"/>
<rect x="-20.3" y="-109.3" class="st0" width="1204.8" height="843.4"/>
<rect x="-20.3" y="-109.3" class="st0" width="1204.8" height="843.4"/>
<rect x="-20.3" y="-109.3" class="st0" width="1204.8" height="843.4"/>
<rect x="-20.3" y="-109.3" class="st0" width="1204.8" height="843.4"/>
<rect x="-20.3" y="-109.3" class="st0" width="1204.8" height="843.4"/>
<rect x="-20.3" y="-109.3" class="st0" width="1204.8" height="843.4"/>
<rect x="-20.3" y="-109.3" class="st0" width="1204.8" height="843.4"/>
<rect x="-20.3" y="-109.3" class="st0" width="1204.8" height="843.4"/>
<rect x="-20.3" y="-109.3" class="st0" width="1204.8" height="843.4"/>
<rect x="-20.3" y="-109.3" class="st0" width="1204.8" height="843.4"/>
<rect x="-20.3" y="-109.3" class="st0" width="1204.8" height="843.4"/>
<rect x="-20.3" y="-109.3" class="st0" width="1204.8" height="843.4"/>
<rect x="-20.3" y="-109.3" class="st0" width="1204.8" height="843.4"/>
<rect x="-20.3" y="-109.3" class="st0" width="1204.8" height="843.4"/>
<rect x="-20.3" y="-109.3" class="st0" width="1204.8" height="843.4"/>
<rect x="-20.3" y="-109.3" class="st0" width="1204.8" height="843.4"/>
<rect x="-20.3" y="-109.3" class="st0" width="1204.8" height="843.4"/>
<rect x="-20.3" y="-109.3" class="st0" width="1204.8" height="843.4"/>
<rect x="-20.3" y="-109.3" class="st0" width="1204.8" height="843.4"/>
<rect x="-20.3" y="-109.3" class="st0" width="1204.8" height="843.4"/>
<rect x="-20.3" y="-109.3" class="st0" width="1204.8" height="843.4"/>
<rect x="-20.3" y="-109.3" class="st0" width="1204.8" height="843.4"/>
<rect x="-20.3" y="-109.3" class="st0" width="1204.8" height="843.4"/>
<rect x="-20.3" y="-109.3" class="st0" width="1204.8" height="843.4"/>
<rect x="-20.3" y="-109.3" class="st0" width="1204.8" height="843.4"/>
<rect x="-20.3" y="-109.3" class="st0" width="1204.8" height="843.4"/>
<rect x="-20.3" y="-109.3" class="st0" width="1204.8" height="843.4"/>
<rect x="-20.3" y="-109.3" class="st0" width="1204.8" height="843.4"/>
<rect x="-20.3" y="-109.3" class="st0" width="1204.8" height="843.4"/>
<rect x="-20.3" y="-109.3" class="st0" width="1204.8" height="843.4"/>
<rect x="-20.3" y="-109.3" class="st0" width="1204.8" height="843.4"/>
<rect x="-20.3" y="-109.3" class="st0" width="1204.8" height="843.4"/>
<rect x="-20.3" y="-109.3" class="st0" width="1204.8" height="843.4"/>
<rect x="-20.3" y="-109.3" class="st0" width="1204.8" height="843.4"/>
<rect x="-20.3" y="-109.3" class="st0" width="1204.8" height="843.4"/>
<rect x="-20.3" y="-109.3" class="st0" width="1204.8" height="843.4"/>
<rect x="-20.3" y="-109.3" class="st0" width="1204.8" height="843.4"/>
<rect x="-20.3" y="-109.3" class="st0" width="1204.8" height="843.4"/>
<rect x="-20.3" y="-109.3" class="st0" width="1204.8" height="843.4"/>
<rect x="-20.3" y="-109.3" class="st0" width="1204.8" height="843.4"/>
<rect x="-20.3" y="-109.3" class="st0" width="1204.8" height="843.4"/>
<rect x="-20.3" y="-109.3" class="st0" width="1204.8" height="843.4"/>
<rect x="-20.3" y="-109.3" class="st0" width="1204.8" height="843.4"/>
<rect x="-20.3" y="-109.3" class="st0" width="1204.8" height="843.4"/>
<g transform="matrix(1, 0, 0, 1, -143.33755493164062, -153.57595825195312)">
	<g>
		<g>
			<path class="st1" d="M1327.8,147.4l34.4,34.4l-34.4,34.4l-34.4-34.4L1327.8,147.4z"/>
			<path class="st2" d="M1327.8,216.1l-34.4-34.3h68.8L1327.8,216.1z"/>
		</g>
	</g>
	<g>
		<g>
			<path class="st1" d="M1396.6,147.4l34.4,34.4l-34.4,34.4l-34.4-34.4L1396.6,147.4z"/>
			<path class="st2" d="M1396.6,216.1l-34.3-34.3h68.8L1396.6,216.1z"/>
		</g>
	</g>
	<g>
		<g>
			<path class="st1" d="M1362.2,181.8l34.4,34.4l-34.4,34.4l-34.4-34.4L1362.2,181.8z"/>
			<path class="st2" d="M1362.3,250.6l-34.4-34.4h68.8L1362.3,250.6z"/>
		</g>
	</g>
	<g>
		<g>
			<path class="st1" d="M1431,181.8l34.4,34.4l-34.4,34.4l-34.4-34.4L1431,181.8z"/>
			<path class="st2" d="M1431,250.6l-34.4-34.4h68.8L1431,250.6z"/>
		</g>
	</g>
	<g>
		<g>
			<path class="st1" d="M1362.3,113l34.4,34.4l-34.4,34.4l-34.4-34.4L1362.3,113z"/>
			<path class="st2" d="M1362.3,181.8l-34.4-34.4h68.8L1362.3,181.8z"/>
		</g>
	</g>
	<g>
		<g>
			<path class="st1" d="M1431,113l34.4,34.4l-34.4,34.4l-34.4-34.4L1431,113z"/>
			<path class="st2" d="M1431,181.8l-34.4-34.4h68.8L1431,181.8z"/>
		</g>
	</g>
	<g>
		<g>
			<path class="st1" d="M1465.4,147.4l34.4,34.4l-34.4,34.4l-34.4-34.4L1465.4,147.4z"/>
			<path class="st2" d="M1465.4,216.1l-34.3-34.3h68.8L1465.4,216.1z"/>
		</g>
	</g>
	<g>
		<g>
			<path class="st1" d="M1534.1,147.4l34.4,34.4l-34.4,34.4l-34.4-34.4L1534.1,147.4z"/>
			<path class="st2" d="M1534.1,216.1l-34.3-34.3h68.8L1534.1,216.1z"/>
		</g>
	</g>
	<g>
		<g>
			<path class="st1" d="M1499.8,181.8l34.4,34.4l-34.4,34.4l-34.4-34.4L1499.8,181.8z"/>
			<path class="st2" d="M1499.8,250.6l-34.4-34.4h68.8L1499.8,250.6z"/>
		</g>
	</g>
	<g>
		<g>
			<path class="st1" d="M1568.5,181.7l34.4,34.4l-34.4,34.4l-34.4-34.4L1568.5,181.7z"/>
			<path class="st2" d="M1568.6,250.6l-34.4-34.4h68.8L1568.6,250.6z"/>
		</g>
	</g>
	<g>
		<g>
			<path class="st1" d="M1499.8,113l34.4,34.4l-34.4,34.4l-34.4-34.4L1499.8,113z"/>
			<path class="st2" d="M1499.8,181.8l-34.4-34.4h68.8L1499.8,181.8z"/>
		</g>
	</g>
	<g>
		<g>
			<path class="st1" d="M1568.5,112.9l34.4,34.4l-34.4,34.4l-34.4-34.4L1568.5,112.9z"/>
			<path class="st2" d="M1568.6,181.8l-34.4-34.4h68.8L1568.6,181.8z"/>
		</g>
	</g>
	<g>
		<g>
			<path class="st1" d="M1602.9,147.4l34.4,34.4l-34.4,34.4l-34.4-34.4L1602.9,147.4z"/>
			<path class="st2" d="M1603,216.1l-34.4-34.3h68.8L1603,216.1z"/>
		</g>
	</g>
	<g>
		<g>
			<path class="st1" d="M1671.7,147.4l34.4,34.4l-34.4,34.4l-34.4-34.4L1671.7,147.4z"/>
			<path class="st2" d="M1671.7,216.1l-34.4-34.3h68.8L1671.7,216.1z"/>
		</g>
	</g>
	<g>
		<g>
			<path class="st1" d="M1637.3,181.7l34.4,34.4l-34.4,34.4l-34.4-34.4L1637.3,181.7z"/>
			<path class="st2" d="M1637.3,250.6l-34.3-34.4h68.8L1637.3,250.6z"/>
		</g>
	</g>
	<g>
		<g>
			<path class="st1" d="M1706.1,181.7l34.4,34.4l-34.4,34.4l-34.4-34.4L1706.1,181.7z"/>
			<path class="st2" d="M1706.1,250.6l-34.3-34.4h68.8L1706.1,250.6z"/>
		</g>
	</g>
	<g>
		<g>
			<path class="st1" d="M1637.3,113l34.4,34.4l-34.4,34.4l-34.4-34.4L1637.3,113z"/>
			<path class="st2" d="M1637.3,181.8l-34.3-34.4h68.8L1637.3,181.8z"/>
		</g>
	</g>
	<g>
		<g>
			<path class="st1" d="M1706.1,113l34.4,34.4l-34.4,34.4l-34.4-34.4L1706.1,113z"/>
			<path class="st2" d="M1706.1,181.8l-34.3-34.4h68.8L1706.1,181.8z"/>
		</g>
	</g>
	<g>
		<g>
			<path class="st1" d="M1740.5,147.4l34.4,34.4l-34.4,34.4l-34.4-34.4L1740.5,147.4z"/>
			<path class="st2" d="M1740.5,216.1l-34.4-34.3h68.8L1740.5,216.1z"/>
		</g>
	</g>
	<g>
		<g>
			<path class="st1" d="M1774.9,181.8l34.4,34.4l-34.4,34.4l-34.4-34.4L1774.9,181.8z"/>
			<path class="st2" d="M1774.8,250.6l-34.3-34.4h68.8L1774.8,250.6z"/>
		</g>
	</g>
	<g>
		<g>
			<path class="st1" d="M1774.9,113l34.4,34.4l-34.4,34.4l-34.4-34.4L1774.9,113z"/>
			<path class="st2" d="M1774.8,181.8l-34.3-34.4h68.8L1774.8,181.8z"/>
		</g>
	</g>
	<g>
		<g>
			<path class="st1" d="M1809.3,284.9l-34.4,34.4l-34.4-34.4l34.4-34.4L1809.3,284.9z"/>
			<path class="st2" d="M1774.8,319.3l34.4-34.4h-68.8L1774.8,319.3z"/>
		</g>
	</g>
	<g>
		<g>
			<path class="st1" d="M1774.8,319.3l-34.4,34.4l-34.4-34.4l34.4-34.4L1774.8,319.3z"/>
			<path class="st2" d="M1740.5,353.7l34.3-34.3h-68.8L1740.5,353.7z"/>
		</g>
	</g>
	<g>
		<g>
			<path class="st1" d="M1774.8,250.5l-34.4,34.4l-34.4-34.4l34.4-34.4L1774.8,250.5z"/>
			<path class="st2" d="M1740.5,284.9l34.3-34.3h-68.8L1740.5,284.9z"/>
		</g>
	</g>
	<g>
		<g>
			<path class="st1" d="M1740.5,284.9l-34.4,34.4l-34.4-34.4l34.4-34.4L1740.5,284.9z"/>
			<path class="st2" d="M1706.1,319.3l34.4-34.4h-68.8L1706.1,319.3z"/>
		</g>
	</g>
	<g>
		<g>
			<path class="st1" d="M1671.7,284.9l-34.4,34.4l-34.4-34.4l34.4-34.4L1671.7,284.9z"/>
			<path class="st2" d="M1637.3,319.3l34.4-34.4H1603L1637.3,319.3z"/>
		</g>
	</g>
	<g>
		<g>
			<path class="st1" d="M1706.1,319.3l-34.4,34.4l-34.4-34.4l34.4-34.4L1706.1,319.3z"/>
			<path class="st2" d="M1671.7,353.7l34.3-34.3h-68.8L1671.7,353.7z"/>
		</g>
	</g>
	<g>
		<g>
			<path class="st1" d="M1637.3,319.3l-34.4,34.4l-34.4-34.4l34.4-34.4L1637.3,319.3z"/>
			<path class="st2" d="M1603,353.7l34.3-34.3h-68.8L1603,353.7z"/>
		</g>
	</g>
	<g>
		<g>
			<path class="st1" d="M1706.1,250.5l-34.4,34.4l-34.4-34.4l34.4-34.4L1706.1,250.5z"/>
			<path class="st2" d="M1671.7,284.9l34.3-34.3h-68.8L1671.7,284.9z"/>
		</g>
	</g>
	<g>
		<g>
			<path class="st1" d="M1637.3,250.5l-34.4,34.4l-34.4-34.4l34.4-34.4L1637.3,250.5z"/>
			<path class="st2" d="M1603,284.9l34.3-34.3h-68.8L1603,284.9z"/>
		</g>
	</g>
	<g>
		<g>
			<path class="st1" d="M1603,284.9l-34.4,34.4l-34.4-34.4l34.4-34.4L1603,284.9z"/>
			<path class="st2" d="M1568.6,319.3l34.4-34.4h-68.8L1568.6,319.3z"/>
		</g>
	</g>
	<g>
		<g>
			<path class="st1" d="M1534.2,285l-34.4,34.4l-34.4-34.4l34.4-34.4L1534.2,285z"/>
			<path class="st2" d="M1499.8,319.3l34.3-34.4h-68.8L1499.8,319.3z"/>
		</g>
	</g>
	<g>
		<g>
			<path class="st1" d="M1568.5,319.3l-34.4,34.4l-34.4-34.4l34.4-34.4L1568.5,319.3z"/>
			<path class="st2" d="M1534.1,353.7l34.4-34.3h-68.8L1534.1,353.7z"/>
		</g>
	</g>
	<g>
		<g>
			<path class="st1" d="M1499.8,319.3l-34.4,34.4l-34.4-34.4l34.4-34.4L1499.8,319.3z"/>
			<path class="st2" d="M1465.4,353.7l34.4-34.3H1431L1465.4,353.7z"/>
		</g>
	</g>
	<g>
		<g>
			<path class="st1" d="M1568.5,250.5l-34.4,34.4l-34.4-34.4l34.4-34.4L1568.5,250.5z"/>
			<path class="st2" d="M1534.1,284.9l34.4-34.3h-68.8L1534.1,284.9z"/>
		</g>
	</g>
	<g>
		<g>
			<path class="st1" d="M1499.8,250.5l-34.4,34.4l-34.4-34.4l34.4-34.4L1499.8,250.5z"/>
			<path class="st2" d="M1465.4,284.9l34.4-34.3H1431L1465.4,284.9z"/>
		</g>
	</g>
	<g>
		<g>
			<path class="st1" d="M1465.4,285l-34.4,34.4l-34.4-34.4l34.4-34.4L1465.4,285z"/>
			<path class="st2" d="M1431,319.3l34.3-34.4h-68.8L1431,319.3z"/>
		</g>
	</g>
	<g>
		<g>
			<path class="st1" d="M1396.6,284.9l-34.4,34.4l-34.4-34.4l34.4-34.4L1396.6,284.9z"/>
			<path class="st2" d="M1362.3,319.3l34.3-34.4h-68.8L1362.3,319.3z"/>
		</g>
	</g>
	<g>
		<g>
			<path class="st1" d="M1431,319.3l-34.4,34.4l-34.4-34.4l34.4-34.4L1431,319.3z"/>
			<path class="st2" d="M1396.6,353.7l34.4-34.3h-68.8L1396.6,353.7z"/>
		</g>
	</g>
	<g>
		<g>
			<path class="st1" d="M1362.2,319.3l-34.4,34.4l-34.4-34.4l34.4-34.4L1362.2,319.3z"/>
			<path class="st2" d="M1327.8,353.7l34.4-34.3h-68.8L1327.8,353.7z"/>
		</g>
	</g>
	<g>
		<g>
			<path class="st1" d="M1431,250.5l-34.4,34.4l-34.4-34.4l34.4-34.4L1431,250.5z"/>
			<path class="st2" d="M1396.6,284.9l34.4-34.3h-68.8L1396.6,284.9z"/>
		</g>
	</g>
	<g>
		<g>
			<path class="st1" d="M1362.2,250.5l-34.4,34.4l-34.4-34.4l34.4-34.4L1362.2,250.5z"/>
			<path class="st2" d="M1327.8,284.9l34.4-34.3h-68.8L1327.8,284.9z"/>
		</g>
	</g>
	<g>
		<g>
			<path class="st1" d="M1327.8,353.7l34.4,34.4l-34.4,34.4l-34.4-34.4L1327.8,353.7z"/>
			<path class="st2" d="M1327.8,422.5l-34.4-34.4h68.8L1327.8,422.5z"/>
		</g>
	</g>
	<g>
		<g>
			<path class="st1" d="M1396.6,353.7L1431,388l-34.4,34.4l-34.4-34.4L1396.6,353.7z"/>
			<path class="st2" d="M1396.6,422.5l-34.3-34.4h68.8L1396.6,422.5z"/>
		</g>
	</g>
	<g>
		<g>
			<path class="st1" d="M1362.2,388.1l34.4,34.4l-34.4,34.4l-34.4-34.4L1362.2,388.1z"/>
			<path class="st2" d="M1362.3,456.9l-34.4-34.3h68.8L1362.3,456.9z"/>
		</g>
	</g>
	<g>
		<g>
			<path class="st1" d="M1431,388.1l34.4,34.4l-34.4,34.4l-34.4-34.4L1431,388.1z"/>
			<path class="st2" d="M1431,456.9l-34.4-34.3h68.8L1431,456.9z"/>
		</g>
	</g>
	<g>
		<g>
			<path class="st1" d="M1362.2,319.3l34.4,34.4l-34.4,34.4l-34.4-34.4L1362.2,319.3z"/>
			<path class="st2" d="M1362.3,388.1l-34.4-34.4h68.8L1362.3,388.1z"/>
		</g>
	</g>
	<g>
		<g>
			<path class="st1" d="M1431,319.3l34.4,34.4l-34.4,34.4l-34.4-34.4L1431,319.3z"/>
			<path class="st2" d="M1431,388.1l-34.4-34.4h68.8L1431,388.1z"/>
		</g>
	</g>
	<g>
		<g>
			<path class="st1" d="M1465.4,353.7l34.4,34.4l-34.4,34.4l-34.4-34.4L1465.4,353.7z"/>
			<path class="st2" d="M1465.4,422.5l-34.3-34.4h68.8L1465.4,422.5z"/>
		</g>
	</g>
	<g>
		<g>
			<path class="st1" d="M1534.2,353.7l34.4,34.4l-34.4,34.4l-34.4-34.4L1534.2,353.7z"/>
			<path class="st2" d="M1534.1,422.5l-34.3-34.4h68.8L1534.1,422.5z"/>
		</g>
	</g>
	<g>
		<g>
			<path class="st1" d="M1499.8,388.1l34.4,34.4l-34.4,34.4l-34.4-34.4L1499.8,388.1z"/>
			<path class="st2" d="M1499.8,456.9l-34.4-34.3h68.8L1499.8,456.9z"/>
		</g>
	</g>
	<g>
		<g>
			<path class="st1" d="M1568.5,388.1l34.4,34.4l-34.4,34.4l-34.4-34.4L1568.5,388.1z"/>
			<path class="st2" d="M1568.6,456.9l-34.4-34.3h68.8L1568.6,456.9z"/>
		</g>
	</g>
	<g>
		<g>
			<path class="st1" d="M1499.8,319.3l34.4,34.4l-34.4,34.4l-34.4-34.4L1499.8,319.3z"/>
			<path class="st2" d="M1499.8,388.1l-34.4-34.4h68.8L1499.8,388.1z"/>
		</g>
	</g>
	<g>
		<g>
			<path class="st1" d="M1568.5,319.3l34.4,34.4l-34.4,34.4l-34.4-34.4L1568.5,319.3z"/>
			<path class="st2" d="M1568.6,388.1l-34.4-34.4h68.8L1568.6,388.1z"/>
		</g>
	</g>
	<g>
		<g>
			<path class="st1" d="M1603,353.7l34.4,34.4l-34.4,34.4l-34.4-34.4L1603,353.7z"/>
			<path class="st2" d="M1603,422.5l-34.4-34.4h68.8L1603,422.5z"/>
		</g>
	</g>
	<g>
		<g>
			<path class="st1" d="M1671.7,353.7l34.4,34.4l-34.4,34.4l-34.4-34.4L1671.7,353.7z"/>
			<path class="st2" d="M1671.7,422.5l-34.4-34.4h68.8L1671.7,422.5z"/>
		</g>
	</g>
	<g>
		<g>
			<path class="st1" d="M1637.3,388.1l34.4,34.4l-34.4,34.4l-34.4-34.4L1637.3,388.1z"/>
			<path class="st2" d="M1637.3,456.9l-34.3-34.3h68.8L1637.3,456.9z"/>
		</g>
	</g>
	<g>
		<g>
			<path class="st1" d="M1706.1,388.1l34.4,34.4l-34.4,34.4l-34.4-34.4L1706.1,388.1z"/>
			<path class="st2" d="M1706.1,456.9l-34.3-34.3h68.8L1706.1,456.9z"/>
		</g>
	</g>
	<g>
		<g>
			<path class="st1" d="M1637.3,319.3l34.4,34.4l-34.4,34.4l-34.4-34.4L1637.3,319.3z"/>
			<path class="st2" d="M1637.3,388.1l-34.3-34.4h68.8L1637.3,388.1z"/>
		</g>
	</g>
	<g>
		<g>
			<path class="st1" d="M1706.1,319.3l34.4,34.4l-34.4,34.4l-34.4-34.4L1706.1,319.3z"/>
			<path class="st2" d="M1706.1,388.1l-34.3-34.4h68.8L1706.1,388.1z"/>
		</g>
	</g>
	<g>
		<g>
			<path class="st1" d="M1740.5,353.7l34.4,34.4l-34.4,34.4l-34.4-34.4L1740.5,353.7z"/>
			<path class="st2" d="M1740.5,422.5l-34.4-34.4h68.8L1740.5,422.5z"/>
		</g>
	</g>
	<g>
		<g>
			<path class="st1" d="M1774.8,388.1l34.4,34.4l-34.4,34.4l-34.4-34.4L1774.8,388.1z"/>
			<path class="st2" d="M1774.8,456.9l-34.3-34.3h68.8L1774.8,456.9z"/>
		</g>
	</g>
	<g>
		<g>
			<path class="st1" d="M1774.9,319.3l34.4,34.4l-34.4,34.4l-34.4-34.4L1774.9,319.3z"/>
			<path class="st2" d="M1774.8,388.1l-34.3-34.4h68.8L1774.8,388.1z"/>
		</g>
	</g>
	<g>
		<g>
			<path class="st1" d="M1774.9,456.9l-34.4,34.4l-34.4-34.4l34.4-34.4L1774.9,456.9z"/>
		</g>
	</g>
	<g>
		<g>
			<path class="st1" d="M1706.1,456.9l-34.4,34.4l-34.4-34.4l34.4-34.4L1706.1,456.9z"/>
		</g>
	</g>
	<g>
		<g>
			<path class="st1" d="M1637.3,456.9l-34.4,34.4l-34.4-34.4l34.4-34.4L1637.3,456.9z"/>
		</g>
	</g>
	<g>
		<g>
			<path class="st1" d="M1568.6,456.9l-34.4,34.4l-34.4-34.4l34.4-34.4L1568.6,456.9z"/>
		</g>
	</g>
	<g>
		<g>
			<path class="st1" d="M1499.8,456.9l-34.4,34.4l-34.4-34.4l34.4-34.4L1499.8,456.9z"/>
		</g>
	</g>
	<g>
		<g>
			<path class="st1" d="M1431,456.9l-34.4,34.4l-34.4-34.4l34.4-34.4L1431,456.9z"/>
		</g>
	</g>
	<g>
		<g>
			<path class="st1" d="M1362.3,456.8l-34.4,34.4l-34.4-34.4l34.4-34.4L1362.3,456.8z"/>
		</g>
	</g>
</g>
<rect x="0.9" y="-102.2" class="st0" width="1599.7" height="843.4"/>
</svg>
