<?xml version="1.0" encoding="utf-8"?>
<!-- Generator: Adobe Illustrator 22.1.0, SVG Export Plug-In . SVG Version: 6.00 Build 0)  -->
<svg version="1.1" id="Layer_1" xmlns="http://www.w3.org/2000/svg" xmlns:xlink="http://www.w3.org/1999/xlink" x="0px" y="0px"
	 viewBox="0 0 200 200" style="enable-background:new 0 0 200 200;" xml:space="preserve">
<style type="text/css">
	.st0{fill:#FAAF40;}
</style>
<g id="country_icon.psd_4_">
	<g>
		<path class="st0" d="M5,99.9C5,47.6,47.7,5,100.1,5c52.2,0,95.2,42.9,94.9,95.2c-0.3,52.1-41.5,94.9-95.2,94.8
			C44.8,194.9,4.9,150.3,5,99.9z M101.9,186.4c47.6-0.9,85.3-40.4,84.5-88.4c-0.8-47.6-40.5-85.2-88.8-84.3
			c-47.1,0.9-84.8,40.5-84,88.2C14.4,149.5,53.9,187.3,101.9,186.4z"/>
		<path class="st0" d="M121.1,136.6c0.8,0.8-0.1,2.5,1.6,3c-1.7-0.6-3.2,0-4.6,0.4c-0.4,0.1-1.2,0.2-1.4,0c-2-3-5-0.8-7.4-1.6
			c-0.5-0.2-1.2-0.1-1.7,0.2c-3.3,2-6.5,4.1-9.7,6.3c-0.6,0.4-0.6,1.3-0.6,2c0,1.5,0,3,0,5c-2.9-1.4-5.9-1.6-6.8-5.6
			c-0.5-2.4-2.4-4.6-3.8-6.9c-1.7-2.6-4.3-2.5-6.2-0.1c-0.5,0.6-0.8,0.8-1.6,0.5c-1.9-0.9-3.4-1.9-3.7-4.3c-0.4-3.2-6.1-7.6-8.5-6.3
			c-3.9,2.2-7.2,0.3-10.6-0.6c-2.8-0.8-5.2-2.6-7.5-4.3c-1.9-1.5-4-1.9-6.2-2.2c-1-0.1-2-0.1-2.2-1.4c-0.7-3.7-3.8-5.4-6.5-7.3
			c-0.8-0.6-1.5-0.8-1.1-1.9c0.2-0.7,0.1-1.5-0.4-2.1c-1.9-2.6-1.7-5.7-2.2-8.7c-0.2-1.1-0.4-2.2-0.9-3.2c-0.8-1.4-0.4-3-0.7-4.4
			c-1-3.7,2.6-6.5,1.6-10c-0.1-0.5,0.2-1.1,0.5-1.6c3.1-5.5,5.9-11.1,4.8-17.8c1.3,0,1.9,0.9,2.8,1.1c1.1,0.3,2.2,0.8,2.5-1.1
			c0.3-1.7,1.6-0.7,2.3-0.5c8.6,2.2,17.3,4,26,5.4c10.6,1.7,21.3,2.5,32,2.4c1,0,2.1,0.5,2.8-0.8c0.5-0.8,0.7,0.1,0.9,0.4
			c0.6,1.4,1.8,1.5,3.1,1.7c2.9,0.5,5.7,1.7,8.9,1.6c-1.9,1.2-3.7,2.2-4.6,4.1c3.1,1.6,5.3-0.3,7.6-1.8c0.3-0.2,0.6-0.6,0.9,0.3
			c0.7,1.8,2.4,2.5,4.3,1.7c1.6-0.7,3.1-0.5,4.7-0.2c0.9,0.2,1,0.7,1.1,1.3c0,0.7-0.7,0.5-1.1,0.5c-1.7,0-3.4,0.5-4.9,1.1
			c-1.7,0.6-2,1.8-1.5,3.7c0.2,0.7-0.2,1.6-0.3,2.4c-0.4,2.5-0.8,5,0.5,7.3c0.9,1.6,1.8,1.4,2.6,0c0.8-1.3,0.9-2.9,0.3-4.2
			c-1-2-0.3-3.8,0-5.6c0.1-0.5,0.6-1.4,0.8-1.3c1.8,0.2,1.4-3.6,4.1-2c2.1,1.2,2.6,2.7,1.2,5.9c0.7,0.4,0.9-0.3,1.3-0.6
			c0.5-0.5,1.1-0.5,1.3,0.1c0.6,1.8,1.9,3.7,0.3,5.7c-0.4,0.5-1.3,1.2-0.8,1.8c0.5,0.6,1.6,0.9,2.5,0.6c3-1,5.6-2.9,7.7-5.3
			c0.1-0.1,0.3-0.3,0.2-0.4c-0.8-3.1,1.8-2.3,3.2-2.8c1.7-0.6,3.7-0.3,2.9-3.4c-0.4-1.5,1.4-3.4,3.3-4c1.6-0.5,3.3-0.9,4.9-1.3
			c3-0.7,4.2-2.2,4.2-5.2c0-1.1,0.4-2.1,0.5-3.1c0.3-1.9,1.9-1.7,3.1-2c1.1-0.2,1.6,0.9,1.8,1.9c0.4,1.8,1.2,3.3,2.7,4.3
			c1.2,0.8,0.9,1.6,0.1,2.4c-1.4,1.4-3,2.6-4.5,3.9c-2.6,2.2-2.3,6,1.1,7.6c-2,1-3.7,2.3-5.7,3c-2.2,0.8-3.7,2-3,4.9
			c0.4,1.6,0.3,3.8-2.6,4c2,2.2,0.5,4.4,0.3,6.7c-0.2,0.1-0.4,0.1-0.6,0.2c-0.2,0.1-0.5,0.1-0.5,0.3c-0.1,0.4,0.2,0.5,0.5,0.5
			l-0.1,0c0.3,1.2,1.4,1.9,1.7,3.1c0.3,1.2,0.6,2.4-0.8,2.9c-1.5,0.5,0.4,2.1-1,2.6c-1,0.4-1.9,1.1-2.7,2c-1.9,2-3.2,4.4-5,6.3
			c-4,4.2-4.4,8.4-0.9,13c1.9,2.5,2.8,5.5,4,8.4c0.5,1.1,0.4,2.4,0.1,3.6c-0.3,1.5-1.7,1.9-2.5,1.1c-2.3-2.2-5.2-4.1-6.4-7.3
			c-0.3-0.7-0.6-1.4-0.5-2.1c0.2-1.7-0.5-2.7-1.9-3.8c-1.7-1.4-3-2.4-4.9-0.6c-0.6,0.5-1.4,0.4-2-0.1c-1.4-1.3-3-1.3-4.7-1
			c-1.9,0.3-3.9-0.1-5.8,0.4C122.3,135.7,121.2,135.4,121.1,136.6c-0.1,0.1-0.1,0.1-0.2,0.2c0,0,0.1,0,0.1,0
			C121,136.8,121,136.7,121.1,136.6z M154,99.6c-0.8,2.2,0.4,3.5,1,4.9c0.2,0.4,0.7,0.5,1,0.2c0.3-0.3,0.4-0.9,0-1.1
			C154.4,102.9,154.9,101.1,154,99.6z"/>
		<path class="st0" d="M156.4,106.4c0.2-0.1,0.4-0.1,0.6-0.2c0.5,0.9-0.2,0.8-0.7,1c0,0,0.1,0,0.1,0
			C156.4,106.9,156.4,106.6,156.4,106.4z"/>
		<path class="st0" d="M154,99.6c0.9,1.5,0.4,3.3,2.1,4c0.4,0.2,0.3,0.8,0,1.1c-0.3,0.3-0.8,0.2-1-0.2
			C154.4,103.1,153.3,101.8,154,99.6z"/>
	</g>
</g>
</svg>
