<?xml version="1.0" encoding="utf-8"?>
<!-- Generator: Adobe Illustrator 22.1.0, SVG Export Plug-In . SVG Version: 6.00 Build 0)  -->
<svg version="1.1" id="Layer_1" xmlns="http://www.w3.org/2000/svg" xmlns:xlink="http://www.w3.org/1999/xlink" x="0px" y="0px"
	 viewBox="0 0 1000 103" style="enable-background:new 0 0 1000 103;" xml:space="preserve">
<style type="text/css">
	.st0{fill:#FFDD15;}
</style>
<g>
	<g>
		<g>
			<polygon class="st0" points="52.6,43.5 21.9,43.5 21.9,7 4.5,7 4.5,96 21.9,96 21.9,60.2 52.6,60.2 52.6,96 69.9,96 69.9,7 
				52.6,7 			"/>
			<polygon class="st0" points="137.1,7 131.1,7 131.1,96 137.1,96 147.8,96 190.6,96 190.6,80.4 147.8,80.4 147.8,59.9 183.9,59.9 
				183.9,43.7 147.8,43.7 147.8,23.2 190.6,23.2 190.6,7 147.8,7 			"/>
			<polygon class="st0" points="287,67 270,7 247.9,7 247.9,96 263.2,96 263.2,34 279.6,86.1 294.4,86.1 310.7,32.9 310.7,96 
				326,96 326,7 303.9,7 			"/>
			<path class="st0" d="M437.5,10.4c-4.2-2.3-9.1-3.4-14.7-3.4h-18.9h-9.1h-7.7V96h16.8V61.5h18.9c5.6,0,10.5-1.1,14.7-3.4
				c4.2-2.2,7.5-5.4,9.8-9.5c2.3-4.1,3.5-8.9,3.5-14.3s-1.2-10.2-3.5-14.3C444.9,15.9,441.7,12.7,437.5,10.4z M430.6,42.3
				c-1.9,2-4.3,3-7.4,3h-19.3V23.2h19.3c3.1,0,5.5,1,7.4,3.1s2.8,4.7,2.8,8.1C433.4,37.6,432.4,40.3,430.6,42.3z"/>
		</g>
		<g>
			<polygon class="st0" points="608.4,66.4 589.5,7 572.3,7 601.9,96 615,96 644.6,7 627.3,7 			"/>
			<path class="st0" d="M716.3,7l-34,88.9h16.5l5.1-14.2h35.4l5.1,14.2h16.5L726.9,7H716.3z M709.4,66.2l12.2-34l12.2,34H709.4z"/>
			<path class="st0" d="M866.3,10.4c-4.2-2.3-9.1-3.4-14.7-3.4h-18.9h-9.1H816V96h16.8V61.5h18.9c5.6,0,10.5-1.1,14.7-3.4
				c4.2-2.2,7.5-5.4,9.8-9.5c2.3-4.1,3.5-8.9,3.5-14.3s-1.2-10.2-3.5-14.3C873.8,15.9,870.5,12.7,866.3,10.4z M859.4,42.3
				c-1.9,2-4.3,3-7.4,3h-19.3V23.2H852c3.1,0,5.5,1,7.4,3.1s2.8,4.7,2.8,8.1C862.2,37.6,861.3,40.3,859.4,42.3z"/>
			<polygon class="st0" points="995.5,23.2 995.5,7 952.7,7 942,7 935.9,7 935.9,96 942,96 952.7,96 995.5,96 995.5,80.4 
				952.7,80.4 952.7,59.9 988.8,59.9 988.8,43.7 952.7,43.7 952.7,23.2 			"/>
		</g>
	</g>
</g>
</svg>
