<?xml version="1.0" encoding="utf-8"?>
<!-- Generator: Adobe Illustrator 22.1.0, SVG Export Plug-In . SVG Version: 6.00 Build 0)  -->
<svg version="1.1" id="Layer_1" xmlns="http://www.w3.org/2000/svg" xmlns:xlink="http://www.w3.org/1999/xlink" x="0px" y="0px"
	 viewBox="0 0 200 200" style="enable-background:new 0 0 200 200;" xml:space="preserve">
<style type="text/css">
	.st0{fill:#FAAF40;}
</style>
<g>
	<path class="st0" d="M195,100.2c0.8,49.2-39.9,94.8-95,94.8c-52.5,0-95-42.6-95-95.3C5,47.3,47.7,4.9,100.3,5
		C155,5.1,195.9,50.5,195,100.2z M186.6,100c0-47.8-38.8-86.5-86.6-86.4c-47.8,0-86.5,38.7-86.5,86.5c0,47.8,38.7,86.5,86.6,86.5
		C147.9,186.4,186.6,147.7,186.6,100z"/>
	<path class="st0" d="M170.6,74.2c-1.7,3.2-4.6,5.3-7.5,7.4c0.7,0.8,1.6,0.1,2.4,0.8c-1,2.2-2.8,3.6-5.2,4.5
		c0.2,0.2,0.3,0.4,0.5,0.6c0.7,0.5,2.3,0.4,2.2,1.4c-0.1,1.1-1.4,1.6-2.4,2.2c-2.1,1.2-4.6,0.9-7.2,1.6c2.1,0.6,3.9,1.1,6,1.7
		c-2.2,3-5.3,3.5-8.4,3.9c0,0.6,0.5,0.7,0.8,0.9c0.8,0.6,2.3,0.9,2.2,1.9c-0.2,1.2-1.7,1.5-2.8,1.9c-1.7,0.7-3.4,0.5-5.3,0.5
		c0.2,0.9,1,1.3,1.6,1.6c1.9,1.2,1,1.8-0.4,2.5c-2.1,1-4.4,0.5-6.6,0.2c-0.1,0.6,0.3,0.7,0.6,1c0.6,0.7,2.1,1.1,1.8,2
		c-0.3,1.1-1.7,1.3-2.7,1.6c-1.5,0.4-3.1,0.5-5,0.8c0.9,0.8,1.4,1.3,2.1,1.9c-2.5,1.7-5.1,1.8-8.3,1.2c1.1,1.1,1.9,1.8,2.8,2.6
		c-2.8,1.5-5.6,1.6-9,1.2c2.7,2.2,1.1,2.8-0.7,3.4c-1.8,0.6-3.7,0.8-5.9,0.9c1.7,2,0.4,2.2-1,2.5c-1.2,0.2-2.5,0.4-3.7,0.9
		c-0.7,0.3-2.3,0.2-1.4,2c0.3,0.5-0.9,0.9-1.5,1.3c-2.2,1.4-4.6,2.4-6.7,4.6c0.8-0.1,1.3,0,1.5-0.2c2.1-2,5.3-2.2,7.3-4.3
		c0.3-0.3,0.8-1.5,1.5-0.1c0.4,0.8,1,0,1.3-0.3c1.1-0.7,2.1-1.5,3.1-2.2c0.5-0.4,1.3-1.4,1.5,0.4c0.1,1,0.8,0.3,1.2,0.1
		c1.4-0.8,2.9-1.7,4.3-2.5c0.7,0.7,0.1,1.5,0.4,2.2c0.2,0,0.4,0,0.6-0.1c0.9-0.4,1.7-0.9,2.5-1.3c2.4-0.9,2.5-0.8,2.5,1.9
		c1.2-0.7,2.1-1.7,3.4-2c1.4-0.3,2.6-0.5,2.2,1.8c1.1-0.5,1.9-0.9,2.8-1.2c1-0.4,2.1-0.8,3-0.2c0.7,0.6-0.3,1.6-0.1,2.6
		c2-0.6,3.9-1.7,6.1-1.2c0.4,0.9-1.2,1.6-0.4,2.6c0.9,0.2,1.3-0.7,2-1c1.1-0.3,2.3-0.8,3.2-0.2c1,0.6-0.6,1.7,0,2.7
		c1.7-1,3.6-1.4,5.5-0.6c0.8,0.3-0.2,1.1,0.1,1.7c3.4-0.3,6.5,0.4,10,2.1c-3.5,0.8-6.4,2-9.4,1.4c-0.7,1,1,1.9-0.1,2.5
		c-1.4,0.8-2.8,0.1-4.3-0.8c0,1.6-0.2,3-2.2,1.8c-0.3-0.2-0.9-0.3-1,0.2c-0.4,3.1-2.3,1.1-3.6,1c-0.6,0-1-1.3-1.8-0.6
		c-0.6,0.5,0,1.2,0.3,1.7c0.8,1.4-0.2,1.2-1,1.2c-2.5,0-4.5-1.2-6.4-2.8c-0.6,0.7-0.3,1.3-0.3,1.9c0.1,0.6,0.8,1.3,0.2,1.7
		c-0.7,0.5-1.5-0.1-2.2-0.5c-1.1-0.7-2-1.4-3.1-2.2c-0.4,2.6-0.7,2.8-3,1.4c-1-0.6-1.9-1.4-2.8-2.2c-0.4,0.9,0.2,1.6,0.1,2.5
		c-2.4,0.1-3.9-1.3-5.4-3.1c-0.2,0.8-0.4,1.4-0.7,2.3c-1-0.7-1.8-1.5-2.8-1.9c-0.9-0.4-1.5-2.3-3-0.6c-0.3,0.4-1-0.5-1.5-0.9
		c-1-0.6-2-1.3-3-2c-2.4,0.2-4.2-2.3-7.1-1.7c1.2,0.5,2.2,0.9,3.1,1.3c1,0.3,1.8,1,2.9,1c-0.1,1.4,0.8,1.9,1.8,2.6
		c0.3,0.2,2.9,0.2,0.8,1.8c-0.4,0.3,0.2,0.6,0.5,0.9c0.8,0.6,1.5,1.1,2.3,1.7c0.2,0.2,0.6,0.6,0.6,0.7c-2.4,2.4,0.9,3,1.4,4.4
		c1.1,3.2,1,6.6,1.3,9.9c-2.1-2.2-3.9-4.5-5.2-7.1c-0.3-0.6-0.2-1.6-1.3-0.5c-0.7,0.7-0.9-0.2-1.2-0.6c-1.1-1.3-1.6-2.7-1.4-4.4
		c-1.5-0.2-1.2,1.6-2.4,1.9c-0.7-1.9-1.4-3.8-2.1-5.8c-1.5,1.5-2.2,1.4-2.6-0.7c-0.4-2-1.6-3.8-1.1-6c0.1-0.5,0.1-1.1-0.4-1.4
		c-0.4-0.1-0.6,0.2-0.5,0.3c0.6,2.6-1.2,4.6-1.4,7c-0.1,0.6-0.5,1.5-1.1,1.8c-0.9,0.4-0.6-1.2-1.6-1.1c-0.7,1.9-1.4,3.8-2.1,5.8
		c-1-0.3-0.9-1.3-1.8-1.7c-0.8,1-1,2.4-1.7,3.5c-0.4,0.6-0.1,2.5-1.9,1c-0.7-0.6-0.9,0.6-1.2,1c-1.3,2.5-3,4.6-4.6,6.9
		c-0.7-0.3-0.7-0.8-0.7-1.3c-0.1-2.2,1.2-4.1,0.7-6.5c-0.3-1.2,1.7-2.9,2.6-4.4c0.3-0.5,1.7-1.2-0.1-1.9c-0.6-0.2,0-0.6,0.3-0.8
		c0.7-0.6,1.5-1.1,2.3-1.7c0.3-0.2,0.8-0.8,0.8-0.8c-2.1-2.2,0.8-2,1.4-2.4c1.1-0.7,1-1.3,0.6-2.2c2.2-0.7,4.3-1.5,6.5-2.1
		c0.7-0.2,1-0.6,1.1-1.3l0,0c0.8-0.3,0.6-0.9,0.2-1.3c-0.9-0.8-1.7-1.6-3-1.6l0,0c-0.6-1.2-2.1-1.3-3-2.1c-0.7-0.7-2.7-0.4-1.8-2.4
		c0-0.1-0.7-0.5-1.1-0.7c-1.2-0.6-2.6-0.8-3.9-1c-1.4-0.3-3.7-0.3-1-2.7c-2.5,0-4.5-0.4-6.4-0.9c-2.1-0.6-2.3-1.5-0.9-3
		c0.1-0.1,0.2-0.2,0.3-0.3c-0.1,0-0.1,0-0.2,0c0,0.1,0,0.2,0,0.3c-2.8-0.1-5.7,0-8.5-1.5c0.8-0.7,1.4-1.3,2.5-2.3
		c-2.9,0-5.6,0.2-8-1.7c0.7-0.4,1.4-0.7,2.3-1.2c-1.7-1.4-3.2-0.8-4.4-1.3c-1.2-0.4-2.9-0.5-3.3-1.6c-0.5-1.3,1.6-1.4,2.1-2.7
		c-2.8-0.1-5.7,0.4-8.1-1.9c1.1-0.9,2.1-1.7,3.4-2.8c-1.9-0.4-3.6,0.1-5.2-0.5c-0.4-0.2-0.9-0.2-1.3-0.5c-0.7-0.4-1.9-0.9-2-1.5
		c-0.2-0.9,1.1-1.1,1.8-1.6c0.4-0.4,1-0.4,1.3-1.2c-3.2-0.3-6.2-1-8.5-3.9c2.1-0.6,4.1-1.1,6.5-1.8c-2.8-0.4-5-0.4-7.1-1.3
		c-1.2-0.5-2.7-1.1-2.8-2.3c-0.2-1.2,1.8-0.9,2.6-2c-2.1-0.9-3.9-2.2-5-4.3c0.5-0.8,1.5-0.1,2.3-0.8c-2.8-2.6-5.6-5.1-8.4-7.6
		c3.1,0.1,5.6,1.7,8.2,3.1c0.8,0.4,1.6,2.6,3.2,0.3c0.4-0.6,2.4,0.6,3.5,1.5c0.8,0.7,1.6,2.3,2.4-0.1c0.2-0.7,0.8-0.3,1.2-0.1
		c2.1,0.7,3.5,2.2,4.2,4.2c0.3,0.7,0.4,1.5,0.8,2.7c0.3-1.6,0.6-2.6,0.7-3.7c0.2-2,1.1-1.5,2.2-0.7c1.8,1.3,2.2,3.4,2.7,5.4
		c0.7-0.3,0.8-0.9,1.1-1.3c1.3-2.2,2.1-2.2,3.5,0c0.9,1.5,1,3.2,1.1,5c1-0.5,1-1.4,1.4-2.1c1-2.1,1.3-2.1,2.7-0.2
		c1.5,2.1,1.8,4.5,2,7.1c0.4-0.7,0.7-1.5,1.2-2.2c0.4-0.6,0.4-1.7,1.2-1.6c0.5,0.1,1,0.9,1.4,1.5c1,1.3,0.8,3,1,4.5
		c0.3,0,0.5,0.1,0.6,0c1.6-2,2.5-1.2,3.1,0.7c0.4,1.2,0.7,2.4,1,3.6c1.1,0.1,1.1-1.1,2-1.3c1.9,1.9,1.8,4.5,1.7,7.1
		c2.4-1.7,2.8-1.5,3.8,1.2c0.4,1.2,0.3,2.5,0.4,3.7c0.4,0.3,0.6,0.1,0.8-0.2c1.3-1.9,1.8-0.7,2.1,0.6c0.2,0.9,0.3,1.9,0.4,2.8
		c0.1,0.9,0,1.9,0,2.8c1,0.4,1.1-0.9,2-0.9c0.2,0.5,0.3,1.1,0.5,1.7c0.8,2-0.1,4.4,2.4,6.1c1.3,0.9,1.5,3.6,2.2,5.4
		c0.5,1.2,1.1,2.4,1.9,3.6c0.2-1.9-0.5-3.6-1.1-5.3c-0.7-1.9-1.4-3.7-2.1-5.6c-0.2-0.7-1.2-1.5,0.5-1.8c0.9-0.1,0.1-0.9-0.1-1.3
		c-0.9-2.1-1.9-4.2-2.9-6.3c0.5-0.7,1.4-0.1,2.1-0.9c-2-2-4-4.1-5.2-7c1.6-0.5,3,0.3,4.8,0.1c-2.8-2.8-6.5-4.4-8-8.2
		c1-0.6,2.2,0,3.5-0.5c-2-1.8-4-3.5-5.1-5.9c-0.3-0.6-1.1-1.2-0.6-1.9c0.4-0.6,1.2,0,1.8,0c1.2,0.1,2.4,0.3,4.3,0.6
		c-3.4-2.4-5.5-4.9-5.2-8.8c1.9,0.1,3.3,1.6,5.4,1.5c-2.6-2.9-4.7-5.8-4.9-9.9c1.8,0.6,3.5,1,5.1,1.5c0.2,0,0.3,0.1,0.5,0.1
		c-0.1-0.1-0.1-0.3-0.2-0.4c-1.9-2-3.7-4-4.5-6.8c-0.2-0.7-0.8-1.6-0.1-2.2c0.3-0.3,1.3,0.2,2,0.4c0.5,0.1,0.9,0.2,1.4,0.3
		c0.2,0,0.3,0,0.5,0c-0.1-0.1-0.2-0.2-0.2-0.3c-0.8-2-2.7-3.6-2.7-5.9c0-0.9-0.3-1.7-0.1-2.6c1.3,0,2.2,0.9,3.3,1.3
		c0.4,0.1,0.8,0.4,1.1,0.1c0.5-0.4,0.1-0.8-0.2-1.2c-1.2-2-2-4.1-2-6.5c0-1.4,0.2-2,1.7-1.1c0.9,0.5,1.9,1,3.4,1.7
		c-1.5-3.3-2.2-6.2-1.6-9.3c1.1-0.2,1.7,1.1,3.1,1c0-1.2-0.1-2.4,0-3.6c0.1-0.7-1-2.5,1.3-2.1c0,0,0.2-0.8,0.3-1.3
		c0.5-3.1,0.9-6.1,1.4-9.2c0.1-0.6-0.1-1.3,0.8-1.8c1.5,3.5,1.9,7.1,2,10.9c0,0.5-0.9,2.3,1.2,1.3c0.5-0.3,0.6,0.6,0.7,1
		c0.2,1.4,0.1,2.9-0.1,4.3c-0.1,0.2-0.1,0.4-0.2,0.6c0.2,0,0.4,0,0.6-0.1c0.9-0.1,1.5-1,2.5-0.9c1.2,3.1,0,5.8-1.5,9.1
		c2-0.9,3.5-1.6,5.2-2.4c0.1,3.9-1.1,7-3.3,9.8c0,0.2-0.1,0.4-0.1,0.5c0.2-0.1,0.3-0.1,0.5-0.2c1.7-0.7,3.3-1.3,5.1-2.1
		c0.2,3.5-1.1,6.3-3.2,8.6c0.4,0.6,0.8,0.4,1.1,0.3c1-0.2,2.2-1.2,2.8-0.6c0.8,0.8-0.2,2-0.5,3.1c-0.8,2.3-2.5,4-4.1,5.7
		c-0.2,0.1-0.5,0.2-0.3,0.4c0.1,0.1,0.4,0,0.6,0c0.9-0.3,1.8-0.6,2.7-0.8c0.7-0.2,1.5-0.9,2-0.4c0.7,0.7,0.2,1.6-0.1,2.5
		c-0.9,2.7-2.9,4.7-4.8,6.8c1.7,0.5,2.8-0.5,4.1-1c1.4-0.5,1.7,0,1.5,1.2c-0.3,2.1-1.3,3.9-2.9,5.4c-0.5,0.5-1.4,0.8-1.7,1.6
		c1.1,0.3,2-0.2,3-0.3c0.7-0.1,1.6-0.5,2,0.1c0.5,0.7-0.1,1.5-0.5,2.2c-0.9,1.8-2.3,3.2-3.9,4.4c-0.4,0.3-0.8,0.7-1.4,1.1
		c0.4,0.2,0.6,0.3,0.8,0.3c0.9,0.1,2.3-0.6,2.6,0.2c0.4,1-0.7,2-1.4,2.8c-1.7,2-4.1,3.2-6.2,5.2c1.7,0.5,3.1-0.2,4.7,0
		c-1.1,3.1-3.3,5.1-5.4,7.2c-0.2,0.1-0.6,0.1-0.4,0.5c0,0.1,0.5,0,0.8-0.1c0.6,0,1.2-0.1,2-0.1c-0.2,0.5-0.3,0.9-0.5,1.2
		c-3.5,5.4-3.4,12-5.7,17.8c-0.2,0.4-0.3,0.9,0.2,1.5c1.5-2.1,1.9-4.5,2.8-6.7c0.4-1-0.2-3,2-2.7c0.1,0,0.2-0.7,0.3-1
		c0.3-1.6,0.7-3.3,0.9-4.9c0.3-2,1-0.8,1.8-0.1c0.5-2.7,0.4-5.3,1.7-7.6c1,0,1.1,1.2,2.1,1.4c-0.2-2.6,0.4-4.8,2-6.6
		c0.9,0.3,0.9,1.4,1.8,1.9c0.2-2-0.1-3.8,0.9-5.6c1.2-2,1.1-2.1,3.1-0.3c0.5-1.5,1.1-2.8,1.5-4.3c0.6-2.1,1.3-2.1,2.4-0.4
		c0.1,0.2,0.3,0.3,0.5,0.4c0.8-0.2,0.6-0.8,0.7-1.3c0.1-0.8,0-1.6,0.3-2.4c0.3-1,0.9-2.2,1.8-2.4c1.2-0.2,1,1.3,1.6,2
		c0.4,0.5,0.6,1.1,1,1.6c0-3.4,0.7-6.4,3.5-8.8c0.7,1.4,1.3,2.7,2.1,4.4c0.6-1.8,0.4-3.4,1.2-4.7c0.5-0.9,1.1-2,2.1-2.1
		c1.2-0.2,1.2,1.3,1.7,1.9c0.3,0.4,0.5,0.8,1.1,1.9c0.2-3,1-5,2.9-6.4c0.9-0.7,1.6-1.1,1.8,0.6c0.1,1.2,0.5,2.3,0.8,4
		c0.8-1.9,0.9-3.5,1.9-4.7c0.9-1.1,1.9-1.9,3.3-2.3c0.4-0.1,1-0.4,1.1,0.4c0.4,2.5,1.3,0.9,2,0.3c0.8-0.8,1.8-1.4,2.8-1.7
		c0.4-0.1,1.1-0.5,1.3,0c0.6,1.8,1.3,0.6,2,0.1C165,76.2,167.6,74.6,170.6,74.2L170.6,74.2z M89.4,123.5c0-0.1,0-0.1,0-0.2
		c0,0-0.1-0.1-0.1-0.1C89.4,123.2,89.4,123.3,89.4,123.5c0.1,0,0.1,0.1,0.2,0.1c0,0,0.1,0,0.1,0C89.6,123.5,89.5,123.5,89.4,123.5z
		 M112.8,120.4c-0.1,0.2-0.3,0.3-0.4,0.5c-0.2,0.3-0.5,0.5-0.7,0.8c-0.1,0.2-0.3,0.4-0.4,0.5c-0.2,0.2-0.4,0.3-0.6,0.5
		c0.4,0.2,0.7,0.2,0.9-0.3c0.2-0.2,0.3-0.3,0.5-0.5c0.3-0.3,0.5-0.5,0.8-0.8c0.2-0.2,0.3-0.3,0.5-0.5c0.1-0.1,0.3-0.3,0.4-0.4
		c6.2-6.1,12.5-11.9,19.3-17.3c6.1-4.8,12.2-9.6,18.3-14.4c0.1-0.2,0.2-0.3,0.2-0.5c-0.2,0-0.4,0-0.6,0c-7.3,4.7-14.2,9.9-20.9,15.5
		c-6,5-11.8,10.2-16.7,16.2C113.1,120.1,112.9,120.3,112.8,120.4z M109.3,144.2c0.2,0.2,0.3,0.5,0.6,0.1c0,0-0.2-0.3-0.3-0.4
		c-0.2-0.2-0.3-0.3-0.5-0.5c-0.2-0.2-0.3-0.3-0.5-0.5c-0.1-0.4-0.4-0.4-0.7-0.4c-0.1,0-0.2,0.1-0.2,0.1c0.1,0.4,0.4,0.4,0.7,0.4
		c0.1,0.2,0.3,0.4,0.4,0.5C109,143.8,109.2,144,109.3,144.2z M91.1,144.1c0.3-0.1,0.4-0.3,0.3-0.6c0.1,0,0.3-0.1,0.4-0.1
		c-0.1-0.1-0.1-0.2-0.2-0.2c-0.1,0.1-0.1,0.2-0.2,0.4c-0.3,0-0.5,0.1-0.5,0.4c-0.2,0.2-0.3,0.3-0.5,0.5c-0.2,0.3-0.5,0.5-0.7,0.8
		c-0.3,0.4-0.5,0.7-0.8,1.1c-0.5,0.3-0.8,0.8-1,1.4c-0.6,0.5-0.9,1.1-1,1.8c-0.2,0.1-0.4,0.4-0.2,0.5c0.3,0.2,0.3-0.1,0.3-0.3
		c0.7-0.4,0.8-1.1,1.2-1.7c0.3-0.5,0.7-0.9,1-1.4c0.3-0.4,0.5-0.8,0.8-1.2c0.2-0.3,0.4-0.5,0.6-0.8C90.8,144.5,91,144.3,91.1,144.1z
		 M88.5,122c-0.2-0.2-0.3-0.3-0.5-0.5c-0.1-0.2-0.1-0.5-0.3-0.6c-10.5-12.2-22.3-22.8-35.7-31.6c-0.4-0.2-0.8-0.5-1.2-0.7
		c-0.2-0.4-0.5-0.5-0.8-0.2c0.2,0.2,0.4,0.3,0.6,0.5c0.4,0.3,0.7,0.5,1.1,0.8c0.2,0.2,0.4,0.5,0.6,0.7c12.2,9.3,23.7,19.4,34.4,30.4
		c0.3,0.4,0.6,1,1.3,0.8C88,121.9,88.1,122.1,88.5,122c-0.1,0.2-0.1,0.4,0.3,0.3C88.7,122.2,88.6,122.1,88.5,122z M86.2,151.1
		c-0.2,0.2-0.6,0.3-0.1,0.6C86.1,151.5,86.1,151.3,86.2,151.1c0.1-0.1,0.2-0.1,0.3-0.2c-0.1-0.1-0.1-0.2-0.2-0.2
		C86.3,150.9,86.2,151,86.2,151.1z M110.7,145.1c-0.2-0.2-0.4-0.5-0.6-0.1c0,0.1,0.2,0.3,0.3,0.5c0.3,0.4,0.5,0.8,0.8,1.1
		c0.3,0.5,0.6,0.9,1,1.4c0.3,0.2,0,1.1,0.6,0.9c0.3-0.1,0.2-0.8-0.3-1.2c-0.1-0.6-0.4-1.1-1-1.4C111.3,145.9,111,145.5,110.7,145.1z
		 M101.1,43.4c-0.2,0-0.4,0-0.6,0c-1.7,27.1-3,54.2-0.1,81.3C100.6,97.6,100.8,70.5,101.1,43.4z M146.6,135.4c-5-1.4-29-1.4-33,0
		C124.6,135.4,135.3,135.4,146.6,135.4z"/>
	<path class="st0" d="M90.4,138.5c-1.9-0.2-2.7,1.6-4.1,2.2c-0.5,0.2-1.3,1.9-1.7-0.2c-0.1-0.6-0.6,0-0.9,0.1
		c-0.9,0.6-1.7,1.2-2.5,1.8c-1.9,1.4-1.9,1.4-2.6-1c-1.4,1.7-2.9,3-5.3,3.1c0-0.7-0.1-1.4-0.1-2.3c-1.9,1.1-3.5,2.1-5.2,3.2
		c-0.7-0.8-0.1-1.7-0.6-2.5c-1.1,0.7-2.1,1.5-3.2,2.2c-0.5,0.3-1.3,0.7-1.7,0.5c-0.7-0.3-0.1-1.1-0.1-1.7c0-0.5,0.1-1.1,0.2-2
		c-2.7,1.3-5,3.1-7.8,2.5c-0.5-1.1,1.4-1.8,0.5-2.6c-0.8-0.7-1.9,0.3-2.9,0.4c-0.8,0.1-1.7,0.4-2.4,0.6c-0.7-0.8,0.3-1.4-0.2-2.3
		c-0.9,0.3-1.8,0.5-2.8,0.8c-0.6-0.6-0.1-1.4-0.5-2.1c-1.1,0.1-2.1,1-3.3,0.8c-2.2-0.4-0.5-1.6-0.6-2.7c-3-0.4-6-0.9-9.5-1.4
		c2.5-2,5.1-2.3,7.7-2.4c0.9-0.1,2.1,0.7,2.3-1.3c0.1-0.9,1.6-0.7,2.5-0.8c1.1,0,2,0.6,2.9,1c0.1-0.1,0.3-0.2,0.3-0.3
		c0.2-0.8-1-1.8,0-2.3c1-0.5,2.2-0.1,3.2,0.3c0.7,0.3,1.1,1.5,2,0.7c0.6-0.5-0.2-1.1-0.5-1.6c-0.4-0.9,0.3-0.9,0.8-0.9
		c1.8-0.1,3.4,0.6,4.9,1.4c1-0.9-0.8-2.3,0.4-2.8c1.3-0.5,2.6,0.2,3.9,0.8c0.5,0.2,1,0.5,1.5,0.8c0.8-2.6,1.9-2.6,5.9,0.2
		c0.1-2.5,0.3-2.7,2.8-1.7c0.9,0.4,1.7,0.9,2.5,1.4c0.2,0.1,0.3,0.1,0.5,0.2c0-0.2-0.1-0.4-0.1-0.6c-0.2-1.1-0.1-1.9,1.4-1.3
		c1.6,0.6,2.8,1.7,4.4,2.9c-0.1-1.9,0.5-2.3,1.9-1.2c0.9,0.7,1.8,1.3,2.7,2c0.5,0.4,1,1.4,1.6-0.1c0.4-0.8,1,0.2,1.4,0.5
		c1.7,1,3,3,5.4,2.2c0,0,0,0,0,0c0,1.9,2.2,1.7,2.9,2.9c0,0,0,0,0,0C95.2,135.9,93,137.7,90.4,138.5z M89.1,134.7
		c-7.2-1.5-29.5-1.1-35.7,0.7C65.2,135.2,76.9,135,89.1,134.7z"/>
	<path class="st0" d="M170.6,74.2c0.1-0.1,0.1-0.2,0.2-0.3C171.1,74.2,170.8,74.2,170.6,74.2C170.6,74.2,170.6,74.2,170.6,74.2z"/>
</g>
</svg>
