<?xml version="1.0" encoding="utf-8"?>
<!-- Generator: Adobe Illustrator 22.1.0, SVG Export Plug-In . SVG Version: 6.00 Build 0)  -->
<svg version="1.1" id="Layer_1" xmlns="http://www.w3.org/2000/svg" xmlns:xlink="http://www.w3.org/1999/xlink" x="0px" y="0px"
	 viewBox="0 0 200 200" style="enable-background:new 0 0 200 200;" xml:space="preserve">
<style type="text/css">
	.st0{fill:#FAAF40;}
</style>
<g>
	<path class="st0" d="M89.7,195c-0.6-1-1.6-0.7-2.5-0.8c-43-6-76.5-40.1-81.6-83.1c-5.9-50.8,29.5-97,80-105
		c48-7.6,99.4,24.4,108.2,79.3C202,136.5,167,185,116,193.7c-2.1,0.4-4.3,0.1-6.2,1.3C103.1,195,96.4,195,89.7,195z M13.5,100.1
		c0,47.6,38.7,86.4,86.3,86.4c47.7,0.1,86.6-38.6,86.6-86.3c0-47.8-38.6-86.5-86.4-86.5C52.3,13.6,13.5,52.3,13.5,100.1z"/>
	<path class="st0" d="M170.2,128.6c0,11.2-7.5,18.7-17,18.8c-9.6,0-17.2-7.4-17.2-16.9c0-1.6-0.5-2.5-1.8-3.4c-6-3.9-12-7.8-18-11.8
		c-1.2-0.8-2-1.1-3.1,0.1c-2.1,2.2-4.8,3.5-7.7,4.1c-1.3,0.3-1.7,0.9-1.5,2.1c0.1,0.4,0.2,0.8,0.1,1.2c-0.2,3,0.6,4.7,4,5.7
		c4.9,1.5,7.4,6.9,6.5,12.1c-0.8,5-5.1,8.8-10.4,9.3c-4.8,0.4-9.6-2.7-11.3-7.4c-1.8-4.9-0.1-10.5,4.3-13.1c1.9-1.1,2.2-2.3,1.9-4.1
		c0-0.2-0.1-0.5-0.1-0.7c0.2-3.2-0.7-5.4-4.4-5.9c-1.6-0.2-3.1-1.5-4.3-2.7c-0.7-0.7-1.2-0.7-1.9,0.1c-4.2,4.3-8.5,8.5-12.7,12.7
		c-0.9,0.9-0.5,1.6-0.4,2.6c1.5,8.4-2.7,16.2-10.5,19.3c-7.5,3.1-16.1,0.4-20.7-6.3c-4.4-6.4-3.9-14.9,1.2-20.9
		c5.1-6,13.6-7.8,20.6-4.2c1.8,0.9,2.9,0.7,4.3-0.4c4.4-3.2,8.9-6.3,13.4-9.4c1.1-0.7,1.6-1.4,1.1-2.8c-0.7-2.2-0.8-4.5-0.2-6.7
		c0.3-1.4-0.1-1.9-1.3-2.5c-2.3-1.1-4.6-2.3-6.9-3.5c-2.2-1.1-4.1-2.4-7.1-0.9c-3.1,1.5-7-1.2-7.9-4.6c-0.9-3.6,1.3-7.3,4.9-8.1
		c3.6-0.8,7.4,1.3,8,5c0.3,1.6,0.9,2.3,2.2,2.9c3,1.4,6,2.9,9,4.5c1,0.6,1.7,0.7,2.5-0.4c1.6-2.3,3.8-3.9,6.4-5
		c1.1-0.5,1.2-1.1,1-2.2c-1.1-5.1-2.2-10.2-3.2-15.3c-0.3-1.3-0.8-1.9-2.2-2.2c-8.1-1.7-13.7-8.9-13.5-17.3
		c0.2-7.9,6.2-15,13.8-16.4c8.5-1.5,16.4,2.8,19.4,10.7c3,7.6,0.2,16.3-6.8,20.7c-1.5,0.9-2,1.8-1.7,3.5c0.7,5,1.3,10.1,1.8,15.1
		c0.1,1.3,0.4,1.9,1.9,2.1c2.3,0.3,4.4,1.1,6.2,2.5c2.1,1.6,2.8-0.7,4-1.3c1.3-0.6,0.7-1.5,0.3-2.5c-2.2-4.9-1.2-10.4,2.4-14.1
		c3.6-3.6,9.1-4.6,13.8-2.6c4.7,2.1,7.6,6.8,7.4,12c-0.4,8.6-9.2,14.1-17.3,10.8c-1.5-0.6-5.1,0.9-5.6,2.4c-0.2,0.5,0.2,0.9,0.4,1.3
		c1.8,3.4,2.7,7,2,10.8c-0.2,1.2,0.3,1.7,1.2,2.1c6.6,3.3,13.3,6.6,19.8,10c1.4,0.7,2.1,0.1,3-0.6c5.7-4.2,11.9-5,18.3-1.9
		C166.9,117.9,170,123.2,170.2,128.6z"/>
</g>
</svg>
