<?xml version="1.0" encoding="utf-8"?>
<!-- Generator: Adobe Illustrator 22.1.0, SVG Export Plug-In . SVG Version: 6.00 Build 0)  -->
<svg version="1.1" id="Layer_1" xmlns="http://www.w3.org/2000/svg" xmlns:xlink="http://www.w3.org/1999/xlink" x="0px" y="0px"
	 viewBox="0 0 1024 540" style="enable-background:new 0 0 1024 540;" xml:space="preserve">
<style type="text/css">
	.st0{clip-path:url(#SVGID_2_);}
	.st1{fill:#FAAF40;}
	.st2{fill:#F6921E;}
	.st3{clip-path:url(#SVGID_4_);}
	.st4{fill:#52B5DF;}
	.st5{fill:#15A0DB;}
	.st6{clip-path:url(#SVGID_6_);}
	.st7{fill:#00A69C;}
	.st8{fill:#29B473;}
	.st9{clip-path:url(#SVGID_8_);}
	.st10{fill:#FDD900;}
	.st11{fill:#FFC612;}
</style>
<g>
	<defs>
		<rect id="SVGID_1_" y="0" width="1024" height="540"/>
	</defs>
	<clipPath id="SVGID_2_">
		<use xlink:href="#SVGID_1_"  style="overflow:visible;"/>
	</clipPath>
	<g class="st0">
		<g>
			<path class="st1" d="M-12.5-4.4l22,22l-22,22l-22-22L-12.5-4.4z"/>
			<path class="st2" d="M9.5,17.6h-44l22,22L9.5,17.6z"/>
		</g>
		<g>
			<path class="st1" d="M31.5-4.4l22,22l-22,22l-22-22L31.5-4.4z"/>
			<path class="st2" d="M53.5,17.6h-44l22,22L53.5,17.6z"/>
		</g>
		<g>
			<path class="st1" d="M9.5,17.6l22,22l-22,22l-22-22L9.5,17.6z"/>
			<path class="st2" d="M31.5,39.7h-44l22,22L31.5,39.7z"/>
		</g>
		<g>
			<path class="st1" d="M53.5,17.6l22,22l-22,22l-22-22L53.5,17.6z"/>
			<path class="st2" d="M75.5,39.7h-44l22,22L75.5,39.7z"/>
		</g>
		<g>
			<path class="st1" d="M9.5-26.4l22,22l-22,22l-22-22L9.5-26.4z"/>
			<path class="st2" d="M31.5-4.4h-44l22,22L31.5-4.4z"/>
		</g>
		<g>
			<path class="st1" d="M53.5-26.4l22,22l-22,22l-22-22L53.5-26.4z"/>
			<path class="st2" d="M75.5-4.4h-44l22,22L75.5-4.4z"/>
		</g>
		<g>
			<path class="st1" d="M75.5-4.4l22,22l-22,22l-22-22L75.5-4.4z"/>
			<path class="st2" d="M97.5,17.6h-44l22,22L97.5,17.6z"/>
		</g>
		<g>
			<path class="st1" d="M119.5-4.4l22,22l-22,22l-22-22L119.5-4.4z"/>
			<path class="st2" d="M141.5,17.6h-44l22,22L141.5,17.6z"/>
		</g>
		<g>
			<path class="st1" d="M97.5,17.6l22,22l-22,22l-22-22L97.5,17.6z"/>
			<path class="st2" d="M119.5,39.7H75.5l22,22L119.5,39.7z"/>
		</g>
		<g>
			<path class="st1" d="M141.5,17.6l22,22l-22,22l-22-22L141.5,17.6z"/>
			<path class="st2" d="M163.5,39.7h-44l22,22L163.5,39.7z"/>
		</g>
		<g>
			<path class="st1" d="M97.5-26.4l22,22l-22,22l-22-22L97.5-26.4z"/>
			<path class="st2" d="M119.5-4.4H75.5l22,22L119.5-4.4z"/>
		</g>
		<g>
			<path class="st1" d="M141.5-26.4l22,22l-22,22l-22-22L141.5-26.4z"/>
			<path class="st2" d="M163.5-4.4h-44l22,22L163.5-4.4z"/>
		</g>
		<g>
			<path class="st1" d="M163.5-4.4l22,22l-22,22l-22-22L163.5-4.4z"/>
			<path class="st2" d="M185.5,17.6h-44l22,22L185.5,17.6z"/>
		</g>
		<g>
			<path class="st1" d="M207.5-4.4l22,22l-22,22l-22-22L207.5-4.4z"/>
			<path class="st2" d="M229.5,17.6h-44l22,22L229.5,17.6z"/>
		</g>
		<g>
			<path class="st1" d="M185.5,17.6l22,22l-22,22l-22-22L185.5,17.6z"/>
			<path class="st2" d="M207.5,39.7h-44l22,22L207.5,39.7z"/>
		</g>
		<g>
			<path class="st1" d="M229.5,17.6l22,22l-22,22l-22-22L229.5,17.6z"/>
			<path class="st2" d="M251.5,39.7h-44l22,22L251.5,39.7z"/>
		</g>
		<g>
			<path class="st1" d="M185.5-26.4l22,22l-22,22l-22-22L185.5-26.4z"/>
			<path class="st2" d="M207.5-4.4h-44l22,22L207.5-4.4z"/>
		</g>
		<g>
			<path class="st1" d="M229.5-26.4l22,22l-22,22l-22-22L229.5-26.4z"/>
			<path class="st2" d="M251.5-4.4h-44l22,22L251.5-4.4z"/>
		</g>
		<g>
			<path class="st1" d="M251.5-4.4l22,22l-22,22l-22-22L251.5-4.4z"/>
			<path class="st2" d="M273.5,17.6h-44.1l22,22L273.5,17.6z"/>
		</g>
		<g>
			<path class="st1" d="M295.5-4.4l22,22l-22,22l-22-22L295.5-4.4z"/>
			<path class="st2" d="M317.5,17.6h-44l22,22L317.5,17.6z"/>
		</g>
		<g>
			<path class="st1" d="M273.5,17.6l22,22l-22,22l-22-22L273.5,17.6z"/>
			<path class="st2" d="M295.5,39.7h-44l22,22L295.5,39.7z"/>
		</g>
		<g>
			<path class="st1" d="M317.5,17.6l22,22l-22,22l-22-22L317.5,17.6z"/>
			<path class="st2" d="M339.5,39.7h-44l22,22L339.5,39.7z"/>
		</g>
		<g>
			<path class="st1" d="M273.5-26.4l22,22l-22,22l-22-22L273.5-26.4z"/>
			<path class="st2" d="M295.5-4.4h-44l22,22L295.5-4.4z"/>
		</g>
		<g>
			<path class="st1" d="M317.5-26.4l22,22l-22,22l-22-22L317.5-26.4z"/>
			<path class="st2" d="M339.5-4.4h-44l22,22L339.5-4.4z"/>
		</g>
		<g>
			<path class="st1" d="M339.5-4.4l22,22l-22,22l-22-22L339.5-4.4z"/>
			<path class="st2" d="M361.5,17.6h-44l22,22L361.5,17.6z"/>
		</g>
		<g>
			<path class="st1" d="M383.5-4.4l22,22l-22,22l-22-22L383.5-4.4z"/>
			<path class="st2" d="M405.5,17.6h-44l22,22L405.5,17.6z"/>
		</g>
		<g>
			<path class="st1" d="M361.5,17.6l22,22l-22,22l-22-22L361.5,17.6z"/>
			<path class="st2" d="M383.5,39.7h-44l22,22L383.5,39.7z"/>
		</g>
		<g>
			<path class="st1" d="M405.5,17.6l22,22l-22,22l-22-22L405.5,17.6z"/>
			<path class="st2" d="M427.5,39.7h-44l22,22L427.5,39.7z"/>
		</g>
		<g>
			<path class="st1" d="M361.5-26.4l22,22l-22,22l-22-22L361.5-26.4z"/>
			<path class="st2" d="M383.5-4.4h-44l22,22L383.5-4.4z"/>
		</g>
		<g>
			<path class="st1" d="M405.5-26.4l22,22l-22,22l-22-22L405.5-26.4z"/>
			<path class="st2" d="M427.5-4.4h-44l22,22L427.5-4.4z"/>
		</g>
		<g>
			<path class="st1" d="M427.5-4.4l22,22l-22,22l-22-22L427.5-4.4z"/>
			<path class="st2" d="M449.5,17.6h-44l22,22L449.5,17.6z"/>
		</g>
		<g>
			<path class="st1" d="M471.5-4.4l22,22l-22,22l-22-22L471.5-4.4z"/>
			<path class="st2" d="M493.5,17.6h-44l22,22L493.5,17.6z"/>
		</g>
		<g>
			<path class="st1" d="M449.5,17.6l22,22l-22,22l-22-22L449.5,17.6z"/>
			<path class="st2" d="M471.6,39.7h-44.1l22,22L471.6,39.7z"/>
		</g>
		<g>
			<path class="st1" d="M493.5,17.6l22,22l-22,22l-22-22L493.5,17.6z"/>
			<path class="st2" d="M515.6,39.7h-44l22,22L515.6,39.7z"/>
		</g>
		<g>
			<path class="st1" d="M449.5-26.4l22,22l-22,22l-22-22L449.5-26.4z"/>
			<path class="st2" d="M471.6-4.4h-44.1l22,22L471.6-4.4z"/>
		</g>
		<g>
			<path class="st1" d="M493.5-26.4l22,22l-22,22l-22-22L493.5-26.4z"/>
			<path class="st2" d="M515.6-4.4h-44l22,22L515.6-4.4z"/>
		</g>
		<g>
			<path class="st1" d="M515.5-4.4l22,22l-22,22l-22-22L515.5-4.4z"/>
			<path class="st2" d="M537.5,17.6h-44l22,22L537.5,17.6z"/>
		</g>
		<g>
			<path class="st1" d="M559.5-4.4l22,22l-22,22l-22-22L559.5-4.4z"/>
			<path class="st2" d="M581.5,17.6h-44l22,22L581.5,17.6z"/>
		</g>
		<g>
			<path class="st1" d="M537.5,17.6l22,22l-22,22l-22-22L537.5,17.6z"/>
			<path class="st2" d="M559.5,39.7h-44l22,22L559.5,39.7z"/>
		</g>
		<g>
			<path class="st1" d="M581.5,17.6l22,22l-22,22l-22-22L581.5,17.6z"/>
			<path class="st2" d="M603.5,39.7h-44l22,22L603.5,39.7z"/>
		</g>
		<g>
			<path class="st1" d="M537.5-26.4l22,22l-22,22l-22-22L537.5-26.4z"/>
			<path class="st2" d="M559.5-4.4h-44l22,22L559.5-4.4z"/>
		</g>
		<g>
			<path class="st1" d="M581.5-26.4l22,22l-22,22l-22-22L581.5-26.4z"/>
			<path class="st2" d="M603.5-4.4h-44l22,22L603.5-4.4z"/>
		</g>
		<g>
			<path class="st1" d="M603.5-4.4l22,22l-22,22l-22-22L603.5-4.4z"/>
			<path class="st2" d="M625.6,17.6h-44.1l22,22L625.6,17.6z"/>
		</g>
		<g>
			<path class="st1" d="M647.6-4.4l22,22l-22,22l-22-22L647.6-4.4z"/>
			<path class="st2" d="M669.6,17.6h-44l22,22L669.6,17.6z"/>
		</g>
		<g>
			<path class="st1" d="M625.5,17.6l22,22l-22,22l-22-22L625.5,17.6z"/>
			<path class="st2" d="M647.5,39.7h-44l22,22L647.5,39.7z"/>
		</g>
		<g>
			<path class="st1" d="M669.5,17.6l22,22l-22,22l-22-22L669.5,17.6z"/>
			<path class="st2" d="M691.5,39.7h-44l22,22L691.5,39.7z"/>
		</g>
		<g>
			<path class="st1" d="M625.5-26.4l22,22l-22,22l-22-22L625.5-26.4z"/>
			<path class="st2" d="M647.5-4.4h-44l22,22L647.5-4.4z"/>
		</g>
		<g>
			<path class="st1" d="M669.5-26.4l22,22l-22,22l-22-22L669.5-26.4z"/>
			<path class="st2" d="M691.5-4.4h-44l22,22L691.5-4.4z"/>
		</g>
		<g>
			<path class="st1" d="M691.6-4.4l22,22l-22,22l-22-22L691.6-4.4z"/>
			<path class="st2" d="M713.6,17.6h-44l22,22L713.6,17.6z"/>
		</g>
		<g>
			<path class="st1" d="M735.6-4.4l22,22l-22,22l-22-22L735.6-4.4z"/>
			<path class="st2" d="M757.6,17.6h-44l22,22L757.6,17.6z"/>
		</g>
		<g>
			<path class="st1" d="M713.5,17.6l22,22l-22,22l-22-22L713.5,17.6z"/>
			<path class="st2" d="M735.5,39.7h-44l22,22L735.5,39.7z"/>
		</g>
		<g>
			<path class="st1" d="M757.5,17.6l22,22l-22,22l-22-22L757.5,17.6z"/>
			<path class="st2" d="M779.6,39.7h-44.1l22,22L779.6,39.7z"/>
		</g>
		<g>
			<path class="st1" d="M713.5-26.4l22,22l-22,22l-22-22L713.5-26.4z"/>
			<path class="st2" d="M735.5-4.4h-44l22,22L735.5-4.4z"/>
		</g>
		<g>
			<path class="st1" d="M757.5-26.4l22,22l-22,22l-22-22L757.5-26.4z"/>
			<path class="st2" d="M779.6-4.4h-44.1l22,22L779.6-4.4z"/>
		</g>
		<g>
			<path class="st1" d="M779.6,83.6l-22,22l-22-22l22-22L779.6,83.6z"/>
			<path class="st2" d="M735.5,83.6h44.1l-22,22L735.5,83.6z"/>
		</g>
		<g>
			<path class="st1" d="M735.6,83.6l-22,22l-22-22l22-22L735.6,83.6z"/>
			<path class="st2" d="M691.5,83.6h44l-22,22L691.5,83.6z"/>
		</g>
		<g>
			<path class="st1" d="M757.6,105.6l-22,22l-22-22l22-22L757.6,105.6z"/>
			<path class="st2" d="M713.6,105.6h44l-22,22L713.6,105.6z"/>
		</g>
		<g>
			<path class="st1" d="M713.5,105.6l-22,22l-22-22l22-22L713.5,105.6z"/>
			<path class="st2" d="M669.6,105.6h44l-22,22L669.6,105.6z"/>
		</g>
		<g>
			<path class="st1" d="M757.6,61.6l-22,22l-22-22l22-22L757.6,61.6z"/>
			<path class="st2" d="M713.6,61.6h44l-22,22L713.6,61.6z"/>
		</g>
		<g>
			<path class="st1" d="M713.5,61.6l-22,22l-22-22l22-22L713.5,61.6z"/>
			<path class="st2" d="M669.6,61.6h44l-22,22L669.6,61.6z"/>
		</g>
		<g>
			<path class="st1" d="M691.6,83.6l-22,22l-22-22l22-22L691.6,83.6z"/>
			<path class="st2" d="M647.5,83.6h44l-22,22L647.5,83.6z"/>
		</g>
		<g>
			<path class="st1" d="M647.6,83.6l-22,22l-22-22l22-22L647.6,83.6z"/>
			<path class="st2" d="M603.5,83.6h44l-22,22L603.5,83.6z"/>
		</g>
		<g>
			<path class="st1" d="M669.5,105.6l-22,22l-22-22l22-22L669.5,105.6z"/>
			<path class="st2" d="M625.6,105.6h44l-22,22L625.6,105.6z"/>
		</g>
		<g>
			<path class="st1" d="M625.6,105.6l-22,22l-22-22l22-22L625.6,105.6z"/>
			<path class="st2" d="M581.5,105.6h44.1l-22,22L581.5,105.6z"/>
		</g>
		<g>
			<path class="st1" d="M669.5,61.6l-22,22l-22-22l22-22L669.5,61.6z"/>
			<path class="st2" d="M625.6,61.6h44l-22,22L625.6,61.6z"/>
		</g>
		<g>
			<path class="st1" d="M625.6,61.6l-22,22l-22-22l22-22L625.6,61.6z"/>
			<path class="st2" d="M581.5,61.6h44.1l-22,22L581.5,61.6z"/>
		</g>
		<g>
			<path class="st1" d="M603.6,83.6l-22,22l-22-22l22-22L603.6,83.6z"/>
			<path class="st2" d="M559.5,83.6h44l-22,22L559.5,83.6z"/>
		</g>
		<g>
			<path class="st1" d="M559.5,83.6l-22,22l-22-22l22-22L559.5,83.6z"/>
			<path class="st2" d="M515.6,83.6h44l-22,22L515.6,83.6z"/>
		</g>
		<g>
			<path class="st1" d="M581.6,105.6l-22,22l-22-22l22-22L581.6,105.6z"/>
			<path class="st2" d="M537.5,105.6h44l-22,22L537.5,105.6z"/>
		</g>
		<g>
			<path class="st1" d="M537.5,105.6l-22,22l-22-22l22-22L537.5,105.6z"/>
			<path class="st2" d="M493.5,105.6h44l-22,22L493.5,105.6z"/>
		</g>
		<g>
			<path class="st1" d="M581.5,61.6l-22,22l-22-22l22-22L581.5,61.6z"/>
			<path class="st2" d="M537.5,61.6h44l-22,22L537.5,61.6z"/>
		</g>
		<g>
			<path class="st1" d="M537.5,61.6l-22,22l-22-22l22-22L537.5,61.6z"/>
			<path class="st2" d="M493.5,61.6h44l-22,22L493.5,61.6z"/>
		</g>
		<g>
			<path class="st1" d="M515.5,83.6l-22,22l-22-22l22-22L515.5,83.6z"/>
			<path class="st2" d="M471.6,83.6h44l-22,22L471.6,83.6z"/>
		</g>
		<g>
			<path class="st1" d="M471.5,83.6l-22,22l-22-22l22-22L471.5,83.6z"/>
			<path class="st2" d="M427.5,83.6h44.1l-22,22L427.5,83.6z"/>
		</g>
		<g>
			<path class="st1" d="M493.5,105.6l-22,22l-22-22l22-22L493.5,105.6z"/>
			<path class="st2" d="M449.5,105.6h44l-22,22L449.5,105.6z"/>
		</g>
		<g>
			<path class="st1" d="M449.5,105.6l-22,22l-22-22l22-22L449.5,105.6z"/>
			<path class="st2" d="M405.5,105.6h44l-22,22L405.5,105.6z"/>
		</g>
		<g>
			<path class="st1" d="M493.5,61.6l-22,22l-22-22l22-22L493.5,61.6z"/>
			<path class="st2" d="M449.5,61.6h44l-22,22L449.5,61.6z"/>
		</g>
		<g>
			<path class="st1" d="M449.5,61.6l-22,22l-22-22l22-22L449.5,61.6z"/>
			<path class="st2" d="M405.5,61.6h44l-22,22L405.5,61.6z"/>
		</g>
		<g>
			<path class="st1" d="M427.5,83.6l-22,22l-22-22l22-22L427.5,83.6z"/>
			<path class="st2" d="M383.5,83.6h44l-22,22L383.5,83.6z"/>
		</g>
		<g>
			<path class="st1" d="M383.5,83.6l-22,22l-22-22l22-22L383.5,83.6z"/>
			<path class="st2" d="M339.5,83.6h44l-22,22L339.5,83.6z"/>
		</g>
		<g>
			<path class="st1" d="M405.5,105.6l-22,22l-22-22l22-22L405.5,105.6z"/>
			<path class="st2" d="M361.5,105.6h44l-22,22L361.5,105.6z"/>
		</g>
		<g>
			<path class="st1" d="M361.5,105.6l-22,22l-22-22l22-22L361.5,105.6z"/>
			<path class="st2" d="M317.5,105.6h44l-22,22L317.5,105.6z"/>
		</g>
		<g>
			<path class="st1" d="M405.5,61.6l-22,22l-22-22l22-22L405.5,61.6z"/>
			<path class="st2" d="M361.5,61.6h44l-22,22L361.5,61.6z"/>
		</g>
		<g>
			<path class="st1" d="M361.5,61.6l-22,22l-22-22l22-22L361.5,61.6z"/>
			<path class="st2" d="M317.5,61.6h44l-22,22L317.5,61.6z"/>
		</g>
		<g>
			<path class="st1" d="M339.5,83.6l-22,22l-22-22l22-22L339.5,83.6z"/>
			<path class="st2" d="M295.5,83.6h44l-22,22L295.5,83.6z"/>
		</g>
		<g>
			<path class="st1" d="M295.5,83.6l-22,22l-22-22l22-22L295.5,83.6z"/>
			<path class="st2" d="M251.5,83.6h44l-22,22L251.5,83.6z"/>
		</g>
		<g>
			<path class="st1" d="M317.5,105.6l-22,22l-22-22l22-22L317.5,105.6z"/>
			<path class="st2" d="M273.5,105.6h44l-22,22L273.5,105.6z"/>
		</g>
		<g>
			<path class="st1" d="M273.5,105.6l-22,22l-22-22l22-22L273.5,105.6z"/>
			<path class="st2" d="M229.5,105.6h44.1l-22,22L229.5,105.6z"/>
		</g>
		<g>
			<path class="st1" d="M317.5,61.6l-22,22l-22-22l22-22L317.5,61.6z"/>
			<path class="st2" d="M273.5,61.6h44l-22,22L273.5,61.6z"/>
		</g>
		<g>
			<path class="st1" d="M273.5,61.6l-22,22l-22-22l22-22L273.5,61.6z"/>
			<path class="st2" d="M229.5,61.6h44.1l-22,22L229.5,61.6z"/>
		</g>
		<g>
			<path class="st1" d="M251.5,83.6l-22,22l-22-22l22-22L251.5,83.6z"/>
			<path class="st2" d="M207.5,83.6h44l-22,22L207.5,83.6z"/>
		</g>
		<g>
			<path class="st1" d="M207.5,83.6l-22,22l-22-22l22-22L207.5,83.6z"/>
			<path class="st2" d="M163.5,83.6h44l-22,22L163.5,83.6z"/>
		</g>
		<g>
			<path class="st1" d="M229.5,105.6l-22,22l-22-22l22-22L229.5,105.6z"/>
			<path class="st2" d="M185.5,105.6h44l-22,22L185.5,105.6z"/>
		</g>
		<g>
			<path class="st1" d="M185.5,105.6l-22,22l-22-22l22-22L185.5,105.6z"/>
			<path class="st2" d="M141.5,105.6h44l-22,22L141.5,105.6z"/>
		</g>
		<g>
			<path class="st1" d="M229.5,61.6l-22,22l-22-22l22-22L229.5,61.6z"/>
			<path class="st2" d="M185.5,61.6h44l-22,22L185.5,61.6z"/>
		</g>
		<g>
			<path class="st1" d="M185.5,61.6l-22,22l-22-22l22-22L185.5,61.6z"/>
			<path class="st2" d="M141.5,61.6h44l-22,22L141.5,61.6z"/>
		</g>
		<g>
			<path class="st1" d="M163.5,83.6l-22,22l-22-22l22-22L163.5,83.6z"/>
			<path class="st2" d="M119.5,83.6h44l-22,22L119.5,83.6z"/>
		</g>
		<g>
			<path class="st1" d="M119.5,83.6l-22,22l-22-22l22-22L119.5,83.6z"/>
			<path class="st2" d="M75.5,83.6h44.1l-22,22L75.5,83.6z"/>
		</g>
		<g>
			<path class="st1" d="M141.5,105.6l-22,22l-22-22l22-22L141.5,105.6z"/>
			<path class="st2" d="M97.5,105.6h44l-22,22L97.5,105.6z"/>
		</g>
		<g>
			<path class="st1" d="M97.5,105.6l-22,22l-22-22l22-22L97.5,105.6z"/>
			<path class="st2" d="M53.5,105.6h44l-22,22L53.5,105.6z"/>
		</g>
		<g>
			<path class="st1" d="M141.5,61.6l-22,22l-22-22l22-22L141.5,61.6z"/>
			<path class="st2" d="M97.5,61.6h44l-22,22L97.5,61.6z"/>
		</g>
		<g>
			<path class="st1" d="M97.5,61.6l-22,22l-22-22l22-22L97.5,61.6z"/>
			<path class="st2" d="M53.5,61.6h44l-22,22L53.5,61.6z"/>
		</g>
		<g>
			<path class="st1" d="M75.5,83.6l-22,22l-22-22l22-22L75.5,83.6z"/>
			<path class="st2" d="M31.5,83.6h44l-22,22L31.5,83.6z"/>
		</g>
		<g>
			<path class="st1" d="M31.5,83.6l-22,22l-22-22l22-22L31.5,83.6z"/>
			<path class="st2" d="M-12.5,83.6h44l-22,22L-12.5,83.6z"/>
		</g>
		<g>
			<path class="st1" d="M53.5,105.6l-22,22l-22-22l22-22L53.5,105.6z"/>
			<path class="st2" d="M9.5,105.6h44l-22,22L9.5,105.6z"/>
		</g>
		<g>
			<path class="st1" d="M9.4,105.6l-22,22l-22-22l22-22L9.4,105.6z"/>
			<path class="st2" d="M-34.5,105.6h44l-22,22L-34.5,105.6z"/>
		</g>
		<g>
			<path class="st1" d="M53.4,61.6l-22,22l-22-22l22-22L53.4,61.6z"/>
			<path class="st2" d="M9.5,61.6h44l-22,22L9.5,61.6z"/>
		</g>
		<g>
			<path class="st1" d="M9.4,61.6l-22,22l-22-22l22-22L9.4,61.6z"/>
			<path class="st2" d="M-34.5,61.6h44l-22,22L-34.5,61.6z"/>
		</g>
		<g>
			<path class="st1" d="M-12.5,127.7l22,22l-22,22l-22-22L-12.5,127.7z"/>
			<path class="st2" d="M9.5,149.6h-44l22,22L9.5,149.6z"/>
		</g>
		<g>
			<path class="st1" d="M31.5,127.7l22,22l-22,22l-22-22L31.5,127.7z"/>
			<path class="st2" d="M53.5,149.6h-44l22,22L53.5,149.6z"/>
		</g>
		<g>
			<path class="st1" d="M9.5,149.6l22,22l-22,22l-22-22L9.5,149.6z"/>
			<path class="st2" d="M31.5,171.6h-44l22,22L31.5,171.6z"/>
		</g>
		<g>
			<path class="st1" d="M53.5,149.6l22,22l-22,22l-22-22L53.5,149.6z"/>
			<path class="st2" d="M75.5,171.6h-44l22,22L75.5,171.6z"/>
		</g>
		<g>
			<path class="st1" d="M9.5,105.6l22,22l-22,22l-22-22L9.5,105.6z"/>
			<path class="st2" d="M31.5,127.6h-44l22,22L31.5,127.6z"/>
		</g>
		<g>
			<path class="st1" d="M53.5,105.6l22,22l-22,22l-22-22L53.5,105.6z"/>
			<path class="st2" d="M75.5,127.6h-44l22,22L75.5,127.6z"/>
		</g>
		<g>
			<path class="st1" d="M75.5,127.6l22,22l-22,22l-22-22L75.5,127.6z"/>
			<path class="st2" d="M97.5,149.6h-44l22,22L97.5,149.6z"/>
		</g>
		<g>
			<path class="st1" d="M119.5,127.6l22,22l-22,22l-22-22L119.5,127.6z"/>
			<path class="st2" d="M141.5,149.6h-44l22,22L141.5,149.6z"/>
		</g>
		<g>
			<path class="st1" d="M97.5,149.6l22,22l-22,22l-22-22L97.5,149.6z"/>
			<path class="st2" d="M119.5,171.6H75.5l22,22L119.5,171.6z"/>
		</g>
		<g>
			<path class="st1" d="M141.5,149.6l22,22l-22,22l-22-22L141.5,149.6z"/>
			<path class="st2" d="M163.5,171.6h-44l22,22L163.5,171.6z"/>
		</g>
		<g>
			<path class="st1" d="M97.5,105.6l22,22l-22,22l-22-22L97.5,105.6z"/>
			<path class="st2" d="M119.5,127.6H75.5l22,22L119.5,127.6z"/>
		</g>
		<g>
			<path class="st1" d="M141.5,105.6l22,22l-22,22l-22-22L141.5,105.6z"/>
			<path class="st2" d="M163.5,127.6h-44l22,22L163.5,127.6z"/>
		</g>
		<g>
			<path class="st1" d="M163.5,127.6l22,22l-22,22l-22-22L163.5,127.6z"/>
			<path class="st2" d="M185.5,149.6h-44l22,22L185.5,149.6z"/>
		</g>
		<g>
			<path class="st1" d="M207.5,127.6l22,22l-22,22l-22-22L207.5,127.6z"/>
			<path class="st2" d="M229.5,149.6h-44l22,22L229.5,149.6z"/>
		</g>
		<g>
			<path class="st1" d="M185.5,149.6l22,22l-22,22l-22-22L185.5,149.6z"/>
			<path class="st2" d="M207.5,171.6h-44l22,22L207.5,171.6z"/>
		</g>
		<g>
			<path class="st1" d="M229.5,149.6l22,22l-22,22l-22-22L229.5,149.6z"/>
			<path class="st2" d="M251.5,171.6h-44l22,22L251.5,171.6z"/>
		</g>
		<g>
			<path class="st1" d="M185.5,105.6l22,22l-22,22l-22-22L185.5,105.6z"/>
			<path class="st2" d="M207.5,127.6h-44l22,22L207.5,127.6z"/>
		</g>
		<g>
			<path class="st1" d="M229.5,105.6l22,22l-22,22l-22-22L229.5,105.6z"/>
			<path class="st2" d="M251.5,127.6h-44l22,22L251.5,127.6z"/>
		</g>
		<g>
			<path class="st1" d="M251.5,127.6l22,22l-22,22l-22-22L251.5,127.6z"/>
			<path class="st2" d="M273.5,149.6h-44.1l22,22L273.5,149.6z"/>
		</g>
		<g>
			<path class="st1" d="M295.5,127.7l22,22l-22,22l-22-22L295.5,127.7z"/>
			<path class="st2" d="M317.5,149.6h-44l22,22L317.5,149.6z"/>
		</g>
		<g>
			<path class="st1" d="M273.5,149.6l22,22l-22,22l-22-22L273.5,149.6z"/>
			<path class="st2" d="M295.5,171.6h-44l22,22L295.5,171.6z"/>
		</g>
		<g>
			<path class="st1" d="M317.5,149.6l22,22l-22,22l-22-22L317.5,149.6z"/>
			<path class="st2" d="M339.5,171.6h-44l22,22L339.5,171.6z"/>
		</g>
		<g>
			<path class="st1" d="M273.5,105.6l22,22l-22,22l-22-22L273.5,105.6z"/>
			<path class="st2" d="M295.5,127.6h-44l22,22L295.5,127.6z"/>
		</g>
		<g>
			<path class="st1" d="M317.5,105.6l22,22l-22,22l-22-22L317.5,105.6z"/>
			<path class="st2" d="M339.5,127.6h-44l22,22L339.5,127.6z"/>
		</g>
		<g>
			<path class="st1" d="M339.5,127.7l22,22l-22,22l-22-22L339.5,127.7z"/>
			<path class="st2" d="M361.5,149.6h-44l22,22L361.5,149.6z"/>
		</g>
		<g>
			<path class="st1" d="M383.5,127.6l22,22l-22,22l-22-22L383.5,127.6z"/>
			<path class="st2" d="M405.5,149.6h-44l22,22L405.5,149.6z"/>
		</g>
		<g>
			<path class="st1" d="M361.5,149.6l22,22l-22,22l-22-22L361.5,149.6z"/>
			<path class="st2" d="M383.5,171.6h-44l22,22L383.5,171.6z"/>
		</g>
		<g>
			<path class="st1" d="M405.5,149.6l22,22l-22,22l-22-22L405.5,149.6z"/>
			<path class="st2" d="M427.5,171.6h-44l22,22L427.5,171.6z"/>
		</g>
		<g>
			<path class="st1" d="M361.5,105.6l22,22l-22,22l-22-22L361.5,105.6z"/>
			<path class="st2" d="M383.5,127.6h-44l22,22L383.5,127.6z"/>
		</g>
		<g>
			<path class="st1" d="M405.5,105.6l22,22l-22,22l-22-22L405.5,105.6z"/>
			<path class="st2" d="M427.5,127.6h-44l22,22L427.5,127.6z"/>
		</g>
		<g>
			<path class="st1" d="M427.5,127.6l22,22l-22,22l-22-22L427.5,127.6z"/>
			<path class="st2" d="M449.5,149.6h-44l22,22L449.5,149.6z"/>
		</g>
		<g>
			<path class="st1" d="M471.5,127.6l22,22l-22,22l-22-22L471.5,127.6z"/>
			<path class="st2" d="M493.5,149.6h-44l22,22L493.5,149.6z"/>
		</g>
		<g>
			<path class="st1" d="M449.6,149.6l22,22l-22,22l-22-22L449.6,149.6z"/>
			<path class="st2" d="M471.6,171.6h-44.1l22,22L471.6,171.6z"/>
		</g>
		<g>
			<path class="st1" d="M493.6,149.6l22,22l-22,22l-22-22L493.6,149.6z"/>
			<path class="st2" d="M515.6,171.6h-44l22,22L515.6,171.6z"/>
		</g>
		<g>
			<path class="st1" d="M449.6,105.6l22,22l-22,22l-22-22L449.6,105.6z"/>
			<path class="st2" d="M471.6,127.6h-44.1l22,22L471.6,127.6z"/>
		</g>
		<g>
			<path class="st1" d="M493.6,105.6l22,22l-22,22l-22-22L493.6,105.6z"/>
			<path class="st2" d="M515.6,127.6h-44l22,22L515.6,127.6z"/>
		</g>
		<g>
			<path class="st1" d="M515.5,127.6l22,22l-22,22l-22-22L515.5,127.6z"/>
			<path class="st2" d="M537.5,149.6h-44l22,22L537.5,149.6z"/>
		</g>
		<g>
			<path class="st1" d="M559.5,127.6l22,22l-22,22l-22-22L559.5,127.6z"/>
			<path class="st2" d="M581.5,149.6h-44l22,22L581.5,149.6z"/>
		</g>
		<g>
			<path class="st1" d="M537.6,149.6l22,22l-22,22l-22-22L537.6,149.6z"/>
			<path class="st2" d="M559.5,171.6h-44l22,22L559.5,171.6z"/>
		</g>
		<g>
			<path class="st1" d="M581.6,149.6l22,22l-22,22l-22-22L581.6,149.6z"/>
			<path class="st2" d="M603.5,171.6h-44l22,22L603.5,171.6z"/>
		</g>
		<g>
			<path class="st1" d="M537.6,105.6l22,22l-22,22l-22-22L537.6,105.6z"/>
			<path class="st2" d="M559.5,127.6h-44l22,22L559.5,127.6z"/>
		</g>
		<g>
			<path class="st1" d="M581.6,105.6l22,22l-22,22l-22-22L581.6,105.6z"/>
			<path class="st2" d="M603.5,127.6h-44l22,22L603.5,127.6z"/>
		</g>
		<g>
			<path class="st1" d="M603.5,127.6l22,22l-22,22l-22-22L603.5,127.6z"/>
			<path class="st2" d="M625.6,149.6h-44.1l22,22L625.6,149.6z"/>
		</g>
		<g>
			<path class="st1" d="M647.6,127.7l22,22l-22,22l-22-22L647.6,127.7z"/>
			<path class="st2" d="M669.6,149.6h-44l22,22L669.6,149.6z"/>
		</g>
		<g>
			<path class="st1" d="M625.6,149.6l22,22l-22,22l-22-22L625.6,149.6z"/>
			<path class="st2" d="M647.5,171.6h-44l22,22L647.5,171.6z"/>
		</g>
		<g>
			<path class="st1" d="M669.6,149.6l22,22l-22,22l-22-22L669.6,149.6z"/>
			<path class="st2" d="M691.5,171.6h-44l22,22L691.5,171.6z"/>
		</g>
		<g>
			<path class="st1" d="M625.6,105.6l22,22l-22,22l-22-22L625.6,105.6z"/>
			<path class="st2" d="M647.5,127.6h-44l22,22L647.5,127.6z"/>
		</g>
		<g>
			<path class="st1" d="M669.6,105.6l22,22l-22,22l-22-22L669.6,105.6z"/>
			<path class="st2" d="M691.5,127.6h-44l22,22L691.5,127.6z"/>
		</g>
		<g>
			<path class="st1" d="M691.6,127.6l22,22l-22,22l-22-22L691.6,127.6z"/>
			<path class="st2" d="M713.6,149.6h-44l22,22L713.6,149.6z"/>
		</g>
		<g>
			<path class="st1" d="M735.6,127.6l22,22l-22,22l-22-22L735.6,127.6z"/>
			<path class="st2" d="M757.6,149.6h-44l22,22L757.6,149.6z"/>
		</g>
		<g>
			<path class="st1" d="M713.6,149.6l22,22l-22,22l-22-22L713.6,149.6z"/>
			<path class="st2" d="M735.5,171.6h-44l22,22L735.5,171.6z"/>
		</g>
		<g>
			<path class="st1" d="M757.6,149.6l22,22l-22,22l-22-22L757.6,149.6z"/>
			<path class="st2" d="M779.6,171.6h-44.1l22,22L779.6,171.6z"/>
		</g>
		<g>
			<path class="st1" d="M713.6,105.6l22,22l-22,22l-22-22L713.6,105.6z"/>
			<path class="st2" d="M735.5,127.6h-44l22,22L735.5,127.6z"/>
		</g>
		<g>
			<path class="st1" d="M757.6,105.6l22,22l-22,22l-22-22L757.6,105.6z"/>
			<path class="st2" d="M779.6,127.6h-44.1l22,22L779.6,127.6z"/>
		</g>
		<g>
			<path class="st1" d="M779.6,215.6l-22,22l-22-22l22-22L779.6,215.6z"/>
			<path class="st2" d="M735.5,215.6h44.1l-22,22L735.5,215.6z"/>
		</g>
		<g>
			<path class="st1" d="M735.6,215.6l-22,22l-22-22l22-22L735.6,215.6z"/>
			<path class="st2" d="M691.5,215.6h44l-22,22L691.5,215.6z"/>
		</g>
		<g>
			<path class="st1" d="M757.6,237.7l-22,22l-22-22l22-22L757.6,237.7z"/>
			<path class="st2" d="M713.6,237.7h44l-22,22L713.6,237.7z"/>
		</g>
		<g>
			<path class="st1" d="M713.6,237.7l-22,22l-22-22l22-22L713.6,237.7z"/>
			<path class="st2" d="M669.6,237.7h44l-22,22L669.6,237.7z"/>
		</g>
		<g>
			<path class="st1" d="M757.6,193.6l-22,22l-22-22l22-22L757.6,193.6z"/>
			<path class="st2" d="M713.6,193.6h44l-22,22L713.6,193.6z"/>
		</g>
		<g>
			<path class="st1" d="M713.6,193.6l-22,22l-22-22l22-22L713.6,193.6z"/>
			<path class="st2" d="M669.6,193.6h44l-22,22L669.6,193.6z"/>
		</g>
		<g>
			<path class="st1" d="M691.6,215.6l-22,22l-22-22l22-22L691.6,215.6z"/>
			<path class="st2" d="M647.5,215.6h44l-22,22L647.5,215.6z"/>
		</g>
		<g>
			<path class="st1" d="M647.5,215.6l-22,22l-22-22l22-22L647.5,215.6z"/>
			<path class="st2" d="M603.5,215.6h44l-22,22L603.5,215.6z"/>
		</g>
		<g>
			<path class="st1" d="M669.6,237.7l-22,22l-22-22l22-22L669.6,237.7z"/>
			<path class="st2" d="M625.6,237.7h44l-22,22L625.6,237.7z"/>
		</g>
		<g>
			<path class="st1" d="M625.6,237.6l-22,22l-22-22l22-22L625.6,237.6z"/>
			<path class="st2" d="M581.5,237.7h44.1l-22,22L581.5,237.7z"/>
		</g>
		<g>
			<path class="st1" d="M669.5,193.7l-22,22l-22-22l22-22L669.5,193.7z"/>
			<path class="st2" d="M625.6,193.6h44l-22,22L625.6,193.6z"/>
		</g>
		<g>
			<path class="st1" d="M625.6,193.6l-22,22l-22-22l22-22L625.6,193.6z"/>
			<path class="st2" d="M581.5,193.6h44.1l-22,22L581.5,193.6z"/>
		</g>
		<g>
			<path class="st1" d="M603.5,215.6l-22,22l-22-22l22-22L603.5,215.6z"/>
			<path class="st2" d="M559.5,215.6h44l-22,22L559.5,215.6z"/>
		</g>
		<g>
			<path class="st1" d="M559.5,215.6l-22,22l-22-22l22-22L559.5,215.6z"/>
			<path class="st2" d="M515.6,215.6h44l-22,22L515.6,215.6z"/>
		</g>
		<g>
			<path class="st1" d="M581.6,237.6l-22,22l-22-22l22-22L581.6,237.6z"/>
			<path class="st2" d="M537.5,237.7h44l-22,22L537.5,237.7z"/>
		</g>
		<g>
			<path class="st1" d="M537.6,237.6l-22,22l-22-22l22-22L537.6,237.6z"/>
			<path class="st2" d="M493.5,237.7h44l-22,22L493.5,237.7z"/>
		</g>
		<g>
			<path class="st1" d="M581.6,193.6l-22,22l-22-22l22-22L581.6,193.6z"/>
			<path class="st2" d="M537.5,193.6h44l-22,22L537.5,193.6z"/>
		</g>
		<g>
			<path class="st1" d="M537.6,193.6l-22,22l-22-22l22-22L537.6,193.6z"/>
			<path class="st2" d="M493.5,193.6h44l-22,22L493.5,193.6z"/>
		</g>
		<g>
			<path class="st1" d="M515.5,215.6l-22,22l-22-22l22-22L515.5,215.6z"/>
			<path class="st2" d="M471.6,215.6h44l-22,22L471.6,215.6z"/>
		</g>
		<g>
			<path class="st1" d="M471.5,215.6l-22,22l-22-22l22-22L471.5,215.6z"/>
			<path class="st2" d="M427.5,215.6h44.1l-22,22L427.5,215.6z"/>
		</g>
		<g>
			<path class="st1" d="M493.5,237.6l-22,22l-22-22l22-22L493.5,237.6z"/>
			<path class="st2" d="M449.5,237.7h44l-22,22L449.5,237.7z"/>
		</g>
		<g>
			<path class="st1" d="M449.5,237.7l-22,22l-22-22l22-22L449.5,237.7z"/>
			<path class="st2" d="M405.5,237.7h44l-22,22L405.5,237.7z"/>
		</g>
		<g>
			<path class="st1" d="M493.5,193.6l-22,22l-22-22l22-22L493.5,193.6z"/>
			<path class="st2" d="M449.5,193.6h44l-22,22L449.5,193.6z"/>
		</g>
		<g>
			<path class="st1" d="M449.5,193.6l-22,22l-22-22l22-22L449.5,193.6z"/>
			<path class="st2" d="M405.5,193.6h44l-22,22L405.5,193.6z"/>
		</g>
		<g>
			<path class="st1" d="M427.5,215.6l-22,22l-22-22l22-22L427.5,215.6z"/>
			<path class="st2" d="M383.5,215.6h44l-22,22L383.5,215.6z"/>
		</g>
		<g>
			<path class="st1" d="M383.5,215.6l-22,22l-22-22l22-22L383.5,215.6z"/>
			<path class="st2" d="M339.5,215.6h44l-22,22L339.5,215.6z"/>
		</g>
		<g>
			<path class="st1" d="M405.5,237.7l-22,22l-22-22l22-22L405.5,237.7z"/>
			<path class="st2" d="M361.5,237.7h44l-22,22L361.5,237.7z"/>
		</g>
		<g>
			<path class="st1" d="M361.5,237.7l-22,22l-22-22l22-22L361.5,237.7z"/>
			<path class="st2" d="M317.5,237.7h44l-22,22L317.5,237.7z"/>
		</g>
		<g>
			<path class="st1" d="M405.5,193.6l-22,22l-22-22l22-22L405.5,193.6z"/>
			<path class="st2" d="M361.5,193.6h44l-22,22L361.5,193.6z"/>
		</g>
		<g>
			<path class="st1" d="M361.5,193.7l-22,22l-22-22l22-22L361.5,193.7z"/>
			<path class="st2" d="M317.5,193.6h44l-22,22L317.5,193.6z"/>
		</g>
		<g>
			<path class="st1" d="M339.5,215.6l-22,22l-22-22l22-22L339.5,215.6z"/>
			<path class="st2" d="M295.5,215.6h44l-22,22L295.5,215.6z"/>
		</g>
		<g>
			<path class="st1" d="M295.5,215.6l-22,22l-22-22l22-22L295.5,215.6z"/>
			<path class="st2" d="M251.5,215.6h44l-22,22L251.5,215.6z"/>
		</g>
		<g>
			<path class="st1" d="M317.5,237.7l-22,22l-22-22l22-22L317.5,237.7z"/>
			<path class="st2" d="M273.5,237.7h44l-22,22L273.5,237.7z"/>
		</g>
		<g>
			<path class="st1" d="M273.5,237.6l-22,22l-22-22l22-22L273.5,237.6z"/>
			<path class="st2" d="M229.5,237.7h44.1l-22,22L229.5,237.7z"/>
		</g>
		<g>
			<path class="st1" d="M317.5,193.7l-22,22l-22-22l22-22L317.5,193.7z"/>
			<path class="st2" d="M273.5,193.6h44l-22,22L273.5,193.6z"/>
		</g>
		<g>
			<path class="st1" d="M273.5,193.6l-22,22l-22-22l22-22L273.5,193.6z"/>
			<path class="st2" d="M229.5,193.6h44.1l-22,22L229.5,193.6z"/>
		</g>
		<g>
			<path class="st1" d="M251.5,215.6l-22,22l-22-22l22-22L251.5,215.6z"/>
			<path class="st2" d="M207.5,215.6h44l-22,22L207.5,215.6z"/>
		</g>
		<g>
			<path class="st1" d="M207.5,215.6l-22,22l-22-22l22-22L207.5,215.6z"/>
			<path class="st2" d="M163.5,215.6h44l-22,22L163.5,215.6z"/>
		</g>
		<g>
			<path class="st1" d="M229.5,237.6l-22,22l-22-22l22-22L229.5,237.6z"/>
			<path class="st2" d="M185.5,237.7h44l-22,22L185.5,237.7z"/>
		</g>
		<g>
			<path class="st1" d="M185.5,237.6l-22,22l-22-22l22-22L185.5,237.6z"/>
			<path class="st2" d="M141.5,237.7h44l-22,22L141.5,237.7z"/>
		</g>
		<g>
			<path class="st1" d="M229.5,193.6l-22,22l-22-22l22-22L229.5,193.6z"/>
			<path class="st2" d="M185.5,193.6h44l-22,22L185.5,193.6z"/>
		</g>
		<g>
			<path class="st1" d="M185.5,193.6l-22,22l-22-22l22-22L185.5,193.6z"/>
			<path class="st2" d="M141.5,193.6h44l-22,22L141.5,193.6z"/>
		</g>
		<g>
			<path class="st1" d="M163.5,215.6l-22,22l-22-22l22-22L163.5,215.6z"/>
			<path class="st2" d="M119.5,215.6h44l-22,22L119.5,215.6z"/>
		</g>
		<g>
			<path class="st1" d="M119.5,215.6l-22,22l-22-22l22-22L119.5,215.6z"/>
			<path class="st2" d="M75.5,215.6h44.1l-22,22L75.5,215.6z"/>
		</g>
		<g>
			<path class="st1" d="M141.5,237.7l-22,22l-22-22l22-22L141.5,237.7z"/>
			<path class="st2" d="M97.5,237.7h44l-22,22L97.5,237.7z"/>
		</g>
		<g>
			<path class="st1" d="M97.5,237.7l-22,22l-22-22l22-22L97.5,237.7z"/>
			<path class="st2" d="M53.5,237.7h44l-22,22L53.5,237.7z"/>
		</g>
		<g>
			<path class="st1" d="M141.5,193.6l-22,22l-22-22l22-22L141.5,193.6z"/>
			<path class="st2" d="M97.5,193.6h44l-22,22L97.5,193.6z"/>
		</g>
		<g>
			<path class="st1" d="M97.5,193.6l-22,22l-22-22l22-22L97.5,193.6z"/>
			<path class="st2" d="M53.5,193.6h44l-22,22L53.5,193.6z"/>
		</g>
		<g>
			<path class="st1" d="M75.5,215.6l-22,22l-22-22l22-22L75.5,215.6z"/>
			<path class="st2" d="M31.5,215.6h44l-22,22L31.5,215.6z"/>
		</g>
		<g>
			<path class="st1" d="M31.5,215.6l-22,22l-22-22l22-22L31.5,215.6z"/>
			<path class="st2" d="M-12.5,215.6h44l-22,22L-12.5,215.6z"/>
		</g>
		<g>
			<path class="st1" d="M53.5,237.7l-22,22l-22-22l22-22L53.5,237.7z"/>
			<path class="st2" d="M9.5,237.7h44l-22,22L9.5,237.7z"/>
		</g>
		<g>
			<path class="st1" d="M9.5,237.7l-22,22l-22-22l22-22L9.5,237.7z"/>
			<path class="st2" d="M-34.5,237.7h44l-22,22L-34.5,237.7z"/>
		</g>
		<g>
			<path class="st1" d="M53.5,193.7l-22,22l-22-22l22-22L53.5,193.7z"/>
			<path class="st2" d="M9.5,193.6h44l-22,22L9.5,193.6z"/>
		</g>
		<g>
			<path class="st1" d="M9.5,193.7l-22,22l-22-22l22-22L9.5,193.7z"/>
			<path class="st2" d="M-34.5,193.6h44l-22,22L-34.5,193.6z"/>
		</g>
		<g>
			<path class="st1" d="M-12.5,259.7l22,22l-22,22l-22-22L-12.5,259.7z"/>
			<path class="st2" d="M9.5,281.7h-44l22,22L9.5,281.7z"/>
		</g>
		<g>
			<path class="st1" d="M31.5,259.7l22,22l-22,22l-22-22L31.5,259.7z"/>
			<path class="st2" d="M53.5,281.7h-44l22,22L53.5,281.7z"/>
		</g>
		<g>
			<path class="st1" d="M9.5,281.7l22,22l-22,22l-22-22L9.5,281.7z"/>
			<path class="st2" d="M31.5,303.6h-44l22,22L31.5,303.6z"/>
		</g>
		<g>
			<path class="st1" d="M53.5,281.6l22,22l-22,22l-22-22L53.5,281.6z"/>
			<path class="st2" d="M75.5,303.6h-44l22,22L75.5,303.6z"/>
		</g>
		<g>
			<path class="st1" d="M9.5,237.7l22,22l-22,22l-22-22L9.5,237.7z"/>
			<path class="st2" d="M31.5,259.6h-44l22,22L31.5,259.6z"/>
		</g>
		<g>
			<path class="st1" d="M53.5,237.6l22,22l-22,22l-22-22L53.5,237.6z"/>
			<path class="st2" d="M75.5,259.6h-44l22,22L75.5,259.6z"/>
		</g>
		<g>
			<path class="st1" d="M75.5,259.6l22,22l-22,22l-22-22L75.5,259.6z"/>
			<path class="st2" d="M97.5,281.7h-44l22,22L97.5,281.7z"/>
		</g>
		<g>
			<path class="st1" d="M119.5,259.6l22,22l-22,22l-22-22L119.5,259.6z"/>
			<path class="st2" d="M141.5,281.7h-44l22,22L141.5,281.7z"/>
		</g>
		<g>
			<path class="st1" d="M97.5,281.6l22,22l-22,22l-22-22L97.5,281.6z"/>
			<path class="st2" d="M119.5,303.6H75.5l22,22L119.5,303.6z"/>
		</g>
		<g>
			<path class="st1" d="M141.5,281.7l22,22l-22,22l-22-22L141.5,281.7z"/>
			<path class="st2" d="M163.5,303.6h-44l22,22L163.5,303.6z"/>
		</g>
		<g>
			<path class="st1" d="M97.5,237.6l22,22l-22,22l-22-22L97.5,237.6z"/>
			<path class="st2" d="M119.5,259.6H75.5l22,22L119.5,259.6z"/>
		</g>
		<g>
			<path class="st1" d="M141.5,237.7l22,22l-22,22l-22-22L141.5,237.7z"/>
			<path class="st2" d="M163.5,259.6h-44l22,22L163.5,259.6z"/>
		</g>
		<g>
			<path class="st1" d="M163.5,259.6l22,22l-22,22l-22-22L163.5,259.6z"/>
			<path class="st2" d="M185.5,281.7h-44l22,22L185.5,281.7z"/>
		</g>
		<g>
			<path class="st1" d="M207.5,259.6l22,22l-22,22l-22-22L207.5,259.6z"/>
			<path class="st2" d="M229.5,281.7h-44l22,22L229.5,281.7z"/>
		</g>
		<g>
			<path class="st1" d="M185.5,281.7l22,22l-22,22l-22-22L185.5,281.7z"/>
			<path class="st2" d="M207.5,303.6h-44l22,22L207.5,303.6z"/>
		</g>
		<g>
			<path class="st1" d="M229.5,281.7l22,22l-22,22l-22-22L229.5,281.7z"/>
			<path class="st2" d="M251.5,303.6h-44l22,22L251.5,303.6z"/>
		</g>
		<g>
			<path class="st1" d="M185.5,237.7l22,22l-22,22l-22-22L185.5,237.7z"/>
			<path class="st2" d="M207.5,259.6h-44l22,22L207.5,259.6z"/>
		</g>
		<g>
			<path class="st1" d="M229.5,237.7l22,22l-22,22l-22-22L229.5,237.7z"/>
			<path class="st2" d="M251.5,259.6h-44l22,22L251.5,259.6z"/>
		</g>
		<g>
			<path class="st1" d="M251.5,259.6l22,22l-22,22l-22-22L251.5,259.6z"/>
			<path class="st2" d="M273.5,281.7h-44.1l22,22L273.5,281.7z"/>
		</g>
		<g>
			<path class="st1" d="M295.5,259.7l22,22l-22,22l-22-22L295.5,259.7z"/>
			<path class="st2" d="M317.5,281.7h-44l22,22L317.5,281.7z"/>
		</g>
		<g>
			<path class="st1" d="M273.5,281.7l22,22l-22,22l-22-22L273.5,281.7z"/>
			<path class="st2" d="M295.5,303.6h-44l22,22L295.5,303.6z"/>
		</g>
		<g>
			<path class="st1" d="M317.5,281.7l22,22l-22,22l-22-22L317.5,281.7z"/>
			<path class="st2" d="M339.5,303.6h-44l22,22L339.5,303.6z"/>
		</g>
		<g>
			<path class="st1" d="M273.5,237.7l22,22l-22,22l-22-22L273.5,237.7z"/>
			<path class="st2" d="M295.5,259.6h-44l22,22L295.5,259.6z"/>
		</g>
		<g>
			<path class="st1" d="M317.5,237.7l22,22l-22,22l-22-22L317.5,237.7z"/>
			<path class="st2" d="M339.5,259.6h-44l22,22L339.5,259.6z"/>
		</g>
		<g>
			<path class="st1" d="M339.5,259.7l22,22l-22,22l-22-22L339.5,259.7z"/>
			<path class="st2" d="M361.5,281.7h-44l22,22L361.5,281.7z"/>
		</g>
		<g>
			<path class="st1" d="M383.5,259.6l22,22l-22,22l-22-22L383.5,259.6z"/>
			<path class="st2" d="M405.5,281.7h-44l22,22L405.5,281.7z"/>
		</g>
		<g>
			<path class="st1" d="M361.5,281.6l22,22l-22,22l-22-22L361.5,281.6z"/>
			<path class="st2" d="M383.5,303.6h-44l22,22L383.5,303.6z"/>
		</g>
		<g>
			<path class="st1" d="M405.5,281.6l22,22l-22,22l-22-22L405.5,281.6z"/>
			<path class="st2" d="M427.5,303.6h-44l22,22L427.5,303.6z"/>
		</g>
		<g>
			<path class="st1" d="M361.5,237.6l22,22l-22,22l-22-22L361.5,237.6z"/>
			<path class="st2" d="M383.5,259.6h-44l22,22L383.5,259.6z"/>
		</g>
		<g>
			<path class="st1" d="M405.5,237.6l22,22l-22,22l-22-22L405.5,237.6z"/>
			<path class="st2" d="M427.5,259.6h-44l22,22L427.5,259.6z"/>
		</g>
		<g>
			<path class="st1" d="M427.5,259.6l22,22l-22,22l-22-22L427.5,259.6z"/>
			<path class="st2" d="M449.5,281.7h-44l22,22L449.5,281.7z"/>
		</g>
		<g>
			<path class="st1" d="M471.5,259.6l22,22l-22,22l-22-22L471.5,259.6z"/>
			<path class="st2" d="M493.5,281.7h-44l22,22L493.5,281.7z"/>
		</g>
		<g>
			<path class="st1" d="M449.5,281.7l22,22l-22,22l-22-22L449.5,281.7z"/>
			<path class="st2" d="M471.6,303.6h-44.1l22,22L471.6,303.6z"/>
		</g>
		<g>
			<path class="st1" d="M493.5,281.7l22,22l-22,22l-22-22L493.5,281.7z"/>
			<path class="st2" d="M515.6,303.6h-44l22,22L515.6,303.6z"/>
		</g>
		<g>
			<path class="st1" d="M449.5,237.7l22,22l-22,22l-22-22L449.5,237.7z"/>
			<path class="st2" d="M471.6,259.6h-44.1l22,22L471.6,259.6z"/>
		</g>
		<g>
			<path class="st1" d="M493.5,237.7l22,22l-22,22l-22-22L493.5,237.7z"/>
			<path class="st2" d="M515.6,259.6h-44l22,22L515.6,259.6z"/>
		</g>
		<g>
			<path class="st1" d="M515.5,259.6l22,22l-22,22l-22-22L515.5,259.6z"/>
			<path class="st2" d="M537.5,281.7h-44l22,22L537.5,281.7z"/>
		</g>
		<g>
			<path class="st1" d="M559.5,259.6l22,22l-22,22l-22-22L559.5,259.6z"/>
			<path class="st2" d="M581.5,281.7h-44l22,22L581.5,281.7z"/>
		</g>
		<g>
			<path class="st1" d="M537.5,281.7l22,22l-22,22l-22-22L537.5,281.7z"/>
			<path class="st2" d="M559.5,303.6h-44l22,22L559.5,303.6z"/>
		</g>
		<g>
			<path class="st1" d="M581.5,281.7l22,22l-22,22l-22-22L581.5,281.7z"/>
			<path class="st2" d="M603.5,303.6h-44l22,22L603.5,303.6z"/>
		</g>
		<g>
			<path class="st1" d="M537.5,237.7l22,22l-22,22l-22-22L537.5,237.7z"/>
			<path class="st2" d="M559.5,259.6h-44l22,22L559.5,259.6z"/>
		</g>
		<g>
			<path class="st1" d="M581.5,237.7l22,22l-22,22l-22-22L581.5,237.7z"/>
			<path class="st2" d="M603.5,259.6h-44l22,22L603.5,259.6z"/>
		</g>
		<g>
			<path class="st1" d="M603.5,259.6l22,22l-22,22l-22-22L603.5,259.6z"/>
			<path class="st2" d="M625.6,281.7h-44.1l22,22L625.6,281.7z"/>
		</g>
		<g>
			<path class="st1" d="M647.6,259.7l22,22l-22,22l-22-22L647.6,259.7z"/>
			<path class="st2" d="M669.6,281.7h-44l22,22L669.6,281.7z"/>
		</g>
		<g>
			<path class="st1" d="M625.5,281.7l22,22l-22,22l-22-22L625.5,281.7z"/>
			<path class="st2" d="M647.5,303.6h-44l22,22L647.5,303.6z"/>
		</g>
		<g>
			<path class="st1" d="M669.5,281.6l22,22l-22,22l-22-22L669.5,281.6z"/>
			<path class="st2" d="M691.5,303.6h-44l22,22L691.5,303.6z"/>
		</g>
		<g>
			<path class="st1" d="M625.5,237.7l22,22l-22,22l-22-22L625.5,237.7z"/>
			<path class="st2" d="M647.5,259.6h-44l22,22L647.5,259.6z"/>
		</g>
		<g>
			<path class="st1" d="M669.5,237.6l22,22l-22,22l-22-22L669.5,237.6z"/>
			<path class="st2" d="M691.5,259.6h-44l22,22L691.5,259.6z"/>
		</g>
		<g>
			<path class="st1" d="M691.6,259.6l22,22l-22,22l-22-22L691.6,259.6z"/>
			<path class="st2" d="M713.6,281.7h-44l22,22L713.6,281.7z"/>
		</g>
		<g>
			<path class="st1" d="M735.6,259.6l22,22l-22,22l-22-22L735.6,259.6z"/>
			<path class="st2" d="M757.6,281.7h-44l22,22L757.6,281.7z"/>
		</g>
		<g>
			<path class="st1" d="M713.5,281.6l22,22l-22,22l-22-22L713.5,281.6z"/>
			<path class="st2" d="M735.5,303.6h-44l22,22L735.5,303.6z"/>
		</g>
		<g>
			<path class="st1" d="M757.5,281.6l22,22l-22,22l-22-22L757.5,281.6z"/>
			<path class="st2" d="M779.6,303.6h-44.1l22,22L779.6,303.6z"/>
		</g>
		<g>
			<path class="st1" d="M713.5,237.6l22,22l-22,22l-22-22L713.5,237.6z"/>
			<path class="st2" d="M735.5,259.6h-44l22,22L735.5,259.6z"/>
		</g>
		<g>
			<path class="st1" d="M757.5,237.6l22,22l-22,22l-22-22L757.5,237.6z"/>
			<path class="st2" d="M779.6,259.6h-44.1l22,22L779.6,259.6z"/>
		</g>
		<g>
			<path class="st1" d="M779.6,347.6l-22,22l-22-22l22-22L779.6,347.6z"/>
			<path class="st2" d="M735.5,347.6h44.1l-22,22L735.5,347.6z"/>
		</g>
		<g>
			<path class="st1" d="M735.6,347.6l-22,22l-22-22l22-22L735.6,347.6z"/>
			<path class="st2" d="M691.5,347.6h44l-22,22L691.5,347.6z"/>
		</g>
		<g>
			<path class="st1" d="M757.6,369.7l-22,22l-22-22l22-22L757.6,369.7z"/>
			<path class="st2" d="M713.6,369.7h44l-22,22L713.6,369.7z"/>
		</g>
		<g>
			<path class="st1" d="M713.6,369.7l-22,22l-22-22l22-22L713.6,369.7z"/>
			<path class="st2" d="M669.6,369.7h44l-22,22L669.6,369.7z"/>
		</g>
		<g>
			<path class="st1" d="M757.6,325.7l-22,22l-22-22l22-22L757.6,325.7z"/>
			<path class="st2" d="M713.6,325.7h44l-22,22L713.6,325.7z"/>
		</g>
		<g>
			<path class="st1" d="M713.6,325.7l-22,22l-22-22l22-22L713.6,325.7z"/>
			<path class="st2" d="M669.6,325.7h44l-22,22L669.6,325.7z"/>
		</g>
		<g>
			<path class="st1" d="M691.6,347.7l-22,22l-22-22l22-22L691.6,347.7z"/>
			<path class="st2" d="M647.5,347.6h44l-22,22L647.5,347.6z"/>
		</g>
		<g>
			<path class="st1" d="M647.6,347.7l-22,22l-22-22l22-22L647.6,347.7z"/>
			<path class="st2" d="M603.5,347.6h44l-22,22L603.5,347.6z"/>
		</g>
		<g>
			<path class="st1" d="M669.6,369.7l-22,22l-22-22l22-22L669.6,369.7z"/>
			<path class="st2" d="M625.6,369.7h44l-22,22L625.6,369.7z"/>
		</g>
		<g>
			<path class="st1" d="M625.6,369.7l-22,22l-22-22l22-22L625.6,369.7z"/>
			<path class="st2" d="M581.5,369.7h44.1l-22,22L581.5,369.7z"/>
		</g>
		<g>
			<path class="st1" d="M669.6,325.7l-22,22l-22-22l22-22L669.6,325.7z"/>
			<path class="st2" d="M625.6,325.7h44l-22,22L625.6,325.7z"/>
		</g>
		<g>
			<path class="st1" d="M625.6,325.7l-22,22l-22-22l22-22L625.6,325.7z"/>
			<path class="st2" d="M581.5,325.7h44.1l-22,22L581.5,325.7z"/>
		</g>
		<g>
			<path class="st1" d="M603.5,347.7l-22,22l-22-22l22-22L603.5,347.7z"/>
			<path class="st2" d="M559.5,347.6h44l-22,22L559.5,347.6z"/>
		</g>
		<g>
			<path class="st1" d="M559.5,347.7l-22,22l-22-22l22-22L559.5,347.7z"/>
			<path class="st2" d="M515.6,347.6h44l-22,22L515.6,347.6z"/>
		</g>
		<g>
			<path class="st1" d="M581.6,369.7l-22,22l-22-22l22-22L581.6,369.7z"/>
			<path class="st2" d="M537.5,369.7h44l-22,22L537.5,369.7z"/>
		</g>
		<g>
			<path class="st1" d="M537.6,369.7l-22,22l-22-22l22-22L537.6,369.7z"/>
			<path class="st2" d="M493.5,369.7h44l-22,22L493.5,369.7z"/>
		</g>
		<g>
			<path class="st1" d="M581.6,325.7l-22,22l-22-22l22-22L581.6,325.7z"/>
			<path class="st2" d="M537.5,325.7h44l-22,22L537.5,325.7z"/>
		</g>
		<g>
			<path class="st1" d="M537.6,325.7l-22,22l-22-22l22-22L537.6,325.7z"/>
			<path class="st2" d="M493.5,325.7h44l-22,22L493.5,325.7z"/>
		</g>
		<g>
			<path class="st1" d="M515.5,347.7l-22,22l-22-22l22-22L515.5,347.7z"/>
			<path class="st2" d="M471.6,347.6h44l-22,22L471.6,347.6z"/>
		</g>
		<g>
			<path class="st1" d="M471.5,347.7l-22,22l-22-22l22-22L471.5,347.7z"/>
			<path class="st2" d="M427.5,347.6h44.1l-22,22L427.5,347.6z"/>
		</g>
		<g>
			<path class="st1" d="M493.6,369.7l-22,22l-22-22l22-22L493.6,369.7z"/>
			<path class="st2" d="M449.5,369.7h44l-22,22L449.5,369.7z"/>
		</g>
		<g>
			<path class="st1" d="M449.6,369.7l-22,22l-22-22l22-22L449.6,369.7z"/>
			<path class="st2" d="M405.5,369.7h44l-22,22L405.5,369.7z"/>
		</g>
		<g>
			<path class="st1" d="M493.6,325.7l-22,22l-22-22l22-22L493.6,325.7z"/>
			<path class="st2" d="M449.5,325.7h44l-22,22L449.5,325.7z"/>
		</g>
		<g>
			<path class="st1" d="M449.5,325.7l-22,22l-22-22l22-22L449.5,325.7z"/>
			<path class="st2" d="M405.5,325.7h44l-22,22L405.5,325.7z"/>
		</g>
		<g>
			<path class="st1" d="M427.5,347.6l-22,22l-22-22l22-22L427.5,347.6z"/>
			<path class="st2" d="M383.5,347.6h44l-22,22L383.5,347.6z"/>
		</g>
		<g>
			<path class="st1" d="M383.5,347.7l-22,22l-22-22l22-22L383.5,347.7z"/>
			<path class="st2" d="M339.5,347.6h44l-22,22L339.5,347.6z"/>
		</g>
		<g>
			<path class="st1" d="M405.5,369.7l-22,22l-22-22l22-22L405.5,369.7z"/>
			<path class="st2" d="M361.5,369.7h44l-22,22L361.5,369.7z"/>
		</g>
		<g>
			<path class="st1" d="M361.5,369.7l-22,22l-22-22l22-22L361.5,369.7z"/>
			<path class="st2" d="M317.5,369.7h44l-22,22L317.5,369.7z"/>
		</g>
		<g>
			<path class="st1" d="M405.5,325.7l-22,22l-22-22l22-22L405.5,325.7z"/>
			<path class="st2" d="M361.5,325.7h44l-22,22L361.5,325.7z"/>
		</g>
		<g>
			<path class="st1" d="M361.5,325.7l-22,22l-22-22l22-22L361.5,325.7z"/>
			<path class="st2" d="M317.5,325.7h44l-22,22L317.5,325.7z"/>
		</g>
		<g>
			<path class="st1" d="M339.5,347.7l-22,22l-22-22l22-22L339.5,347.7z"/>
			<path class="st2" d="M295.5,347.6h44l-22,22L295.5,347.6z"/>
		</g>
		<g>
			<path class="st1" d="M295.5,347.7l-22,22l-22-22l22-22L295.5,347.7z"/>
			<path class="st2" d="M251.5,347.6h44l-22,22L251.5,347.6z"/>
		</g>
		<g>
			<path class="st1" d="M317.5,369.7l-22,22l-22-22l22-22L317.5,369.7z"/>
			<path class="st2" d="M273.5,369.7h44l-22,22L273.5,369.7z"/>
		</g>
		<g>
			<path class="st1" d="M273.5,369.7l-22,22l-22-22l22-22L273.5,369.7z"/>
			<path class="st2" d="M229.5,369.7h44.1l-22,22L229.5,369.7z"/>
		</g>
		<g>
			<path class="st1" d="M317.5,325.7l-22,22l-22-22l22-22L317.5,325.7z"/>
			<path class="st2" d="M273.5,325.7h44l-22,22L273.5,325.7z"/>
		</g>
		<g>
			<path class="st1" d="M273.5,325.7l-22,22l-22-22l22-22L273.5,325.7z"/>
			<path class="st2" d="M229.5,325.7h44.1l-22,22L229.5,325.7z"/>
		</g>
		<g>
			<path class="st1" d="M251.5,347.7l-22,22l-22-22l22-22L251.5,347.7z"/>
			<path class="st2" d="M207.5,347.6h44l-22,22L207.5,347.6z"/>
		</g>
		<g>
			<path class="st1" d="M207.5,347.7l-22,22l-22-22l22-22L207.5,347.7z"/>
			<path class="st2" d="M163.5,347.6h44l-22,22L163.5,347.6z"/>
		</g>
		<g>
			<path class="st1" d="M229.5,369.7l-22,22l-22-22l22-22L229.5,369.7z"/>
			<path class="st2" d="M185.5,369.7h44l-22,22L185.5,369.7z"/>
		</g>
		<g>
			<path class="st1" d="M185.5,369.7l-22,22l-22-22l22-22L185.5,369.7z"/>
			<path class="st2" d="M141.5,369.7h44l-22,22L141.5,369.7z"/>
		</g>
		<g>
			<path class="st1" d="M229.5,325.7l-22,22l-22-22l22-22L229.5,325.7z"/>
			<path class="st2" d="M185.5,325.7h44l-22,22L185.5,325.7z"/>
		</g>
		<g>
			<path class="st1" d="M185.5,325.7l-22,22l-22-22l22-22L185.5,325.7z"/>
			<path class="st2" d="M141.5,325.7h44l-22,22L141.5,325.7z"/>
		</g>
		<g>
			<path class="st1" d="M163.5,347.7l-22,22l-22-22l22-22L163.5,347.7z"/>
			<path class="st2" d="M119.5,347.6h44l-22,22L119.5,347.6z"/>
		</g>
		<g>
			<path class="st1" d="M119.5,347.6l-22,22l-22-22l22-22L119.5,347.6z"/>
			<path class="st2" d="M75.5,347.6h44.1l-22,22L75.5,347.6z"/>
		</g>
		<g>
			<path class="st1" d="M141.5,369.7l-22,22l-22-22l22-22L141.5,369.7z"/>
			<path class="st2" d="M97.5,369.7h44l-22,22L97.5,369.7z"/>
		</g>
		<g>
			<path class="st1" d="M97.5,369.7l-22,22l-22-22l22-22L97.5,369.7z"/>
			<path class="st2" d="M53.5,369.7h44l-22,22L53.5,369.7z"/>
		</g>
		<g>
			<path class="st1" d="M141.5,325.7l-22,22l-22-22l22-22L141.5,325.7z"/>
			<path class="st2" d="M97.5,325.7h44l-22,22L97.5,325.7z"/>
		</g>
		<g>
			<path class="st1" d="M97.5,325.7l-22,22l-22-22l22-22L97.5,325.7z"/>
			<path class="st2" d="M53.5,325.7h44l-22,22L53.5,325.7z"/>
		</g>
		<g>
			<path class="st1" d="M75.5,347.7l-22,22l-22-22l22-22L75.5,347.7z"/>
			<path class="st2" d="M31.5,347.6h44l-22,22L31.5,347.6z"/>
		</g>
		<g>
			<path class="st1" d="M31.5,347.7l-22,22l-22-22l22-22L31.5,347.7z"/>
			<path class="st2" d="M-12.5,347.6h44l-22,22L-12.5,347.6z"/>
		</g>
		<g>
			<path class="st1" d="M53.5,369.7l-22,22l-22-22l22-22L53.5,369.7z"/>
			<path class="st2" d="M9.5,369.7h44l-22,22L9.5,369.7z"/>
		</g>
		<g>
			<path class="st1" d="M9.5,369.7l-22,22l-22-22l22-22L9.5,369.7z"/>
			<path class="st2" d="M-34.5,369.7h44l-22,22L-34.5,369.7z"/>
		</g>
		<g>
			<path class="st1" d="M53.5,325.7l-22,22l-22-22l22-22L53.5,325.7z"/>
			<path class="st2" d="M9.5,325.7h44l-22,22L9.5,325.7z"/>
		</g>
		<g>
			<path class="st1" d="M9.5,325.7l-22,22l-22-22l22-22L9.5,325.7z"/>
			<path class="st2" d="M-34.5,325.7h44l-22,22L-34.5,325.7z"/>
		</g>
		<g>
			<path class="st1" d="M-12.5,391.7l22,22l-22,22l-22-22L-12.5,391.7z"/>
			<path class="st2" d="M9.5,413.7h-44l22,22L9.5,413.7z"/>
		</g>
		<g>
			<path class="st1" d="M31.5,391.7l22,22l-22,22l-22-22L31.5,391.7z"/>
			<path class="st2" d="M53.5,413.7h-44l22,22L53.5,413.7z"/>
		</g>
		<g>
			<path class="st1" d="M9.5,413.7l22,22l-22,22l-22-22L9.5,413.7z"/>
			<path class="st2" d="M31.5,435.7h-44l22,22L31.5,435.7z"/>
		</g>
		<g>
			<path class="st1" d="M53.5,413.6l22,22l-22,22l-22-22L53.5,413.6z"/>
			<path class="st2" d="M75.5,435.7h-44l22,22L75.5,435.7z"/>
		</g>
		<g>
			<path class="st1" d="M9.5,369.7l22,22l-22,22l-22-22L9.5,369.7z"/>
			<path class="st2" d="M31.5,391.7h-44l22,22L31.5,391.7z"/>
		</g>
		<g>
			<path class="st1" d="M53.5,369.6l22,22l-22,22l-22-22L53.5,369.6z"/>
			<path class="st2" d="M75.5,391.7h-44l22,22L75.5,391.7z"/>
		</g>
		<g>
			<path class="st1" d="M75.5,391.7l22,22l-22,22l-22-22L75.5,391.7z"/>
			<path class="st2" d="M97.5,413.7h-44l22,22L97.5,413.7z"/>
		</g>
		<g>
			<path class="st1" d="M119.5,391.7l22,22l-22,22l-22-22L119.5,391.7z"/>
			<path class="st2" d="M141.5,413.7h-44l22,22L141.5,413.7z"/>
		</g>
		<g>
			<path class="st1" d="M97.5,413.6l22,22l-22,22l-22-22L97.5,413.6z"/>
			<path class="st2" d="M119.5,435.7H75.5l22,22L119.5,435.7z"/>
		</g>
		<g>
			<path class="st1" d="M141.5,413.7l22,22l-22,22l-22-22L141.5,413.7z"/>
			<path class="st2" d="M163.5,435.7h-44l22,22L163.5,435.7z"/>
		</g>
		<g>
			<path class="st1" d="M97.5,369.6l22,22l-22,22l-22-22L97.5,369.6z"/>
			<path class="st2" d="M119.5,391.7H75.5l22,22L119.5,391.7z"/>
		</g>
		<g>
			<path class="st1" d="M141.5,369.7l22,22l-22,22l-22-22L141.5,369.7z"/>
			<path class="st2" d="M163.5,391.7h-44l22,22L163.5,391.7z"/>
		</g>
		<g>
			<path class="st1" d="M163.5,391.7l22,22l-22,22l-22-22L163.5,391.7z"/>
			<path class="st2" d="M185.5,413.7h-44l22,22L185.5,413.7z"/>
		</g>
		<g>
			<path class="st1" d="M207.5,391.7l22,22l-22,22l-22-22L207.5,391.7z"/>
			<path class="st2" d="M229.5,413.7h-44l22,22L229.5,413.7z"/>
		</g>
		<g>
			<path class="st1" d="M185.5,413.7l22,22l-22,22l-22-22L185.5,413.7z"/>
			<path class="st2" d="M207.5,435.7h-44l22,22L207.5,435.7z"/>
		</g>
		<g>
			<path class="st1" d="M229.5,413.7l22,22l-22,22l-22-22L229.5,413.7z"/>
			<path class="st2" d="M251.5,435.7h-44l22,22L251.5,435.7z"/>
		</g>
		<g>
			<path class="st1" d="M185.5,369.7l22,22l-22,22l-22-22L185.5,369.7z"/>
			<path class="st2" d="M207.5,391.7h-44l22,22L207.5,391.7z"/>
		</g>
		<g>
			<path class="st1" d="M229.5,369.7l22,22l-22,22l-22-22L229.5,369.7z"/>
			<path class="st2" d="M251.5,391.7h-44l22,22L251.5,391.7z"/>
		</g>
		<g>
			<path class="st1" d="M251.5,391.7l22,22l-22,22l-22-22L251.5,391.7z"/>
			<path class="st2" d="M273.5,413.7h-44.1l22,22L273.5,413.7z"/>
		</g>
		<g>
			<path class="st1" d="M295.5,391.7l22,22l-22,22l-22-22L295.5,391.7z"/>
			<path class="st2" d="M317.5,413.7h-44l22,22L317.5,413.7z"/>
		</g>
		<g>
			<path class="st1" d="M273.5,413.7l22,22l-22,22l-22-22L273.5,413.7z"/>
			<path class="st2" d="M295.5,435.7h-44l22,22L295.5,435.7z"/>
		</g>
		<g>
			<path class="st1" d="M317.5,413.7l22,22l-22,22l-22-22L317.5,413.7z"/>
			<path class="st2" d="M339.5,435.7h-44l22,22L339.5,435.7z"/>
		</g>
		<g>
			<path class="st1" d="M273.5,369.7l22,22l-22,22l-22-22L273.5,369.7z"/>
			<path class="st2" d="M295.5,391.7h-44l22,22L295.5,391.7z"/>
		</g>
		<g>
			<path class="st1" d="M317.5,369.7l22,22l-22,22l-22-22L317.5,369.7z"/>
			<path class="st2" d="M339.5,391.7h-44l22,22L339.5,391.7z"/>
		</g>
		<g>
			<path class="st1" d="M339.5,391.7l22,22l-22,22l-22-22L339.5,391.7z"/>
			<path class="st2" d="M361.5,413.7h-44l22,22L361.5,413.7z"/>
		</g>
		<g>
			<path class="st1" d="M383.5,391.7l22,22l-22,22l-22-22L383.5,391.7z"/>
			<path class="st2" d="M405.5,413.7h-44l22,22L405.5,413.7z"/>
		</g>
		<g>
			<path class="st1" d="M361.5,413.6l22,22l-22,22l-22-22L361.5,413.6z"/>
			<path class="st2" d="M383.5,435.7h-44l22,22L383.5,435.7z"/>
		</g>
		<g>
			<path class="st1" d="M405.5,413.6l22,22l-22,22l-22-22L405.5,413.6z"/>
			<path class="st2" d="M427.5,435.7h-44l22,22L427.5,435.7z"/>
		</g>
		<g>
			<path class="st1" d="M361.5,369.6l22,22l-22,22l-22-22L361.5,369.6z"/>
			<path class="st2" d="M383.5,391.7h-44l22,22L383.5,391.7z"/>
		</g>
		<g>
			<path class="st1" d="M405.5,369.6l22,22l-22,22l-22-22L405.5,369.6z"/>
			<path class="st2" d="M427.5,391.7h-44l22,22L427.5,391.7z"/>
		</g>
		<g>
			<path class="st1" d="M427.5,391.7l22,22l-22,22l-22-22L427.5,391.7z"/>
			<path class="st2" d="M449.5,413.7h-44l22,22L449.5,413.7z"/>
		</g>
		<g>
			<path class="st1" d="M471.5,391.7l22,22l-22,22l-22-22L471.5,391.7z"/>
			<path class="st2" d="M493.5,413.7h-44l22,22L493.5,413.7z"/>
		</g>
		<g>
			<path class="st1" d="M449.6,413.7l22,22l-22,22l-22-22L449.6,413.7z"/>
			<path class="st2" d="M471.6,435.7h-44.1l22,22L471.6,435.7z"/>
		</g>
		<g>
			<path class="st1" d="M493.6,413.7l22,22l-22,22l-22-22L493.6,413.7z"/>
			<path class="st2" d="M515.6,435.7h-44l22,22L515.6,435.7z"/>
		</g>
		<g>
			<path class="st1" d="M449.5,369.7l22,22l-22,22l-22-22L449.5,369.7z"/>
			<path class="st2" d="M471.6,391.7h-44.1l22,22L471.6,391.7z"/>
		</g>
		<g>
			<path class="st1" d="M493.5,369.7l22,22l-22,22l-22-22L493.5,369.7z"/>
			<path class="st2" d="M515.6,391.7h-44l22,22L515.6,391.7z"/>
		</g>
		<g>
			<path class="st1" d="M515.5,391.7l22,22l-22,22l-22-22L515.5,391.7z"/>
			<path class="st2" d="M537.5,413.7h-44l22,22L537.5,413.7z"/>
		</g>
		<g>
			<path class="st1" d="M559.5,391.7l22,22l-22,22l-22-22L559.5,391.7z"/>
			<path class="st2" d="M581.5,413.7h-44l22,22L581.5,413.7z"/>
		</g>
		<g>
			<path class="st1" d="M537.6,413.7l22,22l-22,22l-22-22L537.6,413.7z"/>
			<path class="st2" d="M559.5,435.7h-44l22,22L559.5,435.7z"/>
		</g>
		<g>
			<path class="st1" d="M581.6,413.7l22,22l-22,22l-22-22L581.6,413.7z"/>
			<path class="st2" d="M603.5,435.7h-44l22,22L603.5,435.7z"/>
		</g>
		<g>
			<path class="st1" d="M537.5,369.7l22,22l-22,22l-22-22L537.5,369.7z"/>
			<path class="st2" d="M559.5,391.7h-44l22,22L559.5,391.7z"/>
		</g>
		<g>
			<path class="st1" d="M581.5,369.7l22,22l-22,22l-22-22L581.5,369.7z"/>
			<path class="st2" d="M603.5,391.7h-44l22,22L603.5,391.7z"/>
		</g>
		<g>
			<path class="st1" d="M603.5,391.7l22,22l-22,22l-22-22L603.5,391.7z"/>
			<path class="st2" d="M625.6,413.7h-44.1l22,22L625.6,413.7z"/>
		</g>
		<g>
			<path class="st1" d="M647.6,391.7l22,22l-22,22l-22-22L647.6,391.7z"/>
			<path class="st2" d="M669.6,413.7h-44l22,22L669.6,413.7z"/>
		</g>
		<g>
			<path class="st1" d="M625.6,413.7l22,22l-22,22l-22-22L625.6,413.7z"/>
			<path class="st2" d="M647.5,435.7h-44l22,22L647.5,435.7z"/>
		</g>
		<g>
			<path class="st1" d="M669.6,413.6l22,22l-22,22l-22-22L669.6,413.6z"/>
			<path class="st2" d="M691.5,435.7h-44l22,22L691.5,435.7z"/>
		</g>
		<g>
			<path class="st1" d="M625.5,369.7l22,22l-22,22l-22-22L625.5,369.7z"/>
			<path class="st2" d="M647.5,391.7h-44l22,22L647.5,391.7z"/>
		</g>
		<g>
			<path class="st1" d="M669.5,369.6l22,22l-22,22l-22-22L669.5,369.6z"/>
			<path class="st2" d="M691.5,391.7h-44l22,22L691.5,391.7z"/>
		</g>
		<g>
			<path class="st1" d="M691.6,391.7l22,22l-22,22l-22-22L691.6,391.7z"/>
			<path class="st2" d="M713.6,413.7h-44l22,22L713.6,413.7z"/>
		</g>
		<g>
			<path class="st1" d="M735.6,391.7l22,22l-22,22l-22-22L735.6,391.7z"/>
			<path class="st2" d="M757.6,413.7h-44l22,22L757.6,413.7z"/>
		</g>
		<g>
			<path class="st1" d="M713.6,413.6l22,22l-22,22l-22-22L713.6,413.6z"/>
			<path class="st2" d="M735.5,435.7h-44l22,22L735.5,435.7z"/>
		</g>
		<g>
			<path class="st1" d="M757.6,413.6l22,22l-22,22l-22-22L757.6,413.6z"/>
			<path class="st2" d="M779.6,435.7h-44.1l22,22L779.6,435.7z"/>
		</g>
		<g>
			<path class="st1" d="M713.5,369.6l22,22l-22,22l-22-22L713.5,369.6z"/>
			<path class="st2" d="M735.5,391.7h-44l22,22L735.5,391.7z"/>
		</g>
		<g>
			<path class="st1" d="M757.5,369.6l22,22l-22,22l-22-22L757.5,369.6z"/>
			<path class="st2" d="M779.6,391.7h-44.1l22,22L779.6,391.7z"/>
		</g>
		<g>
			<path class="st1" d="M779.6,479.7l-22,22l-22-22l22-22L779.6,479.7z"/>
			<path class="st2" d="M735.5,479.7h44.1l-22,22L735.5,479.7z"/>
		</g>
		<g>
			<path class="st1" d="M735.6,479.7l-22,22l-22-22l22-22L735.6,479.7z"/>
			<path class="st2" d="M691.5,479.7h44l-22,22L691.5,479.7z"/>
		</g>
		<g>
			<path class="st1" d="M757.6,501.7l-22,22l-22-22l22-22L757.6,501.7z"/>
			<path class="st2" d="M713.6,501.7h44l-22,22L713.6,501.7z"/>
		</g>
		<g>
			<path class="st1" d="M713.6,501.7l-22,22l-22-22l22-22L713.6,501.7z"/>
			<path class="st2" d="M669.6,501.7h44l-22,22L669.6,501.7z"/>
		</g>
		<g>
			<path class="st1" d="M757.6,457.7l-22,22l-22-22l22-22L757.6,457.7z"/>
			<path class="st2" d="M713.6,457.7h44l-22,22L713.6,457.7z"/>
		</g>
		<g>
			<path class="st1" d="M713.6,457.7l-22,22l-22-22l22-22L713.6,457.7z"/>
			<path class="st2" d="M669.6,457.7h44l-22,22L669.6,457.7z"/>
		</g>
		<g>
			<path class="st1" d="M691.6,479.7l-22,22l-22-22l22-22L691.6,479.7z"/>
			<path class="st2" d="M647.5,479.7h44l-22,22L647.5,479.7z"/>
		</g>
		<g>
			<path class="st1" d="M647.6,479.7l-22,22l-22-22l22-22L647.6,479.7z"/>
			<path class="st2" d="M603.5,479.7h44l-22,22L603.5,479.7z"/>
		</g>
		<g>
			<path class="st1" d="M669.5,501.7l-22,22l-22-22l22-22L669.5,501.7z"/>
			<path class="st2" d="M625.6,501.7h44l-22,22L625.6,501.7z"/>
		</g>
		<g>
			<path class="st1" d="M625.6,501.7l-22,22l-22-22l22-22L625.6,501.7z"/>
			<path class="st2" d="M581.5,501.7h44.1l-22,22L581.5,501.7z"/>
		</g>
		<g>
			<path class="st1" d="M669.5,457.7l-22,22l-22-22l22-22L669.5,457.7z"/>
			<path class="st2" d="M625.6,457.7h44l-22,22L625.6,457.7z"/>
		</g>
		<g>
			<path class="st1" d="M625.6,457.6l-22,22l-22-22l22-22L625.6,457.6z"/>
			<path class="st2" d="M581.5,457.7h44.1l-22,22L581.5,457.7z"/>
		</g>
		<g>
			<path class="st1" d="M603.6,479.7l-22,22l-22-22l22-22L603.6,479.7z"/>
			<path class="st2" d="M559.5,479.7h44l-22,22L559.5,479.7z"/>
		</g>
		<g>
			<path class="st1" d="M559.6,479.7l-22,22l-22-22l22-22L559.6,479.7z"/>
			<path class="st2" d="M515.6,479.7h44l-22,22L515.6,479.7z"/>
		</g>
		<g>
			<path class="st1" d="M581.6,501.7l-22,22l-22-22l22-22L581.6,501.7z"/>
			<path class="st2" d="M537.5,501.7h44l-22,22L537.5,501.7z"/>
		</g>
		<g>
			<path class="st1" d="M537.6,501.7l-22,22l-22-22l22-22L537.6,501.7z"/>
			<path class="st2" d="M493.5,501.7h44l-22,22L493.5,501.7z"/>
		</g>
		<g>
			<path class="st1" d="M581.6,457.7l-22,22l-22-22l22-22L581.6,457.7z"/>
			<path class="st2" d="M537.5,457.7h44l-22,22L537.5,457.7z"/>
		</g>
		<g>
			<path class="st1" d="M537.5,457.7l-22,22l-22-22l22-22L537.5,457.7z"/>
			<path class="st2" d="M493.5,457.7h44l-22,22L493.5,457.7z"/>
		</g>
		<g>
			<path class="st1" d="M515.5,479.7l-22,22l-22-22l22-22L515.5,479.7z"/>
			<path class="st2" d="M471.6,479.7h44l-22,22L471.6,479.7z"/>
		</g>
		<g>
			<path class="st1" d="M471.5,479.7l-22,22l-22-22l22-22L471.5,479.7z"/>
			<path class="st2" d="M427.5,479.7h44.1l-22,22L427.5,479.7z"/>
		</g>
		<g>
			<path class="st1" d="M493.5,501.7l-22,22l-22-22l22-22L493.5,501.7z"/>
			<path class="st2" d="M449.5,501.7h44l-22,22L449.5,501.7z"/>
		</g>
		<g>
			<path class="st1" d="M449.5,501.7l-22,22l-22-22l22-22L449.5,501.7z"/>
			<path class="st2" d="M405.5,501.7h44l-22,22L405.5,501.7z"/>
		</g>
		<g>
			<path class="st1" d="M493.5,457.7l-22,22l-22-22l22-22L493.5,457.7z"/>
			<path class="st2" d="M449.5,457.7h44l-22,22L449.5,457.7z"/>
		</g>
		<g>
			<path class="st1" d="M449.5,457.7l-22,22l-22-22l22-22L449.5,457.7z"/>
			<path class="st2" d="M405.5,457.7h44l-22,22L405.5,457.7z"/>
		</g>
		<g>
			<path class="st1" d="M427.6,479.7l-22,22l-22-22l22-22L427.6,479.7z"/>
			<path class="st2" d="M383.5,479.7h44l-22,22L383.5,479.7z"/>
		</g>
		<g>
			<path class="st1" d="M383.5,479.7l-22,22l-22-22l22-22L383.5,479.7z"/>
			<path class="st2" d="M339.5,479.7h44l-22,22L339.5,479.7z"/>
		</g>
		<g>
			<path class="st1" d="M405.5,501.7l-22,22l-22-22l22-22L405.5,501.7z"/>
			<path class="st2" d="M361.5,501.7h44l-22,22L361.5,501.7z"/>
		</g>
		<g>
			<path class="st1" d="M361.5,501.7l-22,22l-22-22l22-22L361.5,501.7z"/>
			<path class="st2" d="M317.5,501.7h44l-22,22L317.5,501.7z"/>
		</g>
		<g>
			<path class="st1" d="M405.5,457.7l-22,22l-22-22l22-22L405.5,457.7z"/>
			<path class="st2" d="M361.5,457.7h44l-22,22L361.5,457.7z"/>
		</g>
		<g>
			<path class="st1" d="M361.5,457.7l-22,22l-22-22l22-22L361.5,457.7z"/>
			<path class="st2" d="M317.5,457.7h44l-22,22L317.5,457.7z"/>
		</g>
		<g>
			<path class="st1" d="M339.5,479.7l-22,22l-22-22l22-22L339.5,479.7z"/>
			<path class="st2" d="M295.5,479.7h44l-22,22L295.5,479.7z"/>
		</g>
		<g>
			<path class="st1" d="M295.5,479.7l-22,22l-22-22l22-22L295.5,479.7z"/>
			<path class="st2" d="M251.5,479.7h44l-22,22L251.5,479.7z"/>
		</g>
		<g>
			<path class="st1" d="M317.5,501.7l-22,22l-22-22l22-22L317.5,501.7z"/>
			<path class="st2" d="M273.5,501.7h44l-22,22L273.5,501.7z"/>
		</g>
		<g>
			<path class="st1" d="M273.5,501.7l-22,22l-22-22l22-22L273.5,501.7z"/>
			<path class="st2" d="M229.5,501.7h44.1l-22,22L229.5,501.7z"/>
		</g>
		<g>
			<path class="st1" d="M317.5,457.7l-22,22l-22-22l22-22L317.5,457.7z"/>
			<path class="st2" d="M273.5,457.7h44l-22,22L273.5,457.7z"/>
		</g>
		<g>
			<path class="st1" d="M273.5,457.7l-22,22l-22-22l22-22L273.5,457.7z"/>
			<path class="st2" d="M229.5,457.7h44.1l-22,22L229.5,457.7z"/>
		</g>
		<g>
			<path class="st1" d="M251.5,479.7l-22,22l-22-22l22-22L251.5,479.7z"/>
			<path class="st2" d="M207.5,479.7h44l-22,22L207.5,479.7z"/>
		</g>
		<g>
			<path class="st1" d="M207.5,479.7l-22,22l-22-22l22-22L207.5,479.7z"/>
			<path class="st2" d="M163.5,479.7h44l-22,22L163.5,479.7z"/>
		</g>
		<g>
			<path class="st1" d="M229.5,501.7l-22,22l-22-22l22-22L229.5,501.7z"/>
			<path class="st2" d="M185.5,501.7h44l-22,22L185.5,501.7z"/>
		</g>
		<g>
			<path class="st1" d="M185.5,501.7l-22,22l-22-22l22-22L185.5,501.7z"/>
			<path class="st2" d="M141.5,501.7h44l-22,22L141.5,501.7z"/>
		</g>
		<g>
			<path class="st1" d="M229.5,457.7l-22,22l-22-22l22-22L229.5,457.7z"/>
			<path class="st2" d="M185.5,457.7h44l-22,22L185.5,457.7z"/>
		</g>
		<g>
			<path class="st1" d="M185.5,457.7l-22,22l-22-22l22-22L185.5,457.7z"/>
			<path class="st2" d="M141.5,457.7h44l-22,22L141.5,457.7z"/>
		</g>
		<g>
			<path class="st1" d="M163.5,479.7l-22,22l-22-22l22-22L163.5,479.7z"/>
			<path class="st2" d="M119.5,479.7h44l-22,22L119.5,479.7z"/>
		</g>
		<g>
			<path class="st1" d="M119.5,479.7l-22,22l-22-22l22-22L119.5,479.7z"/>
			<path class="st2" d="M75.5,479.7h44.1l-22,22L75.5,479.7z"/>
		</g>
		<g>
			<path class="st1" d="M141.5,501.7l-22,22l-22-22l22-22L141.5,501.7z"/>
			<path class="st2" d="M97.5,501.7h44l-22,22L97.5,501.7z"/>
		</g>
		<g>
			<path class="st1" d="M97.5,501.7l-22,22l-22-22l22-22L97.5,501.7z"/>
			<path class="st2" d="M53.5,501.7h44l-22,22L53.5,501.7z"/>
		</g>
		<g>
			<path class="st1" d="M141.5,457.7l-22,22l-22-22l22-22L141.5,457.7z"/>
			<path class="st2" d="M97.5,457.7h44l-22,22L97.5,457.7z"/>
		</g>
		<g>
			<path class="st1" d="M97.5,457.7l-22,22l-22-22l22-22L97.5,457.7z"/>
			<path class="st2" d="M53.5,457.7h44l-22,22L53.5,457.7z"/>
		</g>
		<g>
			<path class="st1" d="M75.5,479.7l-22,22l-22-22l22-22L75.5,479.7z"/>
			<path class="st2" d="M31.5,479.7h44l-22,22L31.5,479.7z"/>
		</g>
		<g>
			<path class="st1" d="M31.5,479.7l-22,22l-22-22l22-22L31.5,479.7z"/>
			<path class="st2" d="M-12.5,479.7h44l-22,22L-12.5,479.7z"/>
		</g>
		<g>
			<path class="st1" d="M53.5,501.7l-22,22l-22-22l22-22L53.5,501.7z"/>
			<path class="st2" d="M9.5,501.7h44l-22,22L9.5,501.7z"/>
		</g>
		<g>
			<path class="st1" d="M9.5,501.7l-22,22l-22-22l22-22L9.5,501.7z"/>
			<path class="st2" d="M-34.5,501.7h44l-22,22L-34.5,501.7z"/>
		</g>
		<g>
			<path class="st1" d="M53.5,457.7l-22,22l-22-22l22-22L53.5,457.7z"/>
			<path class="st2" d="M9.5,457.7h44l-22,22L9.5,457.7z"/>
		</g>
		<g>
			<path class="st1" d="M9.4,457.7l-22,22l-22-22l22-22L9.4,457.7z"/>
			<path class="st2" d="M-34.5,457.7h44l-22,22L-34.5,457.7z"/>
		</g>
		<g>
			<path class="st1" d="M-12.5,523.7l22,22l-22,22l-22-22L-12.5,523.7z"/>
		</g>
		<g>
			<path class="st1" d="M31.5,523.7l22,22l-22,22l-22-22L31.5,523.7z"/>
		</g>
		<g>
			<path class="st1" d="M9.5,501.7l22,22l-22,22l-22-22L9.5,501.7z"/>
			<path class="st2" d="M31.5,523.7h-44l22,22L31.5,523.7z"/>
		</g>
		<g>
			<path class="st1" d="M53.5,501.6l22,22l-22,22l-22-22L53.5,501.6z"/>
			<path class="st2" d="M75.5,523.7h-44l22,22L75.5,523.7z"/>
		</g>
		<g>
			<path class="st1" d="M75.5,523.7l22,22l-22,22l-22-22L75.5,523.7z"/>
		</g>
		<g>
			<path class="st1" d="M119.5,523.7l22,22l-22,22l-22-22L119.5,523.7z"/>
		</g>
		<g>
			<path class="st1" d="M97.5,501.6l22,22l-22,22l-22-22L97.5,501.6z"/>
			<path class="st2" d="M119.5,523.7H75.5l22,22L119.5,523.7z"/>
		</g>
		<g>
			<path class="st1" d="M141.5,501.7l22,22l-22,22l-22-22L141.5,501.7z"/>
			<path class="st2" d="M163.5,523.7h-44l22,22L163.5,523.7z"/>
		</g>
		<g>
			<path class="st1" d="M163.5,523.7l22,22l-22,22l-22-22L163.5,523.7z"/>
		</g>
		<g>
			<path class="st1" d="M207.5,523.7l22,22l-22,22l-22-22L207.5,523.7z"/>
		</g>
		<g>
			<path class="st1" d="M185.5,501.7l22,22l-22,22l-22-22L185.5,501.7z"/>
			<path class="st2" d="M207.5,523.7h-44l22,22L207.5,523.7z"/>
		</g>
		<g>
			<path class="st1" d="M229.5,501.7l22,22l-22,22l-22-22L229.5,501.7z"/>
			<path class="st2" d="M251.5,523.7h-44l22,22L251.5,523.7z"/>
		</g>
		<g>
			<path class="st1" d="M251.5,523.7l22,22l-22,22l-22-22L251.5,523.7z"/>
		</g>
		<g>
			<path class="st1" d="M295.5,523.7l22,22l-22,22l-22-22L295.5,523.7z"/>
		</g>
		<g>
			<path class="st1" d="M273.5,501.7l22,22l-22,22l-22-22L273.5,501.7z"/>
			<path class="st2" d="M295.5,523.7h-44l22,22L295.5,523.7z"/>
		</g>
		<g>
			<path class="st1" d="M317.5,501.7l22,22l-22,22l-22-22L317.5,501.7z"/>
			<path class="st2" d="M339.5,523.7h-44l22,22L339.5,523.7z"/>
		</g>
		<g>
			<path class="st1" d="M339.5,523.7l22,22l-22,22l-22-22L339.5,523.7z"/>
		</g>
		<g>
			<path class="st1" d="M383.5,523.7l22,22l-22,22l-22-22L383.5,523.7z"/>
		</g>
		<g>
			<path class="st1" d="M361.5,501.6l22,22l-22,22l-22-22L361.5,501.6z"/>
			<path class="st2" d="M383.5,523.7h-44l22,22L383.5,523.7z"/>
		</g>
		<g>
			<path class="st1" d="M405.5,501.6l22,22l-22,22l-22-22L405.5,501.6z"/>
			<path class="st2" d="M427.5,523.7h-44l22,22L427.5,523.7z"/>
		</g>
		<g>
			<path class="st1" d="M427.5,523.7l22,22l-22,22l-22-22L427.5,523.7z"/>
		</g>
		<g>
			<path class="st1" d="M471.5,523.7l22,22l-22,22l-22-22L471.5,523.7z"/>
		</g>
		<g>
			<path class="st1" d="M449.6,501.7l22,22l-22,22l-22-22L449.6,501.7z"/>
			<path class="st2" d="M471.6,523.7h-44.1l22,22L471.6,523.7z"/>
		</g>
		<g>
			<path class="st1" d="M493.6,501.7l22,22l-22,22l-22-22L493.6,501.7z"/>
			<path class="st2" d="M515.6,523.7h-44l22,22L515.6,523.7z"/>
		</g>
		<g>
			<path class="st1" d="M515.5,523.7l22,22l-22,22l-22-22L515.5,523.7z"/>
		</g>
		<g>
			<path class="st1" d="M559.5,523.7l22,22l-22,22l-22-22L559.5,523.7z"/>
		</g>
		<g>
			<path class="st1" d="M537.6,501.7l22,22l-22,22l-22-22L537.6,501.7z"/>
			<path class="st2" d="M559.5,523.7h-44l22,22L559.5,523.7z"/>
		</g>
		<g>
			<path class="st1" d="M581.6,501.7l22,22l-22,22l-22-22L581.6,501.7z"/>
			<path class="st2" d="M603.5,523.7h-44l22,22L603.5,523.7z"/>
		</g>
		<g>
			<path class="st1" d="M603.5,523.7l22,22l-22,22l-22-22L603.5,523.7z"/>
		</g>
		<g>
			<path class="st1" d="M647.6,523.7l22,22l-22,22l-22-22L647.6,523.7z"/>
		</g>
		<g>
			<path class="st1" d="M625.6,501.7l22,22l-22,22l-22-22L625.6,501.7z"/>
			<path class="st2" d="M647.5,523.7h-44l22,22L647.5,523.7z"/>
		</g>
		<g>
			<path class="st1" d="M669.6,501.6l22,22l-22,22l-22-22L669.6,501.6z"/>
			<path class="st2" d="M691.5,523.7h-44l22,22L691.5,523.7z"/>
		</g>
		<g>
			<path class="st1" d="M691.6,523.7l22,22l-22,22l-22-22L691.6,523.7z"/>
		</g>
		<g>
			<path class="st1" d="M735.6,523.7l22,22l-22,22l-22-22L735.6,523.7z"/>
		</g>
		<g>
			<path class="st1" d="M713.6,501.6l22,22l-22,22l-22-22L713.6,501.6z"/>
			<path class="st2" d="M735.5,523.7h-44l22,22L735.5,523.7z"/>
		</g>
		<g>
			<path class="st1" d="M757.6,501.6l22,22l-22,22l-22-22L757.6,501.6z"/>
			<path class="st2" d="M779.6,523.7h-44.1l22,22L779.6,523.7z"/>
		</g>
		<g>
			<g>
				<path class="st1" d="M1043.6,39.6l-22,22l-22-22l22-22L1043.6,39.6z"/>
				<path class="st2" d="M1021.6,61.6l22-22h-44L1021.6,61.6z"/>
			</g>
		</g>
		<g>
			<g>
				<path class="st1" d="M1043.6-4.4l-22,22l-22-22l22-22L1043.6-4.4z"/>
				<path class="st2" d="M1021.6,17.6l22-22h-44L1021.6,17.6z"/>
			</g>
		</g>
		<g>
			<g>
				<path class="st1" d="M1021.6,17.6l-22,22l-22-22l22-22L1021.6,17.6z"/>
				<path class="st2" d="M999.6,39.7l22-22h-44L999.6,39.7z"/>
			</g>
		</g>
		<g>
			<g>
				<path class="st1" d="M977.6,17.6l-22,22l-22-22l22-22L977.6,17.6z"/>
				<path class="st2" d="M955.6,39.7l22-22h-44L955.6,39.7z"/>
			</g>
		</g>
		<g>
			<g>
				<path class="st1" d="M999.6,39.6l-22,22l-22-22l22-22L999.6,39.6z"/>
				<path class="st2" d="M977.6,61.6l22-22h-44L977.6,61.6z"/>
			</g>
		</g>
		<g>
			<g>
				<path class="st1" d="M955.6,39.6l-22,22l-22-22l22-22L955.6,39.6z"/>
				<path class="st2" d="M933.6,61.6l22-22h-44L933.6,61.6z"/>
			</g>
		</g>
		<g>
			<g>
				<path class="st1" d="M999.6-4.4l-22,22l-22-22l22-22L999.6-4.4z"/>
				<path class="st2" d="M977.6,17.6l22-22h-44L977.6,17.6z"/>
			</g>
		</g>
		<g>
			<g>
				<path class="st1" d="M955.6-4.4l-22,22l-22-22l22-22L955.6-4.4z"/>
				<path class="st2" d="M933.6,17.6l22-22h-44L933.6,17.6z"/>
			</g>
		</g>
		<g>
			<g>
				<path class="st1" d="M933.6,17.6l-22,22l-22-22l22-22L933.6,17.6z"/>
				<path class="st2" d="M911.6,39.7l22-22h-44.1L911.6,39.7z"/>
			</g>
		</g>
		<g>
			<g>
				<path class="st1" d="M889.6,17.6l-22,22l-22-22l22-22L889.6,17.6z"/>
				<path class="st2" d="M867.6,39.7l22-22h-44L867.6,39.7z"/>
			</g>
		</g>
		<g>
			<g>
				<path class="st1" d="M911.6,39.6l-22,22l-22-22l22-22L911.6,39.6z"/>
				<path class="st2" d="M889.6,61.6l22-22h-44L889.6,61.6z"/>
			</g>
		</g>
		<g>
			<g>
				<path class="st1" d="M867.6,39.6l-22,22l-22-22l22-22L867.6,39.6z"/>
				<path class="st2" d="M845.6,61.6l22-22h-44L845.6,61.6z"/>
			</g>
		</g>
		<g>
			<g>
				<path class="st1" d="M911.6-4.4l-22,22l-22-22l22-22L911.6-4.4z"/>
				<path class="st2" d="M889.6,17.6l22-22h-44L889.6,17.6z"/>
			</g>
		</g>
		<g>
			<g>
				<path class="st1" d="M867.6-4.4l-22,22l-22-22l22-22L867.6-4.4z"/>
				<path class="st2" d="M845.6,17.6l22-22h-44L845.6,17.6z"/>
			</g>
		</g>
		<g>
			<g>
				<path class="st1" d="M845.6,17.6l-22,22l-22-22l22-22L845.6,17.6z"/>
				<path class="st2" d="M823.6,39.7l22-22h-44L823.6,39.7z"/>
			</g>
		</g>
		<g>
			<g>
				<path class="st1" d="M801.6,17.6l-22,22l-22-22l22-22L801.6,17.6z"/>
				<path class="st2" d="M779.6,39.7l22-22h-44L779.6,39.7z"/>
			</g>
		</g>
		<g>
			<g>
				<path class="st1" d="M823.6,39.6l-22,22l-22-22l22-22L823.6,39.6z"/>
				<path class="st2" d="M801.6,61.6l22-22h-44L801.6,61.6z"/>
			</g>
		</g>
		<g>
			<g>
				<path class="st1" d="M779.6,39.6l-22,22l-22-22l22-22L779.6,39.6z"/>
				<path class="st2" d="M757.6,61.6l22-22h-44.1L757.6,61.6z"/>
			</g>
		</g>
		<g>
			<g>
				<path class="st1" d="M823.6-4.4l-22,22l-22-22l22-22L823.6-4.4z"/>
				<path class="st2" d="M801.6,17.6l22-22h-44L801.6,17.6z"/>
			</g>
		</g>
		<g>
			<g>
				<path class="st1" d="M779.6-4.4l-22,22l-22-22l22-22L779.6-4.4z"/>
				<path class="st2" d="M757.6,17.6l22-22h-44.1L757.6,17.6z"/>
			</g>
		</g>
		<g>
			<g>
				<path class="st1" d="M757.5,61.6l22,22l-22,22l-22-22L757.5,61.6z"/>
				<path class="st2" d="M757.6,105.6l-22-22h44.1L757.6,105.6z"/>
			</g>
		</g>
		<g>
			<g>
				<path class="st1" d="M801.5,61.6l22,22l-22,22l-22-22L801.5,61.6z"/>
				<path class="st2" d="M801.6,105.6l-22-22h44L801.6,105.6z"/>
			</g>
		</g>
		<g>
			<g>
				<path class="st1" d="M779.6,83.6l22,22l-22,22l-22-22L779.6,83.6z"/>
				<path class="st2" d="M779.6,127.6l-22-22h44L779.6,127.6z"/>
			</g>
		</g>
		<g>
			<g>
				<path class="st1" d="M823.6,83.6l22,22l-22,22l-22-22L823.6,83.6z"/>
				<path class="st2" d="M823.6,127.6l-22-22h44L823.6,127.6z"/>
			</g>
		</g>
		<g>
			<g>
				<path class="st1" d="M779.6,39.6l22,22l-22,22l-22-22L779.6,39.6z"/>
				<path class="st2" d="M779.6,83.6l-22-22h44L779.6,83.6z"/>
			</g>
		</g>
		<g>
			<g>
				<path class="st1" d="M823.6,39.6l22,22l-22,22l-22-22L823.6,39.6z"/>
				<path class="st2" d="M823.6,83.6l-22-22h44L823.6,83.6z"/>
			</g>
		</g>
		<g>
			<g>
				<path class="st1" d="M845.6,61.6l22,22l-22,22l-22-22L845.6,61.6z"/>
				<path class="st2" d="M845.6,105.6l-22-22h44L845.6,105.6z"/>
			</g>
		</g>
		<g>
			<g>
				<path class="st1" d="M889.6,61.6l22,22l-22,22l-22-22L889.6,61.6z"/>
				<path class="st2" d="M889.6,105.6l-22-22h44L889.6,105.6z"/>
			</g>
		</g>
		<g>
			<g>
				<path class="st1" d="M867.6,83.6l22,22l-22,22l-22-22L867.6,83.6z"/>
				<path class="st2" d="M867.6,127.6l-22-22h44L867.6,127.6z"/>
			</g>
		</g>
		<g>
			<g>
				<path class="st1" d="M911.6,83.6l22,22l-22,22l-22-22L911.6,83.6z"/>
				<path class="st2" d="M911.6,127.6l-22-22h44.1L911.6,127.6z"/>
			</g>
		</g>
		<g>
			<g>
				<path class="st1" d="M867.6,39.6l22,22l-22,22l-22-22L867.6,39.6z"/>
				<path class="st2" d="M867.6,83.6l-22-22h44L867.6,83.6z"/>
			</g>
		</g>
		<g>
			<g>
				<path class="st1" d="M911.6,39.6l22,22l-22,22l-22-22L911.6,39.6z"/>
				<path class="st2" d="M911.6,83.6l-22-22h44.1L911.6,83.6z"/>
			</g>
		</g>
		<g>
			<g>
				<path class="st1" d="M933.6,61.6l22,22l-22,22l-22-22L933.6,61.6z"/>
				<path class="st2" d="M933.6,105.6l-22-22h44L933.6,105.6z"/>
			</g>
		</g>
		<g>
			<g>
				<path class="st1" d="M977.6,61.6l22,22l-22,22l-22-22L977.6,61.6z"/>
				<path class="st2" d="M977.6,105.6l-22-22h44L977.6,105.6z"/>
			</g>
		</g>
		<g>
			<g>
				<path class="st1" d="M955.6,83.6l22,22l-22,22l-22-22L955.6,83.6z"/>
				<path class="st2" d="M955.6,127.6l-22-22h44L955.6,127.6z"/>
			</g>
		</g>
		<g>
			<g>
				<path class="st1" d="M999.6,83.6l22,22l-22,22l-22-22L999.6,83.6z"/>
				<path class="st2" d="M999.6,127.6l-22-22h44L999.6,127.6z"/>
			</g>
		</g>
		<g>
			<g>
				<path class="st1" d="M955.6,39.6l22,22l-22,22l-22-22L955.6,39.6z"/>
				<path class="st2" d="M955.6,83.6l-22-22h44L955.6,83.6z"/>
			</g>
		</g>
		<g>
			<g>
				<path class="st1" d="M999.6,39.6l22,22l-22,22l-22-22L999.6,39.6z"/>
				<path class="st2" d="M999.6,83.6l-22-22h44L999.6,83.6z"/>
			</g>
		</g>
		<g>
			<g>
				<path class="st1" d="M1021.6,61.6l22,22l-22,22l-22-22L1021.6,61.6z"/>
				<path class="st2" d="M1021.6,105.6l-22-22h44L1021.6,105.6z"/>
			</g>
		</g>
		<g>
			<g>
				<path class="st1" d="M1043.6,171.6l-22,22l-22-22l22-22L1043.6,171.6z"/>
				<path class="st2" d="M1021.6,193.6l22-22h-44L1021.6,193.6z"/>
			</g>
		</g>
		<g>
			<g>
				<path class="st1" d="M1043.6,127.6l-22,22l-22-22l22-22L1043.6,127.6z"/>
				<path class="st2" d="M1021.6,149.6l22-22h-44L1021.6,149.6z"/>
			</g>
		</g>
		<g>
			<g>
				<path class="st1" d="M1021.6,149.6l-22,22l-22-22l22-22L1021.6,149.6z"/>
				<path class="st2" d="M999.6,171.6l22-22h-44L999.6,171.6z"/>
			</g>
		</g>
		<g>
			<g>
				<path class="st1" d="M977.6,149.6l-22,22l-22-22l22-22L977.6,149.6z"/>
				<path class="st2" d="M955.6,171.6l22-22h-44L955.6,171.6z"/>
			</g>
		</g>
		<g>
			<g>
				<path class="st1" d="M999.6,171.6l-22,22l-22-22l22-22L999.6,171.6z"/>
				<path class="st2" d="M977.6,193.6l22-22h-44L977.6,193.6z"/>
			</g>
		</g>
		<g>
			<g>
				<path class="st1" d="M955.6,171.6l-22,22l-22-22l22-22L955.6,171.6z"/>
				<path class="st2" d="M933.6,193.6l22-22h-44L933.6,193.6z"/>
			</g>
		</g>
		<g>
			<g>
				<path class="st1" d="M999.6,127.6l-22,22l-22-22l22-22L999.6,127.6z"/>
				<path class="st2" d="M977.6,149.6l22-22h-44L977.6,149.6z"/>
			</g>
		</g>
		<g>
			<g>
				<path class="st1" d="M955.6,127.6l-22,22l-22-22l22-22L955.6,127.6z"/>
				<path class="st2" d="M933.6,149.6l22-22h-44L933.6,149.6z"/>
			</g>
		</g>
		<g>
			<g>
				<path class="st1" d="M933.6,149.6l-22,22l-22-22l22-22L933.6,149.6z"/>
				<path class="st2" d="M911.6,171.6l22-22h-44.1L911.6,171.6z"/>
			</g>
		</g>
		<g>
			<g>
				<path class="st1" d="M889.6,149.7l-22,22l-22-22l22-22L889.6,149.7z"/>
				<path class="st2" d="M867.6,171.6l22-22h-44L867.6,171.6z"/>
			</g>
		</g>
		<g>
			<g>
				<path class="st1" d="M911.6,171.6l-22,22l-22-22l22-22L911.6,171.6z"/>
				<path class="st2" d="M889.6,193.6l22-22h-44L889.6,193.6z"/>
			</g>
		</g>
		<g>
			<g>
				<path class="st1" d="M867.6,171.6l-22,22l-22-22l22-22L867.6,171.6z"/>
				<path class="st2" d="M845.6,193.6l22-22h-44L845.6,193.6z"/>
			</g>
		</g>
		<g>
			<g>
				<path class="st1" d="M911.6,127.6l-22,22l-22-22l22-22L911.6,127.6z"/>
				<path class="st2" d="M889.6,149.6l22-22h-44L889.6,149.6z"/>
			</g>
		</g>
		<g>
			<g>
				<path class="st1" d="M867.6,127.6l-22,22l-22-22l22-22L867.6,127.6z"/>
				<path class="st2" d="M845.6,149.6l22-22h-44L845.6,149.6z"/>
			</g>
		</g>
		<g>
			<g>
				<path class="st1" d="M845.6,149.6l-22,22l-22-22l22-22L845.6,149.6z"/>
				<path class="st2" d="M823.6,171.6l22-22h-44L823.6,171.6z"/>
			</g>
		</g>
		<g>
			<g>
				<path class="st1" d="M801.6,149.6l-22,22l-22-22l22-22L801.6,149.6z"/>
				<path class="st2" d="M779.6,171.6l22-22h-44L779.6,171.6z"/>
			</g>
		</g>
		<g>
			<g>
				<path class="st1" d="M823.6,171.6l-22,22l-22-22l22-22L823.6,171.6z"/>
				<path class="st2" d="M801.6,193.6l22-22h-44L801.6,193.6z"/>
			</g>
		</g>
		<g>
			<g>
				<path class="st1" d="M779.6,171.6l-22,22l-22-22l22-22L779.6,171.6z"/>
				<path class="st2" d="M757.6,193.6l22-22h-44.1L757.6,193.6z"/>
			</g>
		</g>
		<g>
			<g>
				<path class="st1" d="M823.6,127.6l-22,22l-22-22l22-22L823.6,127.6z"/>
				<path class="st2" d="M801.6,149.6l22-22h-44L801.6,149.6z"/>
			</g>
		</g>
		<g>
			<g>
				<path class="st1" d="M779.6,127.6l-22,22l-22-22l22-22L779.6,127.6z"/>
				<path class="st2" d="M757.6,149.6l22-22h-44.1L757.6,149.6z"/>
			</g>
		</g>
		<g>
			<g>
				<path class="st1" d="M757.6,193.6l22,22l-22,22l-22-22L757.6,193.6z"/>
				<path class="st2" d="M757.6,237.7l-22-22h44.1L757.6,237.7z"/>
			</g>
		</g>
		<g>
			<g>
				<path class="st1" d="M801.6,193.6l22,22l-22,22l-22-22L801.6,193.6z"/>
				<path class="st2" d="M801.6,237.7l-22-22h44L801.6,237.7z"/>
			</g>
		</g>
		<g>
			<g>
				<path class="st1" d="M779.6,215.7l22,22l-22,22l-22-22L779.6,215.7z"/>
				<path class="st2" d="M779.6,259.6l-22-22h44L779.6,259.6z"/>
			</g>
		</g>
		<g>
			<g>
				<path class="st1" d="M823.6,215.7l22,22l-22,22l-22-22L823.6,215.7z"/>
				<path class="st2" d="M823.6,259.6l-22-22h44L823.6,259.6z"/>
			</g>
		</g>
		<g>
			<g>
				<path class="st1" d="M779.6,171.6l22,22l-22,22l-22-22L779.6,171.6z"/>
				<path class="st2" d="M779.6,215.6l-22-22h44L779.6,215.6z"/>
			</g>
		</g>
		<g>
			<g>
				<path class="st1" d="M823.6,171.6l22,22l-22,22l-22-22L823.6,171.6z"/>
				<path class="st2" d="M823.6,215.6l-22-22h44L823.6,215.6z"/>
			</g>
		</g>
		<g>
			<g>
				<path class="st1" d="M845.6,193.6l22,22l-22,22l-22-22L845.6,193.6z"/>
				<path class="st2" d="M845.6,237.7l-22-22h44L845.6,237.7z"/>
			</g>
		</g>
		<g>
			<g>
				<path class="st1" d="M889.6,193.6l22,22l-22,22l-22-22L889.6,193.6z"/>
				<path class="st2" d="M889.6,237.7l-22-22h44L889.6,237.7z"/>
			</g>
		</g>
		<g>
			<g>
				<path class="st1" d="M867.6,215.7l22,22l-22,22l-22-22L867.6,215.7z"/>
				<path class="st2" d="M867.6,259.6l-22-22h44L867.6,259.6z"/>
			</g>
		</g>
		<g>
			<g>
				<path class="st1" d="M911.6,215.6l22,22l-22,22l-22-22L911.6,215.6z"/>
				<path class="st2" d="M911.6,259.6l-22-22h44.1L911.6,259.6z"/>
			</g>
		</g>
		<g>
			<g>
				<path class="st1" d="M867.6,171.7l22,22l-22,22l-22-22L867.6,171.7z"/>
				<path class="st2" d="M867.6,215.6l-22-22h44L867.6,215.6z"/>
			</g>
		</g>
		<g>
			<g>
				<path class="st1" d="M911.6,171.6l22,22l-22,22l-22-22L911.6,171.6z"/>
				<path class="st2" d="M911.6,215.6l-22-22h44.1L911.6,215.6z"/>
			</g>
		</g>
		<g>
			<g>
				<path class="st1" d="M933.6,193.6l22,22l-22,22l-22-22L933.6,193.6z"/>
				<path class="st2" d="M933.6,237.7l-22-22h44L933.6,237.7z"/>
			</g>
		</g>
		<g>
			<g>
				<path class="st1" d="M977.6,193.6l22,22l-22,22l-22-22L977.6,193.6z"/>
				<path class="st2" d="M977.6,237.7l-22-22h44L977.6,237.7z"/>
			</g>
		</g>
		<g>
			<g>
				<path class="st1" d="M955.6,215.6l22,22l-22,22l-22-22L955.6,215.6z"/>
				<path class="st2" d="M955.6,259.6l-22-22h44L955.6,259.6z"/>
			</g>
		</g>
		<g>
			<g>
				<path class="st1" d="M999.6,215.6l22,22l-22,22l-22-22L999.6,215.6z"/>
				<path class="st2" d="M999.6,259.6l-22-22h44L999.6,259.6z"/>
			</g>
		</g>
		<g>
			<g>
				<path class="st1" d="M955.6,171.6l22,22l-22,22l-22-22L955.6,171.6z"/>
				<path class="st2" d="M955.6,215.6l-22-22h44L955.6,215.6z"/>
			</g>
		</g>
		<g>
			<g>
				<path class="st1" d="M999.6,171.6l22,22l-22,22l-22-22L999.6,171.6z"/>
				<path class="st2" d="M999.6,215.6l-22-22h44L999.6,215.6z"/>
			</g>
		</g>
		<g>
			<g>
				<path class="st1" d="M1021.6,193.6l22,22l-22,22l-22-22L1021.6,193.6z"/>
				<path class="st2" d="M1021.6,237.7l-22-22h44L1021.6,237.7z"/>
			</g>
		</g>
		<g>
			<g>
				<path class="st1" d="M1043.6,303.7l-22,22l-22-22l22-22L1043.6,303.7z"/>
				<path class="st2" d="M1021.6,325.7l22-22h-44L1021.6,325.7z"/>
			</g>
		</g>
		<g>
			<g>
				<path class="st1" d="M1043.6,259.7l-22,22l-22-22l22-22L1043.6,259.7z"/>
				<path class="st2" d="M1021.6,281.7l22-22h-44L1021.6,281.7z"/>
			</g>
		</g>
		<g>
			<g>
				<path class="st1" d="M1021.6,281.6l-22,22l-22-22l22-22L1021.6,281.6z"/>
				<path class="st2" d="M999.6,303.6l22-22h-44L999.6,303.6z"/>
			</g>
		</g>
		<g>
			<g>
				<path class="st1" d="M977.6,281.6l-22,22l-22-22l22-22L977.6,281.6z"/>
				<path class="st2" d="M955.6,303.6l22-22h-44L955.6,303.6z"/>
			</g>
		</g>
		<g>
			<g>
				<path class="st1" d="M999.6,303.7l-22,22l-22-22l22-22L999.6,303.7z"/>
				<path class="st2" d="M977.6,325.7l22-22h-44L977.6,325.7z"/>
			</g>
		</g>
		<g>
			<g>
				<path class="st1" d="M955.6,303.7l-22,22l-22-22l22-22L955.6,303.7z"/>
				<path class="st2" d="M933.6,325.7l22-22h-44L933.6,325.7z"/>
			</g>
		</g>
		<g>
			<g>
				<path class="st1" d="M999.6,259.7l-22,22l-22-22l22-22L999.6,259.7z"/>
				<path class="st2" d="M977.6,281.7l22-22h-44L977.6,281.7z"/>
			</g>
		</g>
		<g>
			<g>
				<path class="st1" d="M955.6,259.7l-22,22l-22-22l22-22L955.6,259.7z"/>
				<path class="st2" d="M933.6,281.7l22-22h-44L933.6,281.7z"/>
			</g>
		</g>
		<g>
			<g>
				<path class="st1" d="M933.6,281.6l-22,22l-22-22l22-22L933.6,281.6z"/>
				<path class="st2" d="M911.6,303.6l22-22h-44.1L911.6,303.6z"/>
			</g>
		</g>
		<g>
			<g>
				<path class="st1" d="M889.6,281.7l-22,22l-22-22l22-22L889.6,281.7z"/>
				<path class="st2" d="M867.6,303.6l22-22h-44L867.6,303.6z"/>
			</g>
		</g>
		<g>
			<g>
				<path class="st1" d="M911.6,303.7l-22,22l-22-22l22-22L911.6,303.7z"/>
				<path class="st2" d="M889.6,325.7l22-22h-44L889.6,325.7z"/>
			</g>
		</g>
		<g>
			<g>
				<path class="st1" d="M867.6,303.6l-22,22l-22-22l22-22L867.6,303.6z"/>
				<path class="st2" d="M845.6,325.7l22-22h-44L845.6,325.7z"/>
			</g>
		</g>
		<g>
			<g>
				<path class="st1" d="M911.6,259.7l-22,22l-22-22l22-22L911.6,259.7z"/>
				<path class="st2" d="M889.6,281.7l22-22h-44L889.6,281.7z"/>
			</g>
		</g>
		<g>
			<g>
				<path class="st1" d="M867.6,259.6l-22,22l-22-22l22-22L867.6,259.6z"/>
				<path class="st2" d="M845.6,281.7l22-22h-44L845.6,281.7z"/>
			</g>
		</g>
		<g>
			<g>
				<path class="st1" d="M845.6,281.6l-22,22l-22-22l22-22L845.6,281.6z"/>
				<path class="st2" d="M823.6,303.6l22-22h-44L823.6,303.6z"/>
			</g>
		</g>
		<g>
			<g>
				<path class="st1" d="M801.6,281.6l-22,22l-22-22l22-22L801.6,281.6z"/>
				<path class="st2" d="M779.6,303.6l22-22h-44L779.6,303.6z"/>
			</g>
		</g>
		<g>
			<g>
				<path class="st1" d="M823.6,303.6l-22,22l-22-22l22-22L823.6,303.6z"/>
				<path class="st2" d="M801.6,325.7l22-22h-44L801.6,325.7z"/>
			</g>
		</g>
		<g>
			<g>
				<path class="st1" d="M779.6,303.6l-22,22l-22-22l22-22L779.6,303.6z"/>
				<path class="st2" d="M757.6,325.7l22-22h-44.1L757.6,325.7z"/>
			</g>
		</g>
		<g>
			<g>
				<path class="st1" d="M823.6,259.6l-22,22l-22-22l22-22L823.6,259.6z"/>
				<path class="st2" d="M801.6,281.7l22-22h-44L801.6,281.7z"/>
			</g>
		</g>
		<g>
			<g>
				<path class="st1" d="M779.6,259.6l-22,22l-22-22l22-22L779.6,259.6z"/>
				<path class="st2" d="M757.6,281.7l22-22h-44.1L757.6,281.7z"/>
			</g>
		</g>
		<g>
			<g>
				<path class="st1" d="M757.5,325.6l22,22l-22,22l-22-22L757.5,325.6z"/>
				<path class="st2" d="M757.6,369.7l-22-22h44.1L757.6,369.7z"/>
			</g>
		</g>
		<g>
			<g>
				<path class="st1" d="M801.6,325.6l22,22l-22,22l-22-22L801.6,325.6z"/>
				<path class="st2" d="M801.6,369.7l-22-22h44L801.6,369.7z"/>
			</g>
		</g>
		<g>
			<g>
				<path class="st1" d="M779.5,347.7l22,22l-22,22l-22-22L779.5,347.7z"/>
				<path class="st2" d="M779.6,391.7l-22-22h44L779.6,391.7z"/>
			</g>
		</g>
		<g>
			<g>
				<path class="st1" d="M823.6,347.7l22,22l-22,22l-22-22L823.6,347.7z"/>
				<path class="st2" d="M823.6,391.7l-22-22h44L823.6,391.7z"/>
			</g>
		</g>
		<g>
			<g>
				<path class="st1" d="M779.6,303.7l22,22l-22,22l-22-22L779.6,303.7z"/>
				<path class="st2" d="M779.6,347.6l-22-22h44L779.6,347.6z"/>
			</g>
		</g>
		<g>
			<g>
				<path class="st1" d="M823.6,303.7l22,22l-22,22l-22-22L823.6,303.7z"/>
				<path class="st2" d="M823.6,347.6l-22-22h44L823.6,347.6z"/>
			</g>
		</g>
		<g>
			<g>
				<path class="st1" d="M845.6,325.7l22,22l-22,22l-22-22L845.6,325.7z"/>
				<path class="st2" d="M845.6,369.7l-22-22h44L845.6,369.7z"/>
			</g>
		</g>
		<g>
			<g>
				<path class="st1" d="M889.6,325.7l22,22l-22,22l-22-22L889.6,325.7z"/>
				<path class="st2" d="M889.6,369.7l-22-22h44L889.6,369.7z"/>
			</g>
		</g>
		<g>
			<g>
				<path class="st1" d="M867.6,347.7l22,22l-22,22l-22-22L867.6,347.7z"/>
				<path class="st2" d="M867.6,391.7l-22-22h44L867.6,391.7z"/>
			</g>
		</g>
		<g>
			<g>
				<path class="st1" d="M911.5,347.7l22,22l-22,22l-22-22L911.5,347.7z"/>
				<path class="st2" d="M911.6,391.7l-22-22h44.1L911.6,391.7z"/>
			</g>
		</g>
		<g>
			<g>
				<path class="st1" d="M867.6,303.7l22,22l-22,22l-22-22L867.6,303.7z"/>
				<path class="st2" d="M867.6,347.6l-22-22h44L867.6,347.6z"/>
			</g>
		</g>
		<g>
			<g>
				<path class="st1" d="M911.5,303.7l22,22l-22,22l-22-22L911.5,303.7z"/>
				<path class="st2" d="M911.6,347.6l-22-22h44.1L911.6,347.6z"/>
			</g>
		</g>
		<g>
			<g>
				<path class="st1" d="M933.6,325.7l22,22l-22,22l-22-22L933.6,325.7z"/>
				<path class="st2" d="M933.6,369.7l-22-22h44L933.6,369.7z"/>
			</g>
		</g>
		<g>
			<g>
				<path class="st1" d="M977.6,325.7l22,22l-22,22l-22-22L977.6,325.7z"/>
				<path class="st2" d="M977.6,369.7l-22-22h44L977.6,369.7z"/>
			</g>
		</g>
		<g>
			<g>
				<path class="st1" d="M955.6,347.7l22,22l-22,22l-22-22L955.6,347.7z"/>
				<path class="st2" d="M955.6,391.7l-22-22h44L955.6,391.7z"/>
			</g>
		</g>
		<g>
			<g>
				<path class="st1" d="M999.6,347.7l22,22l-22,22l-22-22L999.6,347.7z"/>
				<path class="st2" d="M999.6,391.7l-22-22h44L999.6,391.7z"/>
			</g>
		</g>
		<g>
			<g>
				<path class="st1" d="M955.6,303.7l22,22l-22,22l-22-22L955.6,303.7z"/>
				<path class="st2" d="M955.6,347.6l-22-22h44L955.6,347.6z"/>
			</g>
		</g>
		<g>
			<g>
				<path class="st1" d="M999.6,303.7l22,22l-22,22l-22-22L999.6,303.7z"/>
				<path class="st2" d="M999.6,347.6l-22-22h44L999.6,347.6z"/>
			</g>
		</g>
		<g>
			<g>
				<path class="st1" d="M1021.6,325.7l22,22l-22,22l-22-22L1021.6,325.7z"/>
				<path class="st2" d="M1021.6,369.7l-22-22h44L1021.6,369.7z"/>
			</g>
		</g>
		<g>
			<g>
				<path class="st1" d="M1043.6,435.7l-22,22l-22-22l22-22L1043.6,435.7z"/>
				<path class="st2" d="M1021.6,457.7l22-22h-44L1021.6,457.7z"/>
			</g>
		</g>
		<g>
			<g>
				<path class="st1" d="M1043.6,391.7l-22,22l-22-22l22-22L1043.6,391.7z"/>
				<path class="st2" d="M1021.6,413.7l22-22h-44L1021.6,413.7z"/>
			</g>
		</g>
		<g>
			<g>
				<path class="st1" d="M1021.6,413.7l-22,22l-22-22l22-22L1021.6,413.7z"/>
				<path class="st2" d="M999.6,435.7l22-22h-44L999.6,435.7z"/>
			</g>
		</g>
		<g>
			<g>
				<path class="st1" d="M977.6,413.7l-22,22l-22-22l22-22L977.6,413.7z"/>
				<path class="st2" d="M955.6,435.7l22-22h-44L955.6,435.7z"/>
			</g>
		</g>
		<g>
			<g>
				<path class="st1" d="M999.6,435.7l-22,22l-22-22l22-22L999.6,435.7z"/>
				<path class="st2" d="M977.6,457.7l22-22h-44L977.6,457.7z"/>
			</g>
		</g>
		<g>
			<g>
				<path class="st1" d="M955.6,435.7l-22,22l-22-22l22-22L955.6,435.7z"/>
				<path class="st2" d="M933.6,457.7l22-22h-44L933.6,457.7z"/>
			</g>
		</g>
		<g>
			<g>
				<path class="st1" d="M999.6,391.7l-22,22l-22-22l22-22L999.6,391.7z"/>
				<path class="st2" d="M977.6,413.7l22-22h-44L977.6,413.7z"/>
			</g>
		</g>
		<g>
			<g>
				<path class="st1" d="M955.6,391.7l-22,22l-22-22l22-22L955.6,391.7z"/>
				<path class="st2" d="M933.6,413.7l22-22h-44L933.6,413.7z"/>
			</g>
		</g>
		<g>
			<g>
				<path class="st1" d="M933.6,413.7l-22,22l-22-22l22-22L933.6,413.7z"/>
				<path class="st2" d="M911.6,435.7l22-22h-44.1L911.6,435.7z"/>
			</g>
		</g>
		<g>
			<g>
				<path class="st1" d="M889.6,413.7l-22,22l-22-22l22-22L889.6,413.7z"/>
				<path class="st2" d="M867.6,435.7l22-22h-44L867.6,435.7z"/>
			</g>
		</g>
		<g>
			<g>
				<path class="st1" d="M911.6,435.7l-22,22l-22-22l22-22L911.6,435.7z"/>
				<path class="st2" d="M889.6,457.7l22-22h-44L889.6,457.7z"/>
			</g>
		</g>
		<g>
			<g>
				<path class="st1" d="M867.6,435.6l-22,22l-22-22l22-22L867.6,435.6z"/>
				<path class="st2" d="M845.6,457.7l22-22h-44L845.6,457.7z"/>
			</g>
		</g>
		<g>
			<g>
				<path class="st1" d="M911.6,391.7l-22,22l-22-22l22-22L911.6,391.7z"/>
				<path class="st2" d="M889.6,413.7l22-22h-44L889.6,413.7z"/>
			</g>
		</g>
		<g>
			<g>
				<path class="st1" d="M867.6,391.6l-22,22l-22-22l22-22L867.6,391.6z"/>
				<path class="st2" d="M845.6,413.7l22-22h-44L845.6,413.7z"/>
			</g>
		</g>
		<g>
			<g>
				<path class="st1" d="M845.6,413.7l-22,22l-22-22l22-22L845.6,413.7z"/>
				<path class="st2" d="M823.6,435.7l22-22h-44L823.6,435.7z"/>
			</g>
		</g>
		<g>
			<g>
				<path class="st1" d="M801.6,413.7l-22,22l-22-22l22-22L801.6,413.7z"/>
				<path class="st2" d="M779.6,435.7l22-22h-44L779.6,435.7z"/>
			</g>
		</g>
		<g>
			<g>
				<path class="st1" d="M823.6,435.6l-22,22l-22-22l22-22L823.6,435.6z"/>
				<path class="st2" d="M801.6,457.7l22-22h-44L801.6,457.7z"/>
			</g>
		</g>
		<g>
			<g>
				<path class="st1" d="M779.6,435.6l-22,22l-22-22l22-22L779.6,435.6z"/>
				<path class="st2" d="M757.6,457.7l22-22h-44.1L757.6,457.7z"/>
			</g>
		</g>
		<g>
			<g>
				<path class="st1" d="M823.6,391.6l-22,22l-22-22l22-22L823.6,391.6z"/>
				<path class="st2" d="M801.6,413.7l22-22h-44L801.6,413.7z"/>
			</g>
		</g>
		<g>
			<g>
				<path class="st1" d="M779.6,391.6l-22,22l-22-22l22-22L779.6,391.6z"/>
				<path class="st2" d="M757.6,413.7l22-22h-44.1L757.6,413.7z"/>
			</g>
		</g>
		<g>
			<g>
				<path class="st1" d="M757.5,457.7l22,22l-22,22l-22-22L757.5,457.7z"/>
				<path class="st2" d="M757.6,501.7l-22-22h44.1L757.6,501.7z"/>
			</g>
		</g>
		<g>
			<g>
				<path class="st1" d="M801.5,457.7l22,22l-22,22l-22-22L801.5,457.7z"/>
				<path class="st2" d="M801.6,501.7l-22-22h44L801.6,501.7z"/>
			</g>
		</g>
		<g>
			<g>
				<path class="st1" d="M779.6,479.7l22,22l-22,22l-22-22L779.6,479.7z"/>
				<path class="st2" d="M779.6,523.7l-22-22h44L779.6,523.7z"/>
			</g>
		</g>
		<g>
			<g>
				<path class="st1" d="M823.6,479.7l22,22l-22,22l-22-22L823.6,479.7z"/>
				<path class="st2" d="M823.6,523.7l-22-22h44L823.6,523.7z"/>
			</g>
		</g>
		<g>
			<g>
				<path class="st1" d="M779.6,435.7l22,22l-22,22l-22-22L779.6,435.7z"/>
				<path class="st2" d="M779.6,479.7l-22-22h44L779.6,479.7z"/>
			</g>
		</g>
		<g>
			<g>
				<path class="st1" d="M823.6,435.7l22,22l-22,22l-22-22L823.6,435.7z"/>
				<path class="st2" d="M823.6,479.7l-22-22h44L823.6,479.7z"/>
			</g>
		</g>
		<g>
			<g>
				<path class="st1" d="M845.5,457.7l22,22l-22,22l-22-22L845.5,457.7z"/>
				<path class="st2" d="M845.6,501.7l-22-22h44L845.6,501.7z"/>
			</g>
		</g>
		<g>
			<g>
				<path class="st1" d="M889.6,457.7l22,22l-22,22l-22-22L889.6,457.7z"/>
				<path class="st2" d="M889.6,501.7l-22-22h44L889.6,501.7z"/>
			</g>
		</g>
		<g>
			<g>
				<path class="st1" d="M867.6,479.7l22,22l-22,22l-22-22L867.6,479.7z"/>
				<path class="st2" d="M867.6,523.7l-22-22h44L867.6,523.7z"/>
			</g>
		</g>
		<g>
			<g>
				<path class="st1" d="M911.6,479.7l22,22l-22,22l-22-22L911.6,479.7z"/>
				<path class="st2" d="M911.6,523.7l-22-22h44.1L911.6,523.7z"/>
			</g>
		</g>
		<g>
			<g>
				<path class="st1" d="M867.6,435.7l22,22l-22,22l-22-22L867.6,435.7z"/>
				<path class="st2" d="M867.6,479.7l-22-22h44L867.6,479.7z"/>
			</g>
		</g>
		<g>
			<g>
				<path class="st1" d="M911.6,435.6l22,22l-22,22l-22-22L911.6,435.6z"/>
				<path class="st2" d="M911.6,479.7l-22-22h44.1L911.6,479.7z"/>
			</g>
		</g>
		<g>
			<g>
				<path class="st1" d="M933.6,457.7l22,22l-22,22l-22-22L933.6,457.7z"/>
				<path class="st2" d="M933.6,501.7l-22-22h44L933.6,501.7z"/>
			</g>
		</g>
		<g>
			<g>
				<path class="st1" d="M977.6,457.7l22,22l-22,22l-22-22L977.6,457.7z"/>
				<path class="st2" d="M977.6,501.7l-22-22h44L977.6,501.7z"/>
			</g>
		</g>
		<g>
			<g>
				<path class="st1" d="M955.6,479.7l22,22l-22,22l-22-22L955.6,479.7z"/>
				<path class="st2" d="M955.6,523.7l-22-22h44L955.6,523.7z"/>
			</g>
		</g>
		<g>
			<g>
				<path class="st1" d="M999.6,479.7l22,22l-22,22l-22-22L999.6,479.7z"/>
				<path class="st2" d="M999.6,523.7l-22-22h44L999.6,523.7z"/>
			</g>
		</g>
		<g>
			<g>
				<path class="st1" d="M955.6,435.7l22,22l-22,22l-22-22L955.6,435.7z"/>
				<path class="st2" d="M955.6,479.7l-22-22h44L955.6,479.7z"/>
			</g>
		</g>
		<g>
			<g>
				<path class="st1" d="M999.6,435.7l22,22l-22,22l-22-22L999.6,435.7z"/>
				<path class="st2" d="M999.6,479.7l-22-22h44L999.6,479.7z"/>
			</g>
		</g>
		<g>
			<g>
				<path class="st1" d="M1021.6,457.7l22,22l-22,22l-22-22L1021.6,457.7z"/>
				<path class="st2" d="M1021.6,501.7l-22-22h44L1021.6,501.7z"/>
			</g>
		</g>
		<g>
			<g>
				<path class="st1" d="M1043.6,523.7l-22,22l-22-22l22-22L1043.6,523.7z"/>
				<path class="st2" d="M1021.6,545.7l22-22h-44L1021.6,545.7z"/>
			</g>
		</g>
		<g>
			<g>
				<path class="st1" d="M1021.6,545.7l-22,22l-22-22l22-22L1021.6,545.7z"/>
			</g>
		</g>
		<g>
			<g>
				<path class="st1" d="M977.6,545.7l-22,22l-22-22l22-22L977.6,545.7z"/>
			</g>
		</g>
		<g>
			<g>
				<path class="st1" d="M999.6,523.7l-22,22l-22-22l22-22L999.6,523.7z"/>
				<path class="st2" d="M977.6,545.7l22-22h-44L977.6,545.7z"/>
			</g>
		</g>
		<g>
			<g>
				<path class="st1" d="M955.6,523.7l-22,22l-22-22l22-22L955.6,523.7z"/>
				<path class="st2" d="M933.6,545.7l22-22h-44L933.6,545.7z"/>
			</g>
		</g>
		<g>
			<g>
				<path class="st1" d="M933.6,545.7l-22,22l-22-22l22-22L933.6,545.7z"/>
			</g>
		</g>
		<g>
			<g>
				<path class="st1" d="M889.6,545.7l-22,22l-22-22l22-22L889.6,545.7z"/>
			</g>
		</g>
		<g>
			<g>
				<path class="st1" d="M911.6,523.7l-22,22l-22-22l22-22L911.6,523.7z"/>
				<path class="st2" d="M889.6,545.7l22-22h-44L889.6,545.7z"/>
			</g>
		</g>
		<g>
			<g>
				<path class="st1" d="M867.6,523.6l-22,22l-22-22l22-22L867.6,523.6z"/>
				<path class="st2" d="M845.6,545.7l22-22h-44L845.6,545.7z"/>
			</g>
		</g>
		<g>
			<g>
				<path class="st1" d="M845.6,545.7l-22,22l-22-22l22-22L845.6,545.7z"/>
			</g>
		</g>
		<g>
			<g>
				<path class="st1" d="M801.6,545.7l-22,22l-22-22l22-22L801.6,545.7z"/>
			</g>
		</g>
		<g>
			<g>
				<path class="st1" d="M823.6,523.6l-22,22l-22-22l22-22L823.6,523.6z"/>
				<path class="st2" d="M801.6,545.7l22-22h-44L801.6,545.7z"/>
			</g>
		</g>
		<g>
			<g>
				<path class="st1" d="M779.6,523.6l-22,22l-22-22l22-22L779.6,523.6z"/>
				<path class="st2" d="M757.6,545.7l22-22h-44.1L757.6,545.7z"/>
			</g>
		</g>
	</g>
</g>
<g>
	<defs>
		<rect id="SVGID_3_" x="1044" width="1024" height="540"/>
	</defs>
	<clipPath id="SVGID_4_">
		<use xlink:href="#SVGID_3_"  style="overflow:visible;"/>
	</clipPath>
	<g class="st3">
		<g>
			<g>
				<path class="st4" d="M1031.4-7.5l22,22.2l-22,22.2l-22-22.2L1031.4-7.5z"/>
				<path class="st5" d="M1053.4,14.8h-44l22,22.3L1053.4,14.8z"/>
			</g>
			<g>
				<path class="st4" d="M1053.3,103.8l-22,22.2l-22-22.2l22-22.2L1053.3,103.8z"/>
				<path class="st5" d="M1009.4,103.8h44l-22,22.3L1009.4,103.8z"/>
			</g>
			<g>
				<path class="st4" d="M1053.3,59.3l-22,22.2l-22-22.2l22-22.2L1053.3,59.3z"/>
				<path class="st5" d="M1009.4,59.3h44l-22,22.3L1009.4,59.3z"/>
			</g>
			<g>
				<path class="st4" d="M1031.4,126.1l22,22.2l-22,22.2l-22-22.2L1031.4,126.1z"/>
				<path class="st5" d="M1053.4,148.3h-44l22,22.3L1053.4,148.3z"/>
			</g>
			<g>
				<path class="st4" d="M1053.3,237.3l-22,22.2l-22-22.2l22-22.2L1053.3,237.3z"/>
				<path class="st5" d="M1009.4,237.3h44l-22,22.2L1009.4,237.3z"/>
			</g>
			<g>
				<path class="st4" d="M1053.3,192.8l-22,22.2l-22-22.2l22-22.2L1053.3,192.8z"/>
				<path class="st5" d="M1009.4,192.8h44l-22,22.3L1009.4,192.8z"/>
			</g>
			<g>
				<path class="st4" d="M1031.4,259.5l22,22.2l-22,22.2l-22-22.2L1031.4,259.5z"/>
				<path class="st5" d="M1053.4,281.8h-44l22,22.2L1053.4,281.8z"/>
			</g>
			<g>
				<path class="st4" d="M1053.4,370.8l-22,22.2l-22-22.2l22-22.2L1053.4,370.8z"/>
				<path class="st5" d="M1009.4,370.8h44l-22,22.3L1009.4,370.8z"/>
			</g>
			<g>
				<path class="st4" d="M1053.3,326.3l-22,22.2l-22-22.2l22-22.2L1053.3,326.3z"/>
				<path class="st5" d="M1009.4,326.3h44l-22,22.2L1009.4,326.3z"/>
			</g>
			<g>
				<path class="st4" d="M1031.3,393.1l22,22.2l-22,22.2l-22-22.2L1031.3,393.1z"/>
				<path class="st5" d="M1053.4,415.3h-44l22,22.3L1053.4,415.3z"/>
			</g>
			<g>
				<path class="st4" d="M1053.3,504.3l-22,22.2l-22-22.2l22-22.2L1053.3,504.3z"/>
				<path class="st5" d="M1009.4,504.3h44l-22,22.3L1009.4,504.3z"/>
			</g>
			<g>
				<path class="st4" d="M1053.3,459.8l-22,22.2l-22-22.2l22-22.2L1053.3,459.8z"/>
				<path class="st5" d="M1009.4,459.8h44l-22,22.3L1009.4,459.8z"/>
			</g>
			<g>
				<path class="st4" d="M1031.4,526.6l22,22.2l-22,22.2l-22-22.2L1031.4,526.6z"/>
			</g>
		</g>
	</g>
</g>
</svg>
